<?xml version="1.0" encoding="utf-8"?>
<!-- Generator: Adobe Illustrator 21.1.0, SVG Export Plug-In . SVG Version: 6.00 Build 0)  -->
<svg version="1.1" id="Layer_1" xmlns="http://www.w3.org/2000/svg" xmlns:xlink="http://www.w3.org/1999/xlink" x="0px" y="0px"
	 viewBox="0 0 64 64" style="enable-background:new 0 0 64 64;" xml:space="preserve">
<style type="text/css">
	.st0{fill:#1D1D1B;}
</style>
<g>
	<path class="st0" d="M47.4,1.1l-8,13.5c-0.6,1-0.1,2.2,1,2.8c1.2,0.5,2.6,0.1,3.2-0.9l5.1-8.6c1.2,7.8-0.5,16-0.6,16.1
		C44,46.5,23.7,62.4,2.7,59.6c-1.3-0.2-2.5,0.6-2.7,1.7c0,0.1,0,0.2,0,0.3c0,1,0.8,1.9,2,2c23.5,3.2,46.3-14.2,50.7-38.9
		c0.1-0.4,1.8-8.4,0.7-16.5l6.5,5.6c0.9,0.8,2.4,0.8,3.3,0c0.9-0.8,0.9-2.1,0-2.9L51.1,0.6c0,0-0.1,0-0.1,0
		c-0.2-0.1-0.4-0.3-0.6-0.4c0,0,0,0-0.1,0C50.1,0.1,49.9,0,49.7,0c0,0-0.1,0-0.1,0c-0.1,0-0.1,0-0.2,0c-0.2,0-0.4,0-0.6,0.1
		c-0.1,0-0.1,0-0.2,0.1c-0.2,0.1-0.5,0.2-0.7,0.4c0,0,0,0,0,0l0,0C47.6,0.8,47.5,0.9,47.4,1.1z"/>
</g>
</svg>
