<?xml version="1.0" encoding="utf-8"?>
<!-- Generator: Adobe Illustrator 21.1.0, SVG Export Plug-In . SVG Version: 6.00 Build 0)  -->
<svg version="1.1" id="Слой_3" xmlns="http://www.w3.org/2000/svg" xmlns:xlink="http://www.w3.org/1999/xlink" x="0px" y="0px"
	 viewBox="0 0 15 13.7" style="enable-background:new 0 0 15 13.7;" xml:space="preserve">
<style type="text/css">
	.st0{fill:#54AA9E;}
</style>
<g>
	<path class="st0" d="M12.5,13.7h-10c-0.9,0-1.7-0.5-2.2-1.2c-0.5-0.8-0.5-1.7,0-2.5l5-8.7C5.8,0.5,6.6,0,7.5,0s1.7,0.5,2.2,1.2
		l5,8.7c0.5,0.8,0.5,1.7,0,2.5C14.2,13.2,13.4,13.7,12.5,13.7z M7.5,2C7.4,2,7.2,2,7.1,2.2l-5,8.7c-0.1,0.2,0,0.4,0,0.5
		c0,0.1,0.2,0.2,0.4,0.2h10c0.3,0,0.4-0.2,0.4-0.2c0-0.1,0.1-0.3,0-0.5l-5-8.7C7.8,2,7.6,2,7.5,2z"/>
</g>
</svg>
