<?xml version="1.0" encoding="utf-8"?>
<!-- Generator: Adobe Illustrator 21.1.0, SVG Export Plug-In . SVG Version: 6.00 Build 0)  -->
<svg version="1.1" id="Layer_1" xmlns="http://www.w3.org/2000/svg" xmlns:xlink="http://www.w3.org/1999/xlink" x="0px" y="0px"
	 viewBox="0 0 612 612" style="enable-background:new 0 0 612 612;" xml:space="preserve">
<style type="text/css">
	.st0{fill:#6AC2B6;}
</style>
<g>
	<g id="xUx8lA.tif">
		<image style="overflow:visible;" width="612" height="612" id="Layer_1_1_" xlink:href="7DF1C10852EB706A.png" >
		</image>
	</g>
	<g>
		<g>
			<g>
				<path class="st0" d="M494.6,301.4c-73-39.8-146-79.6-219-119.5c-20.7-11.3-41.5-22.6-62.2-33.9c-6.3-3.4-11.9,6.2-5.6,9.6
					c73,39.8,146,79.6,219,119.5c20.7,11.3,41.5,22.6,62.2,33.9C495.2,314.4,500.8,304.8,494.6,301.4L494.6,301.4z"/>
			</g>
			<g>
				<path class="st0" d="M331.1,387.5c-41.1,22.4-82.2,44.8-123.3,67.3c-6.3,3.4-0.7,13,5.6,9.6c41.1-22.4,82.2-44.8,123.3-67.3
					C342.9,393.7,337.4,384.1,331.1,387.5L331.1,387.5z"/>
			</g>
			<g>
				<path class="st0" d="M489,301.4c-36.2,19.8-72.5,39.5-108.7,59.3c-6.3,3.4-0.7,13,5.6,9.6c36.2-19.8,72.5-39.5,108.7-59.3
					C500.8,307.6,495.2,298,489,301.4L489,301.4z"/>
			</g>
			<g>
				<path class="st0" d="M204.7,152.8c0.1,79.2,0.2,158.4,0.3,237.6c0,23.1,0.1,46.1,0.1,69.2c0,7.1,11.1,7.1,11.1,0
					c-0.1-79.2-0.2-158.4-0.3-237.6c0-23.1-0.1-46.1-0.1-69.2C215.8,145.7,204.7,145.6,204.7,152.8L204.7,152.8z"/>
			</g>
		</g>
		<g>
			<g>
				<path class="st0" d="M438.2,301.7c-51.3-28-102.5-55.9-153.8-83.9c-14.6-8-29.3-16-43.9-24c-6.3-3.4-11.9,6.2-5.6,9.6
					c51.3,28,102.5,55.9,153.8,83.9c14.6,8,29.3,16,43.9,24C438.9,314.7,444.5,305.1,438.2,301.7L438.2,301.7z"/>
			</g>
			<g>
				<path class="st0" d="M432.6,301.7c-51.3,28-102.5,55.9-153.8,83.9c-14.6,8-29.3,16-43.9,24c-6.3,3.4-0.7,13,5.6,9.6
					c51.3-28,102.5-55.9,153.8-83.9c14.6-8,29.3-16,43.9-24C444.5,307.9,438.9,298.3,432.6,301.7L432.6,301.7z"/>
			</g>
			<g>
				<path class="st0" d="M232,198.6c0.1,55.6,0.1,111.2,0.2,166.9c0,16.3,0,32.6,0.1,48.8c0,7.1,11.1,7.1,11.1,0
					c-0.1-55.6-0.1-111.2-0.2-166.9c0-16.3,0-32.6-0.1-48.8C243,191.5,232,191.5,232,198.6L232,198.6z"/>
			</g>
		</g>
		<g>
			<g>
				<path class="st0" d="M380.3,301.4c-37.8-20.6-75.6-41.3-113.4-61.9c-6.3-3.4-11.9,6.2-5.6,9.6c37.8,20.6,75.6,41.3,113.4,61.9
					C381,314.4,386.6,304.8,380.3,301.4L380.3,301.4z"/>
			</g>
			<g>
				<path class="st0" d="M374.7,301.4c-37.8,20.6-75.6,41.3-113.4,61.9c-6.3,3.4-0.7,13,5.6,9.6c37.8-20.6,75.6-41.3,113.4-61.9
					C386.6,307.6,381,298,374.7,301.4L374.7,301.4z"/>
			</g>
		</g>
		<g>
			<g>
				<path class="st0" d="M353.4,316.4c-28.8-15.7-57.7-31.4-86.5-47.2c-6.3-3.4-11.9,6.2-5.6,9.6c28.8,15.7,57.7,31.4,86.5,47.2
					C354.1,329.4,359.7,319.8,353.4,316.4L353.4,316.4z"/>
			</g>
			<g>
				<path class="st0" d="M319,300.7c-19.2,10.5-38.4,21-57.7,31.5c-6.3,3.4-0.7,13,5.6,9.6c19.2-10.5,38.4-21,57.7-31.5
					C330.9,306.8,325.3,297.2,319,300.7L319,300.7z"/>
			</g>
			<g>
				<path class="st0" d="M258.6,274c0,21,0,41.9,0,62.9c0,7.1,11.1,7.1,11.1,0c0-21,0-41.9,0-62.9
					C269.7,266.9,258.6,266.9,258.6,274L258.6,274z"/>
			</g>
		</g>
	</g>
</g>
</svg>
