<?xml version="1.0" encoding="utf-8"?>
<!-- Generator: Adobe Illustrator 21.1.0, SVG Export Plug-In . SVG Version: 6.00 Build 0)  -->
<svg version="1.1" id="Layer_1" xmlns="http://www.w3.org/2000/svg" xmlns:xlink="http://www.w3.org/1999/xlink" x="0px" y="0px"
	 viewBox="0 0 320 320" style="enable-background:new 0 0 320 320;" xml:space="preserve">
<style type="text/css">
	.st0{fill:#6AC2B6;}
</style>
<g>
	<g>
		<g>
			<g>
				<path class="st0" d="M156.1,15.9c-39.8,73-79.6,146-119.5,219C25.3,255.7,14,276.4,2.7,297.1c-3.4,6.3,6.2,11.9,9.6,5.6
					c39.8-73,79.6-146,119.5-219c11.3-20.7,22.6-41.5,33.9-62.2C169.1,15.3,159.6,9.7,156.1,15.9L156.1,15.9z"/>
			</g>
			<g>
				<path class="st0" d="M242.3,179.4c22.4,41.1,44.8,82.2,67.3,123.3c3.4,6.3,13,0.7,9.6-5.6c-22.4-41.1-44.8-82.2-67.3-123.3
					C248.4,167.6,238.8,173.2,242.3,179.4L242.3,179.4z"/>
			</g>
			<g>
				<path class="st0" d="M156.1,21.5c19.8,36.2,39.5,72.5,59.3,108.7c3.4,6.3,13,0.7,9.6-5.6c-19.8-36.2-39.5-72.4-59.3-108.7
					C162.3,9.7,152.7,15.3,156.1,21.5L156.1,21.5z"/>
			</g>
			<g>
				<path class="st0" d="M7.5,305.8c79.2-0.1,158.4-0.2,237.6-0.3c23.1,0,46.1-0.1,69.2-0.1c7.1,0,7.1-11.1,0-11.1
					c-79.2,0.1-158.4,0.2-237.6,0.3c-23.1,0-46.1,0.1-69.2,0.1C0.4,294.7,0.4,305.8,7.5,305.8L7.5,305.8z"/>
			</g>
		</g>
		<g>
			<g>
				<path class="st0" d="M156.4,72.3c-28,51.3-55.9,102.5-83.9,153.8c-8,14.6-16,29.3-24,43.9c-3.4,6.3,6.2,11.9,9.6,5.6
					c28-51.3,55.9-102.5,83.9-153.8c8-14.6,16-29.3,24-43.9C169.4,71.6,159.9,66,156.4,72.3L156.4,72.3z"/>
			</g>
			<g>
				<path class="st0" d="M156.4,77.9c28,51.3,55.9,102.5,83.9,153.8c8,14.6,16,29.3,24,43.9c3.4,6.3,13,0.7,9.6-5.6
					c-28-51.3-55.9-102.6-83.9-153.8c-8-14.6-16-29.3-24-43.9C162.6,66,153,71.6,156.4,77.9L156.4,77.9z"/>
			</g>
			<g>
				<path class="st0" d="M53.4,278.5c55.6-0.1,111.2-0.1,166.9-0.2c16.3,0,32.6,0,48.8-0.1c7.1,0,7.1-11.1,0-11.1
					c-55.6,0.1-111.2,0.1-166.9,0.2c-16.3,0-32.6,0-48.8,0.1C46.2,267.5,46.2,278.6,53.4,278.5L53.4,278.5z"/>
			</g>
		</g>
		<g>
			<g>
				<path class="st0" d="M156.1,130.2c-20.6,37.8-41.3,75.6-61.9,113.4c-3.4,6.3,6.2,11.9,9.6,5.6c20.6-37.8,41.3-75.6,61.9-113.4
					C169.1,129.5,159.6,123.9,156.1,130.2L156.1,130.2z"/>
			</g>
			<g>
				<path class="st0" d="M156.1,135.8c20.6,37.8,41.3,75.6,61.9,113.4c3.4,6.3,13,0.7,9.6-5.6c-20.6-37.8-41.3-75.6-61.9-113.4
					C162.3,123.9,152.7,129.5,156.1,135.8L156.1,135.8z"/>
			</g>
		</g>
		<g>
			<g>
				<path class="st0" d="M171.1,157.1c-15.7,28.8-31.4,57.7-47.2,86.5c-3.4,6.3,6.2,11.9,9.6,5.6c15.7-28.8,31.4-57.7,47.2-86.5
					C184.1,156.4,174.6,150.8,171.1,157.1L171.1,157.1z"/>
			</g>
			<g>
				<path class="st0" d="M155.4,191.5c10.5,19.2,21,38.4,31.5,57.7c3.4,6.3,13,0.7,9.6-5.6c-10.5-19.2-21-38.4-31.5-57.7
					C161.6,179.6,152,185.2,155.4,191.5L155.4,191.5z"/>
			</g>
			<g>
				<path class="st0" d="M128.7,251.9c21,0,41.9,0,62.9,0c7.1,0,7.1-11.1,0-11.1c-21,0-41.9,0-62.9,0
					C121.6,240.8,121.6,251.9,128.7,251.9L128.7,251.9z"/>
			</g>
		</g>
	</g>
</g>
</svg>
