<?xml version="1.0" encoding="utf-8"?>
<!-- Generator: Adobe Illustrator 21.1.0, SVG Export Plug-In . SVG Version: 6.00 Build 0)  -->
<svg version="1.1" id="Layer_1" xmlns="http://www.w3.org/2000/svg" xmlns:xlink="http://www.w3.org/1999/xlink" x="0px" y="0px"
	 viewBox="0 0 1170.4 242.7" style="enable-background:new 0 0 1170.4 242.7;" xml:space="preserve">
<style type="text/css">
	.st0{fill:none;stroke:#E8EFEE;stroke-width:2;}
</style>
<g>
	<g>
		<path class="st0" d="M1,183.6v-118c0-8.9,1-17.2,3.1-25c2-7.8,5.4-14.6,10-20.5c4.6-5.9,10.6-10.5,17.8-13.9C39.1,2.7,48,1,58.5,1
			c19.3,0,33.4,5,42.4,15c9,10,13.5,23.1,13.5,39.1v2.7l-35.5,7.1c0-8.6-1.6-15.7-4.9-21.1c-3.3-5.4-8.6-8.1-15.8-8.1
			c-4.3,0-7.9,0.9-10.6,2.7c-2.8,1.8-4.9,4.1-6.3,7c-1.4,2.8-2.4,5.9-3,9.2c-0.6,3.3-0.8,6.4-0.8,9.3v119.8c0,2.5,0.3,4.9,1,7.1
			c0.7,4.1,2.3,7.8,4.9,11.2c2.6,3.4,7.2,5.1,13.7,5.1c6.6,0,11.9-1.6,15.9-4.8c4-3.2,6-7.6,6-13.2v-44.4H56.9v-34.7h58.3v75.4
			c0,18.6-5.3,32.7-15.8,42.2c-10.5,9.5-24.3,14.3-41.3,14.3c-19.4,0-33.8-4.9-43.1-14.8C5.7,217.1,1,202.7,1,183.6z"/>
		<path class="st0" d="M125.9,239.7c8-39.6,15.9-79.1,23.8-118.3c7.9-39.2,15.7-78.7,23.6-118.3h40.7l47.8,236.6h-37l-9.3-49H171
			c-1.3,7.9-2.7,16.1-4.1,24.4c-1.4,8.3-2.7,16.5-4.1,24.6H125.9z M176.7,156.1h32.5L194,57.8h-1.7c-2.2,16.2-4.7,32.4-7.4,48.7
			C182.3,122.7,179.5,139.2,176.7,156.1z"/>
		<path class="st0" d="M275.3,239.7V3.2h35.4l25.9,67.2l18.8,51.3h1.7L376,69.1l25.4-65.9h35.7v236.6h-37V103.4h-1.3l-14.9,42.2
			l-16.8,42.5H345l-16.9-43.8l-14.6-41.5h-1.8v137H275.3z"/>
		<path class="st0" d="M464.2,239.7V3.2h105.1v34.7h-68.1v64.6h59.3v34.7h-59.3V205h68.1v34.7H464.2z"/>
		<path class="st0" d="M647.3,183v-119c0-9.3,1.1-17.8,3.2-25.5c2.2-7.7,5.5-14.3,10.1-19.8c4.6-5.5,10.5-9.8,17.9-12.9
			C686,2.6,694.8,1,705,1c10.8,0,19.9,1.4,27.4,4.3c7.4,2.9,13.3,7,17.7,12.5c4.4,5.4,7.6,12,9.4,19.7c1.9,7.7,2.8,16.4,2.8,26.1
			v115.5c0,20.6-4.6,36.2-13.9,46.7c-9.3,10.6-23.9,15.9-43.8,15.9c-20,0-34.6-5-43.7-15.1C651.9,216.5,647.3,202,647.3,183z
			 M684.4,183.4c0,6.1,1.5,11.5,4.6,16.4s8.3,7.3,15.7,7.3c7.5,0,12.8-2.5,16-7.6c3.1-5.1,4.7-11.2,4.7-18.4V61.2
			c0-6.5-1.4-12.4-4.2-17.6s-8.2-7.9-16.1-7.9c-4.3,0-7.8,1-10.5,2.9c-2.7,1.9-4.8,4.3-6.2,7.1c-1.4,2.8-2.5,6-3.1,9.5
			c-0.6,3.5-0.9,6.7-0.9,9.6V183.4z"/>
		<path class="st0" d="M775.8,3.2h37l16,97.1l11,74.5h1.7l11-74.5l16.3-97.1h37l-43.5,236.6h-44L775.8,3.2z"/>
		<path class="st0" d="M924.9,239.7V3.2H1030v34.7h-68.1v64.6h59.3v34.7h-59.3V205h68.1v34.7H924.9z"/>
		<path class="st0" d="M1047.3,239.7V3.2h54.3c19.3,0,34.4,5.4,45.4,16.1c10.9,10.8,16.4,28.3,16.4,52.5c0,14.9-2.1,27.5-6.4,37.9
			c-4.3,10.3-11.7,18.4-22.5,24.3l34.5,105.8h-37l-30.4-97.9h-17.2v97.9H1047.3z M1084.3,107.1h14.9c9.5,0,16.5-2.8,21-8.3
			c4.5-5.5,6.8-14.4,6.8-26.7c0-10.8-2.2-19.2-6.6-25.3c-4.4-6-11.7-9-21.8-9h-14.2V107.1z"/>
	</g>
</g>
</svg>
