<?xml version="1.0" encoding="utf-8"?>
<!-- Generator: Adobe Illustrator 21.1.0, SVG Export Plug-In . SVG Version: 6.00 Build 0)  -->
<svg version="1.1" id="Layer_1" xmlns="http://www.w3.org/2000/svg" xmlns:xlink="http://www.w3.org/1999/xlink" x="0px" y="0px"
	 viewBox="0 0 320 384" style="enable-background:new 0 0 320 384;" xml:space="preserve">
<style type="text/css">
	.st0{fill:#6AC2B6;}
</style>
<g>
	<g>
		<g>
			<g>
				<path class="st0" d="M156.1,3.7c-39.8,73-79.6,146-119.5,219C25.3,243.5,14,264.2,2.7,284.9c-3.4,6.3,6.2,11.9,9.6,5.6
					c39.8-73,79.6-146,119.5-219c11.3-20.7,22.6-41.5,33.9-62.2C169.1,3.1,159.6-2.5,156.1,3.7L156.1,3.7z"/>
			</g>
			<g>
				<path class="st0" d="M242.3,167.2c22.4,41.1,44.8,82.2,67.3,123.3c3.4,6.3,13,0.7,9.6-5.6c-22.4-41.1-44.8-82.2-67.3-123.3
					C248.4,155.4,238.8,161,242.3,167.2L242.3,167.2z"/>
			</g>
			<g>
				<path class="st0" d="M156.1,9.3c19.8,36.2,39.5,72.5,59.3,108.7c3.4,6.3,13,0.7,9.6-5.6C205.2,76.2,185.5,40,165.7,3.7
					C162.3-2.5,152.7,3.1,156.1,9.3L156.1,9.3z"/>
			</g>
			<g>
				<path class="st0" d="M7.5,293.6c79.2-0.1,158.4-0.2,237.6-0.3c23.1,0,46.1-0.1,69.2-0.1c7.1,0,7.1-11.1,0-11.1
					c-79.2,0.1-158.4,0.2-237.6,0.3c-23.1,0-46.1,0.1-69.2,0.1C0.4,282.5,0.4,293.6,7.5,293.6L7.5,293.6z"/>
			</g>
		</g>
		<g>
			<g>
				<path class="st0" d="M156.4,60.1c-28,51.3-55.9,102.5-83.9,153.8c-8,14.6-16,29.3-24,43.9c-3.4,6.3,6.2,11.9,9.6,5.6
					c28-51.3,55.9-102.5,83.9-153.8c8-14.6,16-29.3,24-43.9C169.4,59.4,159.9,53.8,156.4,60.1L156.4,60.1z"/>
			</g>
			<g>
				<path class="st0" d="M156.4,65.7c28,51.3,55.9,102.5,83.9,153.8c8,14.6,16,29.3,24,43.9c3.4,6.3,13,0.7,9.6-5.6
					C245.9,206.5,218,155.2,190,104c-8-14.6-16-29.3-24-43.9C162.6,53.8,153,59.4,156.4,65.7L156.4,65.7z"/>
			</g>
			<g>
				<path class="st0" d="M53.4,266.3c55.6-0.1,111.2-0.1,166.9-0.2c16.3,0,32.6,0,48.8-0.1c7.1,0,7.1-11.1,0-11.1
					c-55.6,0.1-111.2,0.1-166.9,0.2c-16.3,0-32.6,0-48.8,0.1C46.2,255.3,46.2,266.4,53.4,266.3L53.4,266.3z"/>
			</g>
		</g>
		<g>
			<g>
				<path class="st0" d="M156.1,118c-20.6,37.8-41.3,75.6-61.9,113.4c-3.4,6.3,6.2,11.9,9.6,5.6c20.6-37.8,41.3-75.6,61.9-113.4
					C169.1,117.3,159.6,111.7,156.1,118L156.1,118z"/>
			</g>
			<g>
				<path class="st0" d="M156.1,123.6c20.6,37.8,41.3,75.6,61.9,113.4c3.4,6.3,13,0.7,9.6-5.6c-20.6-37.8-41.3-75.6-61.9-113.4
					C162.3,111.7,152.7,117.3,156.1,123.6L156.1,123.6z"/>
			</g>
		</g>
		<g>
			<g>
				<path class="st0" d="M171.1,144.9c-15.7,28.8-31.4,57.7-47.2,86.5c-3.4,6.3,6.2,11.9,9.6,5.6c15.7-28.8,31.4-57.7,47.2-86.5
					C184.1,144.2,174.6,138.6,171.1,144.9L171.1,144.9z"/>
			</g>
			<g>
				<path class="st0" d="M155.4,179.3c10.5,19.2,21,38.4,31.5,57.7c3.4,6.3,13,0.7,9.6-5.6c-10.5-19.2-21-38.4-31.5-57.7
					C161.6,167.4,152,173,155.4,179.3L155.4,179.3z"/>
			</g>
			<g>
				<path class="st0" d="M128.7,239.7c21,0,41.9,0,62.9,0c7.1,0,7.1-11.1,0-11.1c-21,0-41.9,0-62.9,0
					C121.6,228.6,121.6,239.7,128.7,239.7L128.7,239.7z"/>
			</g>
		</g>
	</g>
	<g>
		<path class="st0" d="M53.1,345.4c3.2,0,5.6,0.8,7.2,2.4c1.5,1.6,2.3,3.6,2.3,6.2c0,0.2,0,0.3,0,0.5c0,0.2,0,0.3-0.1,0.5l-7,1.2
			c0-1.1-0.3-2-0.7-2.7c-0.4-0.7-1-1.1-1.8-1.1c-0.5,0-0.9,0.1-1.2,0.3c-0.3,0.2-0.5,0.4-0.7,0.7c-0.2,0.3-0.3,0.6-0.4,0.9
			c-0.1,0.3-0.1,0.6-0.1,0.9v18.9c0,0.5,0.1,1,0.4,1.4c0.2,0.5,0.8,0.7,1.8,0.7c0.7,0,1.3-0.3,1.7-1c0.4-0.6,0.7-1.6,0.7-2.9l7.2,1
			c0,3-0.9,5.3-2.5,7.1c-1.6,1.8-3.9,2.7-6.9,2.7c-3.3,0-5.8-0.8-7.3-2.3c-1.5-1.6-2.3-3.9-2.3-7v-18.6c0-3,0.8-5.3,2.4-7.1
			C47.4,346.3,49.8,345.4,53.1,345.4z"/>
		<path class="st0" d="M133.2,373.8c0,3.2-0.8,5.6-2.4,7.1c-1.6,1.5-4,2.3-7.1,2.3c-6.3,0-9.4-3.1-9.4-9.4v-19.1
			c0-3.2,0.8-5.6,2.5-7.1c1.7-1.5,4-2.3,6.9-2.3c3.2,0,5.6,0.8,7.2,2.3c1.5,1.5,2.3,3.9,2.3,7.1V373.8z M125.9,354.5
			c0-0.8-0.2-1.4-0.6-1.8c-0.4-0.4-0.9-0.5-1.5-0.5c-0.6,0-1.1,0.2-1.5,0.5c-0.4,0.4-0.6,0.9-0.6,1.8v19.6c0,0.9,0.2,1.4,0.6,1.8
			c0.4,0.3,0.9,0.5,1.5,0.5c0.6,0,1.1-0.2,1.5-0.5c0.4-0.3,0.6-0.9,0.6-1.8V354.5z"/>
		<path class="st0" d="M206.1,345.7v37.1h-7.2v-30.2h-3.8v14.1c0,2.6-0.1,4.8-0.3,6.6c-0.2,1.9-0.6,3.5-1.3,4.8
			c-0.6,1.3-1.5,2.4-2.6,3.3c-1.1,0.9-2.6,1.7-4.5,2.3l-2.5-5.5c1.2-0.6,2.1-1.3,2.7-2c0.6-0.7,1.1-1.5,1.4-2.3
			c0.3-0.9,0.5-1.9,0.5-3.1c0.1-1.2,0.1-2.6,0.1-4.2v-21H206.1z"/>
		<path class="st0" d="M259.8,382.9v-37.1h7.3v13.7h1.9c3.6,0,6.2,1,7.8,3c1.6,2,2.3,4.9,2.3,8.7c0,2.1-0.3,3.9-0.8,5.4
			c-0.5,1.5-1.2,2.7-2.2,3.7c-0.9,1-2,1.7-3.3,2.1c-1.3,0.4-2.6,0.7-4.1,0.7H259.8z M268.4,375.9c1.1,0,2-0.4,2.6-1.2
			c0.7-0.8,1-2,1-3.7c0-1.1-0.1-1.9-0.3-2.5c-0.2-0.6-0.5-1.1-0.9-1.4c-0.4-0.3-0.8-0.5-1.2-0.6c-0.4-0.1-0.9-0.1-1.4-0.1H267v9.6
			H268.4z"/>
	</g>
</g>
</svg>
