<?xml version="1.0" encoding="utf-8"?>
<!-- Generator: Adobe Illustrator 21.1.0, SVG Export Plug-In . SVG Version: 6.00 Build 0)  -->
<svg version="1.1" id="Layer_1" xmlns="http://www.w3.org/2000/svg" xmlns:xlink="http://www.w3.org/1999/xlink" x="0px" y="0px"
	 viewBox="0 0 380 56" style="enable-background:new 0 0 380 56;" xml:space="preserve">
<style type="text/css">
	.st0{fill:#E8EFEE;}
</style>
<g>
	<rect x="36" class="st0" width="16" height="4"/>
	<rect x="52" y="4" class="st0" width="4" height="4"/>
	<rect x="56" y="8" class="st0" width="4" height="20"/>
	<rect x="52" y="28" class="st0" width="4" height="4"/>
	<rect x="48" y="32" class="st0" width="4" height="4"/>
	<rect x="44" y="36" class="st0" width="4" height="4"/>
	<rect x="40" y="40" class="st0" width="4" height="4"/>
	<rect x="36" y="44" class="st0" width="4" height="4"/>
	<rect x="32" y="48" class="st0" width="4" height="4"/>
	<rect x="28" y="52" class="st0" width="4" height="4"/>
	<rect x="32" y="4" class="st0" width="4" height="4"/>
	<rect x="28" y="8" class="st0" width="4" height="4"/>
	<rect x="8" y="0" transform="matrix(-1 4.490618e-11 -4.490618e-11 -1 32 4)" class="st0" width="16" height="4"/>
	<rect x="4" y="4" transform="matrix(-1 4.479249e-11 -4.479249e-11 -1 12 12)" class="st0" width="4" height="4"/>
	<rect x="0" y="8" transform="matrix(-1 4.501987e-11 -4.501987e-11 -1 4 36)" class="st0" width="4" height="20"/>
	<rect x="4" y="28" transform="matrix(-1 4.456512e-11 -4.456512e-11 -1 12 60)" class="st0" width="4" height="4"/>
	<rect x="8" y="32" transform="matrix(-1 4.456512e-11 -4.456512e-11 -1 20 68)" class="st0" width="4" height="4"/>
	<rect x="12" y="36" transform="matrix(-1 4.547461e-11 -4.547461e-11 -1 28 76)" class="st0" width="4" height="4"/>
	<rect x="16" y="40" transform="matrix(-1 4.456512e-11 -4.456512e-11 -1 36 84)" class="st0" width="4" height="4"/>
	<rect x="20" y="44" transform="matrix(-1 4.456512e-11 -4.456512e-11 -1 44 92)" class="st0" width="4" height="4"/>
	<rect x="24" y="48" transform="matrix(-1 4.547461e-11 -4.547461e-11 -1 52 100)" class="st0" width="4" height="4"/>
	<rect x="24" y="4" transform="matrix(-1 4.479249e-11 -4.479249e-11 -1 52 12)" class="st0" width="4" height="4"/>
</g>
<g>
	<rect x="116" class="st0" width="16" height="4"/>
	<rect x="132" y="4" class="st0" width="4" height="4"/>
	<rect x="136" y="8" class="st0" width="4" height="20"/>
	<rect x="132" y="28" class="st0" width="4" height="4"/>
	<rect x="128" y="32" class="st0" width="4" height="4"/>
	<rect x="124" y="36" class="st0" width="4" height="4"/>
	<rect x="120" y="40" class="st0" width="4" height="4"/>
	<rect x="116" y="44" class="st0" width="4" height="4"/>
	<rect x="112" y="48" class="st0" width="4" height="4"/>
	<rect x="108" y="52" class="st0" width="4" height="4"/>
	<rect x="112" y="4" class="st0" width="4" height="4"/>
	<rect x="108" y="8" class="st0" width="4" height="4"/>
	<rect x="88" y="0" transform="matrix(-1 4.490618e-11 -4.490618e-11 -1 192 4)" class="st0" width="16" height="4"/>
	<rect x="84" y="4" transform="matrix(-1 4.479249e-11 -4.479249e-11 -1 172 12)" class="st0" width="4" height="4"/>
	<rect x="80" y="8" transform="matrix(-1 4.501987e-11 -4.501987e-11 -1 164 36)" class="st0" width="4" height="20"/>
	<rect x="84" y="28" transform="matrix(-1 4.456512e-11 -4.456512e-11 -1 172 60)" class="st0" width="4" height="4"/>
	<rect x="88" y="32" transform="matrix(-1 4.456512e-11 -4.456512e-11 -1 180 68)" class="st0" width="4" height="4"/>
	<rect x="92" y="36" transform="matrix(-1 4.547461e-11 -4.547461e-11 -1 188 76)" class="st0" width="4" height="4"/>
	<rect x="96" y="40" transform="matrix(-1 4.456512e-11 -4.456512e-11 -1 196 84)" class="st0" width="4" height="4"/>
	<rect x="100" y="44" transform="matrix(-1 4.456512e-11 -4.456512e-11 -1 204 92)" class="st0" width="4" height="4"/>
	<rect x="104" y="48" transform="matrix(-1 4.547461e-11 -4.547461e-11 -1 212 100)" class="st0" width="4" height="4"/>
	<rect x="104" y="4" transform="matrix(-1 4.479249e-11 -4.479249e-11 -1 212 12)" class="st0" width="4" height="4"/>
</g>
<g>
	<rect x="196" class="st0" width="16" height="4"/>
	<rect x="212" y="4" class="st0" width="4" height="4"/>
	<rect x="216" y="8" class="st0" width="4" height="20"/>
	<rect x="212" y="28" class="st0" width="4" height="4"/>
	<rect x="208" y="32" class="st0" width="4" height="4"/>
	<rect x="204" y="36" class="st0" width="4" height="4"/>
	<rect x="200" y="40" class="st0" width="4" height="4"/>
	<rect x="196" y="44" class="st0" width="4" height="4"/>
	<rect x="192" y="48" class="st0" width="4" height="4"/>
	<rect x="188" y="52" class="st0" width="4" height="4"/>
	<rect x="192" y="4" class="st0" width="4" height="4"/>
	<rect x="188" y="8" class="st0" width="4" height="4"/>
	<rect x="168" y="0" transform="matrix(-1 4.490618e-11 -4.490618e-11 -1 352 4)" class="st0" width="16" height="4"/>
	<rect x="164" y="4" transform="matrix(-1 4.479249e-11 -4.479249e-11 -1 332 12)" class="st0" width="4" height="4"/>
	<rect x="160" y="8" transform="matrix(-1 4.501987e-11 -4.501987e-11 -1 324 36)" class="st0" width="4" height="20"/>
	<rect x="164" y="28" transform="matrix(-1 4.456512e-11 -4.456512e-11 -1 332 60)" class="st0" width="4" height="4"/>
	<rect x="168" y="32" transform="matrix(-1 4.456512e-11 -4.456512e-11 -1 340 68)" class="st0" width="4" height="4"/>
	<rect x="172" y="36" transform="matrix(-1 4.547461e-11 -4.547461e-11 -1 348 76)" class="st0" width="4" height="4"/>
	<rect x="176" y="40" transform="matrix(-1 4.456512e-11 -4.456512e-11 -1 356 84)" class="st0" width="4" height="4"/>
	<rect x="180" y="44" transform="matrix(-1 4.456512e-11 -4.456512e-11 -1 364 92)" class="st0" width="4" height="4"/>
	<rect x="184" y="48" transform="matrix(-1 4.547461e-11 -4.547461e-11 -1 372 100)" class="st0" width="4" height="4"/>
	<rect x="184" y="4" transform="matrix(-1 4.479249e-11 -4.479249e-11 -1 372 12)" class="st0" width="4" height="4"/>
</g>
<g>
	<rect x="276" class="st0" width="16" height="4"/>
	<rect x="292" y="4" class="st0" width="4" height="4"/>
	<rect x="296" y="8" class="st0" width="4" height="20"/>
	<rect x="292" y="28" class="st0" width="4" height="4"/>
	<rect x="288" y="32" class="st0" width="4" height="4"/>
	<rect x="284" y="36" class="st0" width="4" height="4"/>
	<rect x="280" y="40" class="st0" width="4" height="4"/>
	<rect x="276" y="44" class="st0" width="4" height="4"/>
	<rect x="272" y="48" class="st0" width="4" height="4"/>
	<rect x="268" y="52" class="st0" width="4" height="4"/>
	<rect x="272" y="4" class="st0" width="4" height="4"/>
	<rect x="268" y="8" class="st0" width="4" height="4"/>
	<rect x="248" y="0" transform="matrix(-1 4.490618e-11 -4.490618e-11 -1 512 4)" class="st0" width="16" height="4"/>
	<rect x="244" y="4" transform="matrix(-1 4.479249e-11 -4.479249e-11 -1 492 12)" class="st0" width="4" height="4"/>
	<rect x="240" y="8" transform="matrix(-1 4.501987e-11 -4.501987e-11 -1 484 36)" class="st0" width="4" height="20"/>
	<rect x="244" y="28" transform="matrix(-1 4.456512e-11 -4.456512e-11 -1 492 60)" class="st0" width="4" height="4"/>
	<rect x="248" y="32" transform="matrix(-1 4.456512e-11 -4.456512e-11 -1 500 68)" class="st0" width="4" height="4"/>
	<rect x="252" y="36" transform="matrix(-1 4.547461e-11 -4.547461e-11 -1 508 76)" class="st0" width="4" height="4"/>
	<rect x="256" y="40" transform="matrix(-1 4.456512e-11 -4.456512e-11 -1 516 84)" class="st0" width="4" height="4"/>
	<rect x="260" y="44" transform="matrix(-1 4.456512e-11 -4.456512e-11 -1 524 92)" class="st0" width="4" height="4"/>
	<rect x="264" y="48" transform="matrix(-1 4.547461e-11 -4.547461e-11 -1 532 100)" class="st0" width="4" height="4"/>
	<rect x="264" y="4" transform="matrix(-1 4.479249e-11 -4.479249e-11 -1 532 12)" class="st0" width="4" height="4"/>
</g>
<g>
	<rect x="356" class="st0" width="16" height="4"/>
	<rect x="372" y="4" class="st0" width="4" height="4"/>
	<rect x="376" y="8" class="st0" width="4" height="20"/>
	<rect x="372" y="28" class="st0" width="4" height="4"/>
	<rect x="368" y="32" class="st0" width="4" height="4"/>
	<rect x="364" y="36" class="st0" width="4" height="4"/>
	<rect x="360" y="40" class="st0" width="4" height="4"/>
	<rect x="356" y="44" class="st0" width="4" height="4"/>
	<rect x="352" y="48" class="st0" width="4" height="4"/>
	<rect x="348" y="52" class="st0" width="4" height="4"/>
	<rect x="352" y="4" class="st0" width="4" height="4"/>
	<rect x="348" y="8" class="st0" width="4" height="4"/>
	<rect x="328" y="0" transform="matrix(-1 4.490618e-11 -4.490618e-11 -1 672 4)" class="st0" width="16" height="4"/>
	<rect x="324" y="4" transform="matrix(-1 4.479249e-11 -4.479249e-11 -1 652 12)" class="st0" width="4" height="4"/>
	<rect x="320" y="8" transform="matrix(-1 4.501987e-11 -4.501987e-11 -1 644 36)" class="st0" width="4" height="20"/>
	<rect x="324" y="28" transform="matrix(-1 4.456512e-11 -4.456512e-11 -1 652 60)" class="st0" width="4" height="4"/>
	<rect x="328" y="32" transform="matrix(-1 4.456512e-11 -4.456512e-11 -1 660 68)" class="st0" width="4" height="4"/>
	<rect x="332" y="36" transform="matrix(-1 4.547461e-11 -4.547461e-11 -1 668 76)" class="st0" width="4" height="4"/>
	<rect x="336" y="40" transform="matrix(-1 4.456512e-11 -4.456512e-11 -1 676 84)" class="st0" width="4" height="4"/>
	<rect x="340" y="44" transform="matrix(-1 4.456512e-11 -4.456512e-11 -1 684 92)" class="st0" width="4" height="4"/>
	<rect x="344" y="48" transform="matrix(-1 4.547461e-11 -4.547461e-11 -1 692 100)" class="st0" width="4" height="4"/>
	<rect x="344" y="4" transform="matrix(-1 4.479249e-11 -4.479249e-11 -1 692 12)" class="st0" width="4" height="4"/>
</g>
</svg>
