<?xml version="1.0" encoding="utf-8"?>
<!-- Generator: Adobe Illustrator 21.1.0, SVG Export Plug-In . SVG Version: 6.00 Build 0)  -->
<svg version="1.1" id="layer_1" xmlns="http://www.w3.org/2000/svg" xmlns:xlink="http://www.w3.org/1999/xlink" x="0px" y="0px"
	 viewBox="0 0 65.5 65.5" style="enable-background:new 0 0 65.5 65.5;" xml:space="preserve">
<style type="text/css">
	.st0{fill:#FFFFFF;}
	.st1{fill:#D6F2EC;}
	.st2{fill:#6AC2B6;}
</style>
<g>
	<path class="st0" d="M32.8,64.8L32.8,64.8c-17.7,0-32-14.3-32-32l0,0c0-17.7,14.3-32,32-32l0,0c17.7,0,32,14.3,32,32l0,0
		C64.8,50.4,50.4,64.8,32.8,64.8z"/>
	<path class="st1" d="M47.4,4.3c4,5.3,6.4,12,6.4,19.1l0,0c0,17.7-14.3,32-32,32h0c-5.3,0-10.3-1.3-14.6-3.6
		c5.8,7.8,15.1,12.9,25.6,12.9l0,0c17.7,0,32-14.3,32-32l0,0C64.8,20.4,57.7,9.6,47.4,4.3z"/>
	<path class="st2" d="M32.8,65.5C14.7,65.5,0,50.8,0,32.8S14.7,0,32.8,0c18.1,0,32.8,14.7,32.8,32.8S50.8,65.5,32.8,65.5z M32.8,1.5
		c-17.2,0-31.2,14-31.2,31.2C1.5,50,15.5,64,32.8,64C50,64,64,50,64,32.8C64,15.5,50,1.5,32.8,1.5z"/>
	<path class="st0" d="M28.6,34.2c-0.2,0.9-0.8,1.7-1.6,2.2L21.4,40l-9-4.1c-1.9-0.9-4.2,0.2-4.8,2.3c-0.4,1.6,0.5,3.3,2,3.9l9.5,4.3
		c1.5,0.7,3.2,0.6,4.7-0.3l9.2-5.5l4.9,9.4l-6.6,9c-1,1.4-1,3.3,0.2,4.5c0.5,0.5,1,0.8,1.6,0.9c1.3,0.4,2.8-0.1,3.6-1.3l7.3-10
		c1.1-1.5,1.3-3.5,0.4-5.2l-4.2-8.2c-0.4-0.8-0.5-1.8-0.3-2.7l0.3-1.2l-11.3-3L28.6,34.2z"/>
	<path class="st1" d="M44.4,48.1l-4.2-8.2c-0.4-0.8-0.5-1.8-0.3-2.7l0.3-1.2l-3.2-0.8L36.6,37c-0.2,0.9-0.1,1.8,0.3,2.7l4.9,9.6
		c0.4,0.8,0.3,1.8-0.2,2.6l-8.2,11.2c-0.4,0.5-0.8,0.8-1.3,1.1c0.3,0.2,0.6,0.4,1,0.5c1.3,0.4,2.8-0.1,3.6-1.3l7.3-10
		C45.1,51.8,45.3,49.8,44.4,48.1z"/>
	<path class="st2" d="M34,65.5c-0.4,0-0.7,0-1.1-0.1c-0.7-0.2-1.4-0.6-1.9-1.1c-1.4-1.4-1.5-3.8-0.3-5.5l6.3-8.6l-4.4-8.3l-8.5,5.1
		c-1.6,1-3.6,1.1-5.4,0.3l-9.5-4.3c-1.9-0.9-2.9-2.9-2.5-4.8c0.3-1.2,1.1-2.3,2.2-2.8c1.1-0.5,2.4-0.6,3.6,0l8.6,3.9l5.3-3.4
		c0.6-0.4,1.1-1,1.3-1.7l0.3-1.2c0.1-0.4,0.5-0.6,0.9-0.5l11.3,3c0.2,0.1,0.4,0.2,0.5,0.3c0.1,0.2,0.1,0.4,0.1,0.6l-0.3,1.2
		c-0.2,0.7-0.1,1.5,0.2,2.1l4.2,8.2c1,1.9,0.8,4.2-0.5,6l-7.3,10C36.6,64.9,35.3,65.5,34,65.5z M33,40c0.1,0,0.1,0,0.2,0
		c0.2,0.1,0.4,0.2,0.5,0.4l4.9,9.4c0.1,0.3,0.1,0.6-0.1,0.8l-6.6,9c-0.8,1.1-0.8,2.6,0.1,3.5c0.3,0.4,0.8,0.6,1.2,0.7
		c1.1,0.3,2.2-0.1,2.8-1l7.3-10c0.9-1.3,1.1-3,0.4-4.4l-4.2-8.2c-0.5-1-0.6-2.1-0.3-3.2l0.1-0.5l-9.9-2.6l-0.1,0.5l0,0
		c-0.3,1.1-1,2-1.9,2.6l-5.6,3.6c-0.2,0.1-0.5,0.2-0.7,0.1l-9-4.1c-0.7-0.3-1.6-0.3-2.3,0c-0.7,0.4-1.2,1-1.4,1.8
		C8.1,39.7,8.8,41,10,41.6l9.5,4.3c1.3,0.6,2.8,0.5,4-0.2l9.2-5.5C32.7,40,32.8,40,33,40z M28.6,34.2L28.6,34.2L28.6,34.2z"/>
	<path class="st0" d="M64.6,23.2c-0.4-1.5-2-2.3-3.5-2l-8,1.5c-1,0.2-2-0.1-2.7-0.8l-4.7-4.5c-3.2-3.1-7.6-5-12-4.2
		c-1.9,0.3-6.3,1.5-8.7,2.2c-0.9,0.3-1.8,0.8-2.4,1.5l-5.5,6.4c-0.9,1.2-1,2.9,0.1,4c0.4,0.4,0.9,0.7,1.4,0.8c1.1,0.3,2.3-0.1,3.1-1
		l4.7-5.5c0.3-0.4,0.8-0.7,1.3-0.8l4.8-1.1L28.9,33l11.3,3l3.4-12.6l4.4,4.1c1.2,1.1,2.8,1.6,4.3,1.3l10-1.9
		C64,26.6,65.1,24.9,64.6,23.2z"/>
	<path class="st1" d="M64.7,23.9L53.2,26c-1.2,0.2-2.4-0.1-3.2-0.9L45,20.5c-1.7-1.6-4.6-0.8-5.2,1.5l-3.5,13l3.9,1l3.4-12.6
		l4.4,4.1c1.2,1.1,2.8,1.6,4.3,1.3l10-1.9C63.8,26.7,64.8,25.3,64.7,23.9z"/>
	<path class="st2" d="M40.3,36.8c-0.1,0-0.1,0-0.2,0l-11.3-3c-0.2-0.1-0.4-0.2-0.5-0.3c-0.1-0.2-0.1-0.4-0.1-0.6l3.3-12.2l-3.6,0.8
		c-0.4,0.1-0.7,0.3-0.9,0.6l-4.7,5.5c-0.9,1.1-2.4,1.6-3.8,1.2c-0.7-0.2-1.3-0.5-1.7-1c-1.2-1.3-1.3-3.4-0.1-4.9l5.6-6.4
		c0.7-0.9,1.7-1.5,2.8-1.8c2.5-0.7,6.9-1.9,8.7-2.2c4.3-0.7,9,0.9,12.6,4.4l4.7,4.5c0.5,0.5,1.3,0.7,2,0.6l8-1.5
		c1.9-0.4,3.8,0.8,4.4,2.5l0,0c0.3,1,0.1,2.1-0.4,3c-0.5,0.9-1.4,1.5-2.5,1.7l-10,1.9c-1.8,0.3-3.6-0.2-5-1.5L44,24.9l-3,11.4
		C40.9,36.6,40.6,36.8,40.3,36.8z M29.9,32.5l9.9,2.6l3.2-11.9c0.1-0.3,0.3-0.5,0.5-0.5c0.3-0.1,0.5,0,0.7,0.2l4.4,4.1
		c1,0.9,2.4,1.3,3.7,1.1l10-1.9c0.6-0.1,1.1-0.5,1.5-1c0.3-0.5,0.4-1.2,0.2-1.8h0c-0.3-1.1-1.5-1.7-2.7-1.5l-8,1.5
		c-1.2,0.2-2.5-0.2-3.3-1l-4.7-4.5c-3.3-3.2-7.5-4.7-11.3-4c-1.9,0.3-6.6,1.6-8.6,2.2c-0.8,0.2-1.5,0.7-2.1,1.3l-5.5,6.4
		c-0.7,0.9-0.7,2.2,0,2.9c0.3,0.3,0.6,0.5,1,0.6c0.8,0.2,1.7-0.1,2.3-0.8l4.7-5.5c0.5-0.5,1-0.9,1.7-1l4.8-1.1
		c0.3-0.1,0.5,0,0.7,0.2c0.2,0.2,0.3,0.5,0.2,0.7L29.9,32.5z"/>
	<ellipse transform="matrix(0.3094 -0.9509 0.9509 0.3094 23.8646 44.5061)" class="st0" cx="42.6" cy="5.8" rx="5.1" ry="5.1"/>
	<path class="st1" d="M46.1,4.8c0.6,0.2,1.1,0.5,1.5,0.8c-0.1-2.1-1.4-4-3.5-4.7c-2.7-0.9-5.5,0.6-6.4,3.3c-0.7,2.1,0.1,4.3,1.7,5.6
		c0-0.6,0-1.2,0.2-1.7C40.6,5.4,43.4,4,46.1,4.8z"/>
	<path class="st2" d="M42.6,11.6c-0.6,0-1.2-0.1-1.8-0.3c-1.5-0.5-2.7-1.5-3.4-2.9c-0.7-1.4-0.8-3-0.3-4.4c1-3.1,4.3-4.7,7.3-3.7
		c3.1,1,4.7,4.3,3.7,7.3l0,0c-0.5,1.5-1.5,2.7-2.9,3.4C44.4,11.4,43.5,11.6,42.6,11.6z M42.6,1.5c-1.8,0-3.5,1.2-4.1,3
		c-0.4,1.1-0.3,2.3,0.3,3.3c0.5,1,1.4,1.8,2.5,2.1c1.1,0.4,2.3,0.3,3.3-0.3c1-0.5,1.8-1.4,2.1-2.5c0.7-2.3-0.5-4.7-2.8-5.4
		C43.5,1.6,43,1.5,42.6,1.5z M47.4,7.4L47.4,7.4L47.4,7.4z"/>
	<path class="st1" d="M20.1,34L9.6,27.9c-1-0.6-1.3-1.8-0.7-2.7l2.9-5.1c0.6-1,1.8-1.3,2.7-0.7L25,25.5c1,0.6,1.3,1.8,0.7,2.7
		l-2.9,5.1C22.3,34.2,21.1,34.6,20.1,34z"/>
	<path class="st0" d="M19.2,29.1l-9.5-5.5l2-3.5c0.6-1,1.8-1.3,2.7-0.7l8.6,5l-2.5,4.4C20.3,29.2,19.7,29.4,19.2,29.1z"/>
	<path class="st2" d="M21.1,35c-0.5,0-0.9-0.1-1.4-0.4L9.2,28.6c-1.3-0.8-1.8-2.4-1-3.8l2.9-5.1c0.8-1.3,2.4-1.8,3.8-1l10.5,6.1
		c1.3,0.8,1.8,2.4,1,3.8l-2.9,5.1C23,34.5,22.1,35,21.1,35z M13.5,19.9c-0.4,0-0.9,0.2-1.1,0.6l-2.9,5.1c-0.3,0.6-0.1,1.4,0.5,1.7
		l10.5,6.1l0,0c0.6,0.3,1.4,0.1,1.7-0.5l2.9-5.1c0.3-0.6,0.1-1.4-0.5-1.7l-10.5-6.1C13.9,19.9,13.7,19.9,13.5,19.9z"/>
	<path class="st2" d="M47.1,35.5h-2c-0.4,0-0.8-0.3-0.8-0.8c0-0.4,0.3-0.8,0.8-0.8h2c0.4,0,0.8,0.3,0.8,0.8
		C47.8,35.2,47.5,35.5,47.1,35.5z"/>
	<path class="st2" d="M59.7,35.5h-9.7c-0.4,0-0.8-0.3-0.8-0.8c0-0.4,0.3-0.8,0.8-0.8h9.7c0.4,0,0.8,0.3,0.8,0.8
		C60.5,35.2,60.2,35.5,59.7,35.5z"/>
	<path class="st2" d="M54.7,41.5h-7.6c-0.4,0-0.8-0.3-0.8-0.8c0-0.4,0.3-0.8,0.8-0.8h7.6c0.4,0,0.8,0.3,0.8,0.8
		C55.5,41.2,55.2,41.5,54.7,41.5z"/>
	<path class="st2" d="M56.7,47.5h-7.6c-0.4,0-0.8-0.3-0.8-0.8c0-0.4,0.3-0.8,0.8-0.8h7.6c0.4,0,0.8,0.3,0.8,0.8
		C57.5,47.2,57.2,47.5,56.7,47.5z"/>
	<path class="st2" d="M51.7,53.5h-2.6c-0.4,0-0.8-0.3-0.8-0.8c0-0.4,0.3-0.8,0.8-0.8h2.6c0.4,0,0.8,0.3,0.8,0.8
		C52.5,53.2,52.2,53.5,51.7,53.5z"/>
</g>
</svg>
