<?xml version="1.0" encoding="utf-8"?>
<!-- Generator: Adobe Illustrator 21.1.0, SVG Export Plug-In . SVG Version: 6.00 Build 0)  -->
<svg version="1.1" id="layer_1" xmlns="http://www.w3.org/2000/svg" xmlns:xlink="http://www.w3.org/1999/xlink" x="0px" y="0px"
	 viewBox="0 0 65.5 65.5" style="enable-background:new 0 0 65.5 65.5;" xml:space="preserve">
<style type="text/css">
	.st0{fill:#6AC2B6;}
	.st1{fill:#FFFFFF;}
	.st2{fill:#D6F2EC;}
</style>
<g>
	<path class="st0" d="M32.7,65.5c-7,0-14.1-2.2-20-6.8c-0.3-0.3-0.4-0.7-0.1-1.1c0.3-0.3,0.7-0.4,1.1-0.1c12.3,9.5,30,8.4,41-2.5
		c7.2-7.1,10.5-17.4,8.9-27.4c-0.1-0.4,0.2-0.8,0.6-0.9c0.4-0.1,0.8,0.2,0.9,0.6c1.7,10.5-1.7,21.2-9.3,28.7
		C49.4,62.3,41.1,65.5,32.7,65.5z"/>
	<polygon class="st0" points="15.9,56.3 10,55.2 12,60.9 	"/>
	<path class="st0" d="M1.2,39.1c-0.4,0-0.7-0.3-0.7-0.6C-1.4,27.9,2.1,17,9.7,9.4C21.4-2,39.9-3.2,52.8,6.8c0.3,0.3,0.4,0.7,0.1,1.1
		c-0.3,0.3-0.7,0.4-1.1,0.1c-12.3-9.5-30-8.4-41,2.5C3.5,17.7,0.2,28.1,2,38.2C2,38.6,1.8,39,1.4,39.1C1.3,39.1,1.3,39.1,1.2,39.1z"
		/>
	<polygon class="st0" points="49.6,9.2 55.5,10.3 53.5,4.6 	"/>
	<path class="st0" d="M34.6,58.5h-3.8c-1.1,0-2-0.9-2-2v-2.7c-1.1-0.2-2.2-0.5-3.3-0.9l-1.4,2.4C24,55.7,23.5,56,23,56.2
		c-0.5,0.1-1.1,0.1-1.5-0.2l-3.2-1.9c-0.5-0.3-0.8-0.7-0.9-1.2c-0.1-0.5-0.1-1.1,0.2-1.5l1.4-2.4c-0.9-0.7-1.7-1.5-2.4-2.4L14.1,48
		c-0.5,0.3-1,0.3-1.5,0.2s-0.9-0.5-1.2-0.9L9.5,44c-0.3-0.5-0.3-1-0.2-1.5c0.1-0.5,0.5-0.9,0.9-1.2l2.4-1.4
		c-0.4-1.1-0.7-2.2-0.9-3.3H9c-1.1,0-2-0.9-2-2v-3.8c0-1.1,0.9-2,2-2h2.7c0.2-1.1,0.5-2.2,0.9-3.3l-2.4-1.4C9.8,24,9.5,23.5,9.3,23
		c-0.1-0.5-0.1-1.1,0.2-1.5l1.9-3.2c0.3-0.5,0.7-0.8,1.2-0.9c0.5-0.1,1.1-0.1,1.5,0.2l2.4,1.4c0.7-0.9,1.5-1.7,2.4-2.4l-1.4-2.4
		c-0.3-0.5-0.3-1-0.2-1.5c0.1-0.5,0.5-0.9,0.9-1.2l3.2-1.9c0.5-0.3,1-0.3,1.5-0.2c0.5,0.1,0.9,0.5,1.2,0.9l1.4,2.4
		c1.1-0.4,2.2-0.7,3.3-0.9V9c0-1.1,0.9-2,2-2h3.8c1.1,0,2,0.9,2,2v2.7c1.1,0.2,2.2,0.5,3.3,0.9l1.4-2.4c0.3-0.5,0.7-0.8,1.2-0.9
		C43,9.2,43.5,9.2,44,9.5l3.2,1.9c0.5,0.3,0.8,0.7,0.9,1.2c0.1,0.5,0.1,1.1-0.2,1.5l-1.4,2.4c0.9,0.7,1.7,1.5,2.4,2.4l2.4-1.4
		c0.5-0.3,1-0.3,1.5-0.2c0.5,0.1,0.9,0.5,1.2,0.9l1.9,3.2c0.3,0.5,0.3,1,0.2,1.5c-0.1,0.5-0.5,0.9-0.9,1.2l-2.4,1.4
		c0.4,1.1,0.7,2.2,0.9,3.3h2.7c1.1,0,2,0.9,2,2v3.8c0,1.1-0.9,2-2,2h-2.7c-0.2,1.1-0.5,2.2-0.9,3.3l2.4,1.4c0.5,0.3,0.8,0.7,0.9,1.2
		c0.1,0.5,0.1,1.1-0.2,1.5l-1.9,3.2c-0.3,0.5-0.7,0.8-1.2,0.9c-0.5,0.1-1.1,0.1-1.5-0.2L49,46.6c-0.7,0.9-1.5,1.7-2.4,2.4l1.4,2.4
		c0.3,0.5,0.3,1,0.2,1.5c-0.1,0.5-0.5,0.9-0.9,1.2L44,56c-0.5,0.3-1,0.3-1.5,0.2c-0.5-0.1-0.9-0.5-1.2-0.9l-1.4-2.4
		c-1.1,0.4-2.2,0.7-3.3,0.9v2.7C36.6,57.6,35.7,58.5,34.6,58.5z M25.3,51.2c0.1,0,0.2,0,0.3,0.1c1.4,0.5,2.8,0.9,4.2,1.1
		c0.4,0.1,0.6,0.4,0.6,0.7v3.4c0,0.3,0.2,0.5,0.5,0.5h3.8c0.3,0,0.5-0.2,0.5-0.5v-3.4c0-0.4,0.3-0.7,0.6-0.7
		c1.4-0.2,2.8-0.6,4.2-1.1c0.3-0.1,0.7,0,0.9,0.3l1.7,2.9c0.1,0.1,0.2,0.2,0.3,0.2c0.1,0,0.3,0,0.4,0l3.2-1.9
		c0.1-0.1,0.2-0.2,0.2-0.3c0-0.1,0-0.3,0-0.4L45,49.2c-0.2-0.3-0.1-0.7,0.2-1c1.1-0.9,2.2-1.9,3.1-3.1c0.2-0.3,0.6-0.4,1-0.2
		l2.9,1.7c0.1,0.1,0.3,0.1,0.4,0c0.1,0,0.2-0.1,0.3-0.2l1.9-3.2c0.1-0.1,0.1-0.2,0-0.4c0-0.1-0.1-0.2-0.2-0.3l-2.9-1.7
		c-0.3-0.2-0.5-0.6-0.3-0.9c0.5-1.4,0.9-2.8,1.1-4.2c0.1-0.4,0.4-0.6,0.7-0.6h3.4c0.3,0,0.5-0.2,0.5-0.5v-3.8c0-0.3-0.2-0.5-0.5-0.5
		h-3.4c-0.4,0-0.7-0.3-0.7-0.6c-0.2-1.4-0.6-2.8-1.1-4.2c-0.1-0.3,0-0.7,0.3-0.9l2.9-1.7c0.1-0.1,0.2-0.2,0.2-0.3c0-0.1,0-0.3,0-0.4
		L52.8,19c-0.1-0.1-0.2-0.2-0.3-0.2c-0.1,0-0.3,0-0.4,0l-2.9,1.7c-0.3,0.2-0.7,0.1-1-0.2c-0.9-1.1-1.9-2.2-3.1-3.1
		c-0.3-0.2-0.4-0.6-0.2-1l1.7-2.9c0.1-0.1,0.1-0.2,0-0.4c0-0.1-0.1-0.2-0.2-0.3l-3.2-1.9c-0.1-0.1-0.2-0.1-0.4,0
		c-0.1,0-0.2,0.1-0.3,0.2l-1.7,2.9c-0.2,0.3-0.6,0.5-0.9,0.3c-1.4-0.5-2.8-0.9-4.2-1.1c-0.4-0.1-0.6-0.4-0.6-0.7V9
		c0-0.3-0.2-0.5-0.5-0.5h-3.8c-0.3,0-0.5,0.2-0.5,0.5v3.4c0,0.4-0.3,0.7-0.6,0.7c-1.4,0.2-2.8,0.6-4.2,1.1c-0.3,0.1-0.7,0-0.9-0.3
		L22.9,11c-0.1-0.1-0.2-0.2-0.3-0.2c-0.1,0-0.3,0-0.4,0L19,12.7c-0.1,0.1-0.2,0.2-0.2,0.3c0,0.1,0,0.3,0,0.4l1.7,2.9
		c0.2,0.3,0.1,0.7-0.2,1c-1.1,0.9-2.2,1.9-3.1,3.1c-0.2,0.3-0.6,0.4-1,0.2l-2.9-1.7c-0.1-0.1-0.2-0.1-0.4,0c-0.1,0-0.2,0.1-0.3,0.2
		l-1.9,3.2c-0.1,0.1-0.1,0.2,0,0.4c0,0.1,0.1,0.2,0.2,0.3l2.9,1.7c0.3,0.2,0.5,0.6,0.3,0.9c-0.5,1.4-0.9,2.8-1.1,4.2
		c-0.1,0.4-0.4,0.6-0.7,0.6H9c-0.3,0-0.5,0.2-0.5,0.5v3.8c0,0.3,0.2,0.5,0.5,0.5h3.4c0.4,0,0.7,0.3,0.7,0.6c0.2,1.4,0.6,2.8,1.1,4.2
		c0.1,0.3,0,0.7-0.3,0.9L11,42.6c-0.1,0.1-0.2,0.2-0.2,0.3c0,0.1,0,0.3,0,0.4l1.9,3.2c0.1,0.1,0.2,0.2,0.3,0.2c0.1,0,0.3,0,0.4,0
		l2.9-1.7c0.3-0.2,0.7-0.1,1,0.2c0.9,1.1,1.9,2.2,3.1,3.1c0.3,0.2,0.4,0.6,0.2,1l-1.7,2.9c-0.1,0.1-0.1,0.2,0,0.4
		c0,0.1,0.1,0.2,0.2,0.3l3.2,1.9c0.1,0.1,0.3,0.1,0.4,0c0.1,0,0.2-0.1,0.3-0.2l1.7-2.9C24.8,51.4,25,51.2,25.3,51.2z"/>
	<path class="st1" d="M56.5,29.6h-3.4c-0.2-1.5-0.6-3-1.2-4.4l2.9-1.7c0.6-0.3,0.8-1.1,0.5-1.7l-1.9-3.2c-0.3-0.6-1.1-0.8-1.7-0.5
		l-2.9,1.7c-0.9-1.2-2-2.2-3.2-3.2l1.7-2.9c0.3-0.6,0.1-1.4-0.5-1.7l-3.2-1.9c-0.6-0.3-1.4-0.1-1.7,0.5l-1.7,2.9
		c-1.4-0.5-2.8-0.9-4.4-1.2V9c0-0.7-0.6-1.2-1.2-1.2h-3.8c-0.7,0-1.2,0.6-1.2,1.2v3.4c-1.5,0.2-3,0.6-4.4,1.2l-1.7-2.9
		c-0.3-0.6-1.1-0.8-1.7-0.5L18.6,12c-0.6,0.3-0.8,1.1-0.5,1.7l1.7,2.9c-1.2,0.9-2.2,2-3.2,3.2l-2.9-1.7c-0.6-0.3-1.4-0.1-1.7,0.5
		l-1.9,3.2c-0.3,0.6-0.1,1.4,0.5,1.7l2.9,1.7c-0.5,1.4-0.9,2.8-1.2,4.4H9c-0.7,0-1.2,0.6-1.2,1.2v3.8c0,0.7,0.6,1.2,1.2,1.2h3.4
		c0.2,1.5,0.6,3,1.2,4.4l-2.9,1.7c-0.6,0.3-0.8,1.1-0.5,1.7l1.9,3.2c0.3,0.6,1.1,0.8,1.7,0.5l2.9-1.7c0.9,1.2,2,2.2,3.2,3.2
		l-1.7,2.9c-0.3,0.6-0.1,1.4,0.5,1.7l3.2,1.9c0.6,0.3,1.4,0.1,1.7-0.5l1.7-2.9c1.4,0.5,2.8,0.9,4.4,1.2v3.4c0,0.7,0.6,1.2,1.2,1.2
		h3.8c0.7,0,1.2-0.6,1.2-1.2v-3.4c1.5-0.2,3-0.6,4.4-1.2l1.7,2.9c0.3,0.6,1.1,0.8,1.7,0.5l3.2-1.9c0.6-0.3,0.8-1.1,0.5-1.7l-1.7-2.9
		c1.2-0.9,2.2-2,3.2-3.2l2.9,1.7c0.6,0.3,1.4,0.1,1.7-0.5l1.9-3.2c0.3-0.6,0.1-1.4-0.5-1.7L52,40.2c0.5-1.4,0.9-2.8,1.2-4.4h3.4
		c0.7,0,1.2-0.6,1.2-1.2v-3.8C57.8,30.2,57.2,29.6,56.5,29.6z"/>
	<path class="st2" d="M56.5,29.6h-3.4c-0.2-1.5-0.6-3-1.2-4.4l2.9-1.7c0.6-0.3,0.8-1.1,0.5-1.7l-1.9-3.2c-0.3-0.6-1.1-0.8-1.7-0.5
		l-1.7,1c1.1,2.7,1.7,5.7,1.7,8.9c0,13.1-10.7,23.8-23.8,23.8c-3.1,0-6.1-0.6-8.9-1.7l-1,1.7c-0.3,0.6-0.1,1.4,0.5,1.7l3.2,1.9
		c0.6,0.3,1.4,0.1,1.7-0.5l1.7-2.9c1.4,0.5,2.8,0.9,4.4,1.2v3.4c0,0.7,0.6,1.2,1.2,1.2h3.8c0.7,0,1.2-0.6,1.2-1.2v-3.4
		c1.5-0.2,3-0.6,4.4-1.2l1.7,2.9c0.3,0.6,1.1,0.8,1.7,0.5l3.2-1.9c0.6-0.3,0.8-1.1,0.5-1.7l-1.7-2.9c1.2-0.9,2.2-2,3.2-3.2l2.9,1.7
		c0.6,0.3,1.4,0.1,1.7-0.5l1.9-3.2c0.3-0.6,0.1-1.4-0.5-1.7L52,40.2c0.5-1.4,0.9-2.8,1.2-4.4h3.4c0.7,0,1.2-0.6,1.2-1.2v-3.8
		C57.8,30.2,57.2,29.6,56.5,29.6z"/>
	<path class="st0" d="M34.6,58.5h-3.8c-1.1,0-2-0.9-2-2v-2.7c-1.1-0.2-2.2-0.5-3.3-0.9l-1.4,2.4C24,55.7,23.5,56,23,56.2
		c-0.5,0.1-1.1,0.1-1.5-0.2l-3.2-1.9c-0.5-0.3-0.8-0.7-0.9-1.2c-0.1-0.5-0.1-1.1,0.2-1.5l1.4-2.4c-0.9-0.7-1.7-1.5-2.4-2.4L14.1,48
		c-0.5,0.3-1,0.3-1.5,0.2s-0.9-0.5-1.2-0.9L9.5,44c-0.3-0.5-0.3-1-0.2-1.5c0.1-0.5,0.5-0.9,0.9-1.2l2.4-1.4
		c-0.4-1.1-0.7-2.2-0.9-3.3H9c-1.1,0-2-0.9-2-2v-3.8c0-1.1,0.9-2,2-2h2.7c0.2-1.1,0.5-2.2,0.9-3.3l-2.4-1.4C9.8,24,9.5,23.5,9.3,23
		c-0.1-0.5-0.1-1.1,0.2-1.5l1.9-3.2c0.3-0.5,0.7-0.8,1.2-0.9c0.5-0.1,1.1-0.1,1.5,0.2l2.4,1.4c0.7-0.9,1.5-1.7,2.4-2.4l-1.4-2.4
		c-0.3-0.5-0.3-1-0.2-1.5c0.1-0.5,0.5-0.9,0.9-1.2l3.2-1.9c0.5-0.3,1-0.3,1.5-0.2c0.5,0.1,0.9,0.5,1.2,0.9l1.4,2.4
		c1.1-0.4,2.2-0.7,3.3-0.9V9c0-1.1,0.9-2,2-2h3.8c1.1,0,2,0.9,2,2v2.7c1.1,0.2,2.2,0.5,3.3,0.9l1.4-2.4c0.3-0.5,0.7-0.8,1.2-0.9
		C43,9.2,43.5,9.2,44,9.5l3.2,1.9c0.5,0.3,0.8,0.7,0.9,1.2c0.1,0.5,0.1,1.1-0.2,1.5l-1.4,2.4c0.9,0.7,1.7,1.5,2.4,2.4l2.4-1.4
		c0.5-0.3,1-0.3,1.5-0.2c0.5,0.1,0.9,0.5,1.2,0.9l1.9,3.2c0.3,0.5,0.3,1,0.2,1.5c-0.1,0.5-0.5,0.9-0.9,1.2l-2.4,1.4
		c0.4,1.1,0.7,2.2,0.9,3.3h2.7c1.1,0,2,0.9,2,2v3.8c0,1.1-0.9,2-2,2h-2.7c-0.2,1.1-0.5,2.2-0.9,3.3l2.4,1.4c0.5,0.3,0.8,0.7,0.9,1.2
		c0.1,0.5,0.1,1.1-0.2,1.5l-1.9,3.2c-0.3,0.5-0.7,0.8-1.2,0.9c-0.5,0.1-1.1,0.1-1.5-0.2L49,46.6c-0.7,0.9-1.5,1.7-2.4,2.4l1.4,2.4
		c0.3,0.5,0.3,1,0.2,1.5c-0.1,0.5-0.5,0.9-0.9,1.2L44,56c-0.5,0.3-1,0.3-1.5,0.2c-0.5-0.1-0.9-0.5-1.2-0.9l-1.4-2.4
		c-1.1,0.4-2.2,0.7-3.3,0.9v2.7C36.6,57.6,35.7,58.5,34.6,58.5z M25.3,51.2c0.1,0,0.2,0,0.3,0.1c1.4,0.5,2.8,0.9,4.2,1.1
		c0.4,0.1,0.6,0.4,0.6,0.7v3.4c0,0.3,0.2,0.5,0.5,0.5h3.8c0.3,0,0.5-0.2,0.5-0.5v-3.4c0-0.4,0.3-0.7,0.6-0.7
		c1.4-0.2,2.8-0.6,4.2-1.1c0.3-0.1,0.7,0,0.9,0.3l1.7,2.9c0.1,0.1,0.2,0.2,0.3,0.2c0.1,0,0.3,0,0.4,0l3.2-1.9
		c0.1-0.1,0.2-0.2,0.2-0.3c0-0.1,0-0.3,0-0.4L45,49.2c-0.2-0.3-0.1-0.7,0.2-1c1.1-0.9,2.2-1.9,3.1-3.1c0.2-0.3,0.6-0.4,1-0.2
		l2.9,1.7c0.1,0.1,0.3,0.1,0.4,0c0.1,0,0.2-0.1,0.3-0.2l1.9-3.2c0.1-0.1,0.1-0.2,0-0.4c0-0.1-0.1-0.2-0.2-0.3l-2.9-1.7
		c-0.3-0.2-0.5-0.6-0.3-0.9c0.5-1.4,0.9-2.8,1.1-4.2c0.1-0.4,0.4-0.6,0.7-0.6h3.4c0.3,0,0.5-0.2,0.5-0.5v-3.8c0-0.3-0.2-0.5-0.5-0.5
		h-3.4c-0.4,0-0.7-0.3-0.7-0.6c-0.2-1.4-0.6-2.8-1.1-4.2c-0.1-0.3,0-0.7,0.3-0.9l2.9-1.7c0.1-0.1,0.2-0.2,0.2-0.3c0-0.1,0-0.3,0-0.4
		L52.8,19c-0.1-0.1-0.2-0.2-0.3-0.2c-0.1,0-0.3,0-0.4,0l-2.9,1.7c-0.3,0.2-0.7,0.1-1-0.2c-0.9-1.1-1.9-2.2-3.1-3.1
		c-0.3-0.2-0.4-0.6-0.2-1l1.7-2.9c0.1-0.1,0.1-0.2,0-0.4c0-0.1-0.1-0.2-0.2-0.3l-3.2-1.9c-0.1-0.1-0.2-0.1-0.4,0
		c-0.1,0-0.2,0.1-0.3,0.2l-1.7,2.9c-0.2,0.3-0.6,0.5-0.9,0.3c-1.4-0.5-2.8-0.9-4.2-1.1c-0.4-0.1-0.6-0.4-0.6-0.7V9
		c0-0.3-0.2-0.5-0.5-0.5h-3.8c-0.3,0-0.5,0.2-0.5,0.5v3.4c0,0.4-0.3,0.7-0.6,0.7c-1.4,0.2-2.8,0.6-4.2,1.1c-0.3,0.1-0.7,0-0.9-0.3
		L22.9,11c-0.1-0.1-0.2-0.2-0.3-0.2c-0.1,0-0.3,0-0.4,0L19,12.7c-0.1,0.1-0.2,0.2-0.2,0.3c0,0.1,0,0.3,0,0.4l1.7,2.9
		c0.2,0.3,0.1,0.7-0.2,1c-1.1,0.9-2.2,1.9-3.1,3.1c-0.2,0.3-0.6,0.4-1,0.2l-2.9-1.7c-0.1-0.1-0.2-0.1-0.4,0c-0.1,0-0.2,0.1-0.3,0.2
		l-1.9,3.2c-0.1,0.1-0.1,0.2,0,0.4c0,0.1,0.1,0.2,0.2,0.3l2.9,1.7c0.3,0.2,0.5,0.6,0.3,0.9c-0.5,1.4-0.9,2.8-1.1,4.2
		c-0.1,0.4-0.4,0.6-0.7,0.6H9c-0.3,0-0.5,0.2-0.5,0.5v3.8c0,0.3,0.2,0.5,0.5,0.5h3.4c0.4,0,0.7,0.3,0.7,0.6c0.2,1.4,0.6,2.8,1.1,4.2
		c0.1,0.3,0,0.7-0.3,0.9L11,42.6c-0.1,0.1-0.2,0.2-0.2,0.3c0,0.1,0,0.3,0,0.4l1.9,3.2c0.1,0.1,0.2,0.2,0.3,0.2c0.1,0,0.3,0,0.4,0
		l2.9-1.7c0.3-0.2,0.7-0.1,1,0.2c0.9,1.1,1.9,2.2,3.1,3.1c0.3,0.2,0.4,0.6,0.2,1l-1.7,2.9c-0.1,0.1-0.1,0.2,0,0.4
		c0,0.1,0.1,0.2,0.2,0.3l3.2,1.9c0.1,0.1,0.3,0.1,0.4,0c0.1,0,0.2-0.1,0.3-0.2l1.7-2.9C24.8,51.4,25,51.2,25.3,51.2z"/>
	<circle class="st1" cx="32.8" cy="32.8" r="15"/>
	<path class="st2" d="M41.5,20.6c1.8,2.5,2.9,5.5,2.9,8.8c0,8.3-6.7,15-15,15c-3.3,0-6.3-1.1-8.8-2.9c2.7,3.8,7.1,6.2,12.1,6.2
		c8.3,0,15-6.7,15-15C47.8,27.8,45.3,23.3,41.5,20.6z"/>
	<path class="st0" d="M32.8,48.5c-8.7,0-15.8-7.1-15.8-15.8C17,24.1,24.1,17,32.8,17c8.7,0,15.8,7.1,15.8,15.8
		C48.5,41.4,41.4,48.5,32.8,48.5z M32.8,18.5c-7.9,0-14.2,6.4-14.2,14.2S24.9,47,32.8,47C40.6,47,47,40.6,47,32.8
		S40.6,18.5,32.8,18.5z"/>
	<path class="st1" d="M32.8,47.8c4.2,0,8-1.7,10.7-4.5v-2.5c0-1.5-1-2.8-2.5-3.2l-3.8-1h-4.4h-4.4l-3.8,1C23,37.9,22,39.2,22,40.7
		v2.5C24.8,46,28.6,47.8,32.8,47.8z"/>
	<path class="st2" d="M41,37.5l-0.8-0.2c-0.5,3.6-3,6.7-6.5,7.8c-1.3,0.4-2.7,0.6-4.1,0.6c-2.4,0-4.6-0.6-6.6-1.6
		c2.6,2.3,6.1,3.7,9.9,3.7c4.2,0,8-1.7,10.7-4.5v-2.5C43.5,39.2,42.5,37.9,41,37.5z"/>
	<path class="st0" d="M32.8,48.5c-4.3,0-8.3-1.7-11.2-4.7c-0.1-0.1-0.2-0.3-0.2-0.5v-2.5c0-1.8,1.2-3.4,3-3.9l3.8-1
		c0.1,0,0.1,0,0.2,0h8.9c0.1,0,0.1,0,0.2,0l3.8,1c1.8,0.5,3,2.1,3,3.9v2.5c0,0.2-0.1,0.4-0.2,0.5C41,46.8,37,48.5,32.8,48.5z
		 M22.8,42.9c2.7,2.6,6.2,4.1,10,4.1c3.8,0,7.3-1.4,10-4.1v-2.2c0-1.2-0.8-2.2-1.9-2.5l-3.7-1h-8.7l-3.7,1c-1.1,0.3-1.9,1.3-1.9,2.5
		V42.9z"/>
	<path class="st1" d="M32.8,41.7c0,0,4.4-3.5,4.4-5.2c-0.9-0.5-1.6-1.4-1.8-2.4c0-0.2-0.1-1.1-0.1-1.3l-5.1,0c0,0.2,0,1.2-0.1,1.4
		c-0.2,1-0.9,1.9-1.8,2.3C28.4,38.3,32.8,41.7,32.8,41.7z"/>
	<path class="st0" d="M32.8,42.5c-0.2,0-0.3-0.1-0.5-0.2c-0.8-0.6-4.7-3.8-4.7-5.8c0-0.3,0.2-0.6,0.4-0.7c0.7-0.4,1.3-1,1.4-1.8
		c0-0.1,0-0.5,0-0.7c0-0.3,0-0.5,0-0.5c0-0.4,0.4-0.7,0.7-0.7l5.1,0h0c0.4,0,0.7,0.3,0.7,0.7c0,0.1,0,0.3,0,0.5c0,0.3,0,0.6,0,0.7
		c0.1,0.8,0.7,1.5,1.4,1.9c0.3,0.1,0.4,0.4,0.4,0.7c0,2-3.9,5.2-4.7,5.8C33.1,42.4,32.9,42.5,32.8,42.5z M29.2,36.9
		c0.4,0.9,2,2.6,3.6,3.9c1.6-1.3,3.2-3,3.6-3.9c-0.9-0.6-1.5-1.6-1.7-2.6c0-0.1,0-0.4,0-0.7l-3.6,0c0,0.4,0,0.6-0.1,0.7
		C30.7,35.4,30.1,36.3,29.2,36.9z"/>
	<path class="st1" d="M37.9,28.5c0-3.4-2.3-5.4-5.2-5.4c-2.8,0-5.2,1.9-5.2,5.4c0,3.4,2.3,6.2,5.2,6.2
		C35.6,34.6,37.9,31.9,37.9,28.5z"/>
	<path class="st2" d="M34,23.2c0.4,0.8,0.6,1.7,0.6,2.8c0,3.4-2.3,6.2-5.2,6.2c-0.3,0-0.6,0-0.9-0.1c0.9,1.6,2.5,2.6,4.2,2.6
		c2.8,0,5.2-2.8,5.2-6.2C37.9,25.6,36.2,23.7,34,23.2z"/>
	<path class="st0" d="M32.8,35.4c-3.3,0-5.9-3.1-5.9-6.9c0-3.6,2.4-6.1,5.9-6.1s5.9,2.5,5.9,6.1C38.7,32.3,36,35.4,32.8,35.4z
		 M32.8,23.9c-2.2,0-4.4,1.4-4.4,4.6c0,3,2,5.4,4.4,5.4c2.4,0,4.4-2.4,4.4-5.4C37.2,25.3,34.9,23.9,32.8,23.9z"/>
	<circle class="st1" cx="62.8" cy="13.8" r="2"/>
	<path class="st0" d="M62.8,16.5c-1.5,0-2.8-1.2-2.8-2.7s1.2-2.8,2.8-2.8s2.8,1.2,2.8,2.8S64.3,16.5,62.8,16.5z M62.8,12.5
		c-0.7,0-1.2,0.6-1.2,1.2c0,0.7,0.6,1.2,1.2,1.2c0.7,0,1.2-0.6,1.2-1.2C64,13.1,63.4,12.5,62.8,12.5z"/>
	<circle class="st1" cx="62.8" cy="56.8" r="2"/>
	<path class="st0" d="M62.8,59.5c-1.5,0-2.8-1.2-2.8-2.8c0-1.5,1.2-2.8,2.8-2.8s2.8,1.2,2.8,2.8C65.5,58.3,64.3,59.5,62.8,59.5z
		 M62.8,55.5c-0.7,0-1.2,0.6-1.2,1.2s0.6,1.2,1.2,1.2c0.7,0,1.2-0.6,1.2-1.2S63.4,55.5,62.8,55.5z"/>
	<circle class="st1" cx="55.7" cy="62.8" r="2"/>
	<path class="st0" d="M55.7,65.5c-1.5,0-2.8-1.2-2.8-2.8s1.2-2.8,2.8-2.8s2.8,1.2,2.8,2.8S57.3,65.5,55.7,65.5z M55.7,61.5
		c-0.7,0-1.2,0.6-1.2,1.2c0,0.7,0.6,1.2,1.2,1.2c0.7,0,1.2-0.6,1.2-1.2C57,62.1,56.4,61.5,55.7,61.5z"/>
	<circle class="st1" cx="8.8" cy="2.8" r="2"/>
	<path class="st0" d="M8.8,5.5C7.2,5.5,6,4.3,6,2.8S7.2,0,8.8,0s2.8,1.2,2.8,2.8S10.3,5.5,8.8,5.5z M8.8,1.5c-0.7,0-1.3,0.6-1.3,1.2
		C7.5,3.4,8.1,4,8.8,4C9.4,4,10,3.4,10,2.8C10,2.1,9.4,1.5,8.8,1.5z"/>
	<circle class="st1" cx="2.8" cy="10.8" r="2"/>
	<path class="st0" d="M2.8,13.5c-1.5,0-2.8-1.2-2.8-2.8S1.2,8,2.8,8s2.8,1.2,2.8,2.8S4.3,13.5,2.8,13.5z M2.8,9.5
		c-0.7,0-1.2,0.6-1.2,1.2c0,0.7,0.6,1.2,1.2,1.2C3.4,12,4,11.4,4,10.8C4,10.1,3.4,9.5,2.8,9.5z"/>
	<circle class="st1" cx="3.8" cy="43.7" r="2"/>
	<path class="st0" d="M3.8,46.5c-1.5,0-2.8-1.2-2.8-2.8C1,42.2,2.2,41,3.8,41s2.8,1.2,2.8,2.8C6.5,45.3,5.3,46.5,3.8,46.5z
		 M3.8,42.5c-0.7,0-1.2,0.6-1.2,1.2c0,0.7,0.6,1.2,1.2,1.2C4.4,45,5,44.4,5,43.7C5,43.1,4.4,42.5,3.8,42.5z"/>
</g>
</svg>
