<?xml version="1.0" encoding="utf-8"?>
<!-- Generator: Adobe Illustrator 21.1.0, SVG Export Plug-In . SVG Version: 6.00 Build 0)  -->
<svg version="1.1" id="layer_1" xmlns="http://www.w3.org/2000/svg" xmlns:xlink="http://www.w3.org/1999/xlink" x="0px" y="0px"
	 viewBox="0 0 65.5 65.5" style="enable-background:new 0 0 65.5 65.5;" xml:space="preserve">
<style type="text/css">
	.st0{fill:#D6F2EC;}
	.st1{fill:#FFFFFF;}
	.st2{fill:#6AC2B6;}
</style>
<g>
	<polygon class="st0" points="48.8,0.8 32.8,16.8 40.8,16.8 40.8,64.8 56.7,64.8 56.7,16.8 64.8,16.8 	"/>
	<path class="st1" d="M48.8,0.8l-16,16h8v48h12v-50c0-1.1,0.9-2,2-2h6L48.8,0.8z"/>
	<path class="st2" d="M56.7,65.5h-16c-0.4,0-0.8-0.3-0.8-0.8V17.5h-7.3c-0.3,0-0.6-0.2-0.7-0.5c-0.1-0.3-0.1-0.6,0.2-0.8l16-16
		c0.3-0.3,0.8-0.3,1.1,0l16,16c0.2,0.2,0.3,0.5,0.2,0.8c-0.1,0.3-0.4,0.5-0.7,0.5h-7.3v47.2C57.5,65.2,57.2,65.5,56.7,65.5z
		 M41.5,64H56V16.8c0-0.4,0.3-0.8,0.8-0.8h6.2L48.8,1.8L34.6,16h6.2c0.4,0,0.8,0.3,0.8,0.8V64z"/>
	<path class="st0" d="M48.8,58.7h-18c-0.6,0-1,0.4-1,1v4c0,0.6,0.4,1,1,1h18c0.6,0,1-0.4,1-1v-4C49.8,59.2,49.3,58.7,48.8,58.7z"/>
	<path class="st1" d="M41.3,58.7H30.8c-0.6,0-1,0.4-1,1v4c0,0.6,0.4,1,1,1h10.5c0.6,0,1-0.4,1-1v-4C42.3,59.2,41.8,58.7,41.3,58.7z"
		/>
	<path class="st2" d="M48.8,65.5h-18c-1,0-1.8-0.8-1.8-1.8v-4c0-1,0.8-1.8,1.8-1.8h18c1,0,1.8,0.8,1.8,1.8v4
		C50.5,64.7,49.7,65.5,48.8,65.5z M30.8,59.5c-0.1,0-0.2,0.1-0.2,0.2v4c0,0.1,0.1,0.2,0.2,0.2h18c0.1,0,0.2-0.1,0.2-0.2v-4
		c0-0.1-0.1-0.2-0.2-0.2H30.8z"/>
	<path class="st2" d="M35.3,65.5c-0.4,0-0.8-0.3-0.8-0.8v-6c0-0.4,0.3-0.8,0.8-0.8c0.4,0,0.8,0.3,0.8,0.8v6
		C36,65.2,35.7,65.5,35.3,65.5z"/>
	<path class="st2" d="M42.3,65.5c-0.4,0-0.8-0.3-0.8-0.8v-6c0-0.4,0.3-0.8,0.8-0.8c0.4,0,0.8,0.3,0.8,0.8v6
		C43,65.2,42.7,65.5,42.3,65.5z"/>
	<path class="st0" d="M47.8,52.7h-18c-0.6,0-1,0.4-1,1v4c0,0.6,0.4,1,1,1h18c0.6,0,1-0.4,1-1v-4C48.8,53.2,48.3,52.7,47.8,52.7z"/>
	<path class="st1" d="M42.3,52.7H29.8c-0.6,0-1,0.4-1,1v4c0,0.6,0.4,1,1,1h12.5c0.6,0,1-0.4,1-1v-4C43.3,53.2,42.8,52.7,42.3,52.7z"
		/>
	<path class="st2" d="M47.8,59.5h-18c-1,0-1.8-0.8-1.8-1.8v-4c0-1,0.8-1.8,1.8-1.8h18c1,0,1.8,0.8,1.8,1.8v4
		C49.5,58.7,48.7,59.5,47.8,59.5z M29.8,53.5c-0.1,0-0.2,0.1-0.2,0.2v4c0,0.1,0.1,0.2,0.2,0.2h18c0.1,0,0.2-0.1,0.2-0.2v-4
		c0-0.1-0.1-0.2-0.2-0.2H29.8z"/>
	<path class="st2" d="M36.3,59.5c-0.4,0-0.8-0.3-0.8-0.8v-6c0-0.4,0.3-0.8,0.8-0.8c0.4,0,0.8,0.3,0.8,0.8v6
		C37,59.2,36.7,59.5,36.3,59.5z"/>
	<path class="st2" d="M43.3,59.5c-0.4,0-0.8-0.3-0.8-0.8v-6c0-0.4,0.3-0.8,0.8-0.8c0.4,0,0.8,0.3,0.8,0.8v6
		C44,59.2,43.7,59.5,43.3,59.5z"/>
	<path class="st0" d="M48.8,46.7h-18c-0.6,0-1,0.4-1,1v4c0,0.6,0.4,1,1,1h18c0.6,0,1-0.4,1-1v-4C49.8,47.2,49.3,46.7,48.8,46.7z"/>
	<path class="st1" d="M42.3,46.7H30.8c-0.6,0-1,0.4-1,1v4c0,0.6,0.4,1,1,1h11.5c0.6,0,1-0.4,1-1v-4C43.3,47.2,42.8,46.7,42.3,46.7z"
		/>
	<path class="st2" d="M48.8,53.5h-18c-1,0-1.8-0.8-1.8-1.8v-4c0-1,0.8-1.8,1.8-1.8h18c1,0,1.8,0.8,1.8,1.8v4
		C50.5,52.7,49.7,53.5,48.8,53.5z M30.8,47.5c-0.1,0-0.2,0.1-0.2,0.2v4c0,0.1,0.1,0.2,0.2,0.2h18c0.1,0,0.2-0.1,0.2-0.2v-4
		c0-0.1-0.1-0.2-0.2-0.2H30.8z"/>
	<path class="st2" d="M36.3,53.5c-0.4,0-0.8-0.3-0.8-0.8v-6c0-0.4,0.3-0.8,0.8-0.8c0.4,0,0.8,0.3,0.8,0.8v6
		C37,53.2,36.7,53.5,36.3,53.5z"/>
	<path class="st2" d="M43.3,53.5c-0.4,0-0.8-0.3-0.8-0.8v-6c0-0.4,0.3-0.8,0.8-0.8c0.4,0,0.8,0.3,0.8,0.8v6
		C44,53.2,43.7,53.5,43.3,53.5z"/>
	<path class="st0" d="M49.8,40.7h-18c-0.6,0-1,0.4-1,1v4c0,0.6,0.4,1,1,1h18c0.6,0,1-0.4,1-1v-4C50.8,41.2,50.3,40.7,49.8,40.7z"/>
	<path class="st1" d="M43.3,40.7H31.8c-0.6,0-1,0.4-1,1v4c0,0.6,0.4,1,1,1h11.5c0.6,0,1-0.4,1-1v-4C44.3,41.2,43.8,40.7,43.3,40.7z"
		/>
	<path class="st2" d="M49.8,47.5h-18c-1,0-1.8-0.8-1.8-1.8v-4c0-1,0.8-1.8,1.8-1.8h18c1,0,1.8,0.8,1.8,1.8v4
		C51.5,46.7,50.7,47.5,49.8,47.5z M31.8,41.5c-0.1,0-0.2,0.1-0.2,0.2v4c0,0.1,0.1,0.2,0.2,0.2h18c0.1,0,0.2-0.1,0.2-0.2v-4
		c0-0.1-0.1-0.2-0.2-0.2H31.8z"/>
	<path class="st2" d="M37.3,47.5c-0.4,0-0.8-0.3-0.8-0.8v-6c0-0.4,0.3-0.8,0.8-0.8c0.4,0,0.8,0.3,0.8,0.8v6
		C38,47.2,37.7,47.5,37.3,47.5z"/>
	<path class="st2" d="M44.3,47.5c-0.4,0-0.8-0.3-0.8-0.8v-6c0-0.4,0.3-0.8,0.8-0.8c0.4,0,0.8,0.3,0.8,0.8v6
		C45,47.2,44.7,47.5,44.3,47.5z"/>
	<path class="st0" d="M46.8,34.7h-18c-0.6,0-1,0.4-1,1v4c0,0.6,0.4,1,1,1h18c0.6,0,1-0.4,1-1v-4C47.8,35.2,47.3,34.7,46.8,34.7z"/>
	<path class="st1" d="M41.3,34.7H28.8c-0.6,0-1,0.4-1,1v4c0,0.6,0.4,1,1,1h12.5c0.6,0,1-0.4,1-1v-4C42.3,35.2,41.8,34.7,41.3,34.7z"
		/>
	<path class="st2" d="M46.8,41.5h-18c-1,0-1.8-0.8-1.8-1.8v-4c0-1,0.8-1.8,1.8-1.8h18c1,0,1.8,0.8,1.8,1.8v4
		C48.5,40.7,47.7,41.5,46.8,41.5z M28.8,35.5c-0.1,0-0.2,0.1-0.2,0.2v4c0,0.1,0.1,0.2,0.2,0.2h18c0.1,0,0.2-0.1,0.2-0.2v-4
		c0-0.1-0.1-0.2-0.2-0.2H28.8z"/>
	<path class="st2" d="M35.3,41.5c-0.4,0-0.8-0.3-0.8-0.8v-6c0-0.4,0.3-0.8,0.8-0.8c0.4,0,0.8,0.3,0.8,0.8v6
		C36,41.2,35.7,41.5,35.3,41.5z"/>
	<path class="st2" d="M42.3,41.5c-0.4,0-0.8-0.3-0.8-0.8v-6c0-0.4,0.3-0.8,0.8-0.8c0.4,0,0.8,0.3,0.8,0.8v6
		C43,41.2,42.7,41.5,42.3,41.5z"/>
	<path class="st0" d="M50.8,28.7h-18c-0.6,0-1,0.4-1,1v4c0,0.6,0.4,1,1,1h18c0.6,0,1-0.4,1-1v-4C51.8,29.2,51.3,28.7,50.8,28.7z"/>
	<path class="st1" d="M44.3,28.7H32.8c-0.6,0-1,0.4-1,1v4c0,0.6,0.4,1,1,1h11.5c0.6,0,1-0.4,1-1v-4C45.3,29.2,44.8,28.7,44.3,28.7z"
		/>
	<path class="st2" d="M50.8,35.5h-18c-1,0-1.8-0.8-1.8-1.8v-4c0-1,0.8-1.8,1.8-1.8h18c1,0,1.8,0.8,1.8,1.8v4
		C52.5,34.7,51.7,35.5,50.8,35.5z M32.8,29.5c-0.1,0-0.2,0.1-0.2,0.2v4c0,0.1,0.1,0.2,0.2,0.2h18c0.1,0,0.2-0.1,0.2-0.2v-4
		c0-0.1-0.1-0.2-0.2-0.2H32.8z"/>
	<path class="st2" d="M38.3,35.5c-0.4,0-0.8-0.3-0.8-0.8v-6c0-0.4,0.3-0.8,0.8-0.8c0.4,0,0.8,0.3,0.8,0.8v6
		C39,35.2,38.7,35.5,38.3,35.5z"/>
	<path class="st2" d="M45.3,35.5c-0.4,0-0.8-0.3-0.8-0.8v-6c0-0.4,0.3-0.8,0.8-0.8c0.4,0,0.8,0.3,0.8,0.8v6
		C46,35.2,45.7,35.5,45.3,35.5z"/>
	<path class="st0" d="M47.8,22.7h-18c-0.6,0-1,0.4-1,1v4c0,0.6,0.4,1,1,1h18c0.6,0,1-0.4,1-1v-4C48.8,23.2,48.3,22.7,47.8,22.7z"/>
	<path class="st1" d="M41.3,22.7H29.8c-0.6,0-1,0.4-1,1v4c0,0.6,0.4,1,1,1h11.5c0.6,0,1-0.4,1-1v-4C42.3,23.2,41.8,22.7,41.3,22.7z"
		/>
	<path class="st2" d="M47.8,29.5h-18c-1,0-1.8-0.8-1.8-1.8v-4c0-1,0.8-1.8,1.8-1.8h18c1,0,1.8,0.8,1.8,1.8v4
		C49.5,28.7,48.7,29.5,47.8,29.5z M29.8,23.5c-0.1,0-0.2,0.1-0.2,0.2v4c0,0.1,0.1,0.2,0.2,0.2h18c0.1,0,0.2-0.1,0.2-0.2v-4
		c0-0.1-0.1-0.2-0.2-0.2H29.8z"/>
	<path class="st2" d="M35.3,29.5c-0.4,0-0.8-0.3-0.8-0.8v-6c0-0.4,0.3-0.8,0.8-0.8c0.4,0,0.8,0.3,0.8,0.8v6
		C36,29.2,35.7,29.5,35.3,29.5z"/>
	<path class="st2" d="M42.3,29.5c-0.4,0-0.8-0.3-0.8-0.8v-6c0-0.4,0.3-0.8,0.8-0.8c0.4,0,0.8,0.3,0.8,0.8v6
		C43,29.2,42.7,29.5,42.3,29.5z"/>
	<path class="st0" d="M21.8,58.7h-18c-0.6,0-1,0.4-1,1v4c0,0.6,0.4,1,1,1h18c0.6,0,1-0.4,1-1v-4C22.8,59.2,22.3,58.7,21.8,58.7z"/>
	<path class="st1" d="M16.3,58.7H3.8c-0.6,0-1,0.4-1,1v4c0,0.6,0.4,1,1,1h12.5c0.6,0,1-0.4,1-1v-4C17.3,59.2,16.8,58.7,16.3,58.7z"
		/>
	<path class="st2" d="M21.8,65.5h-18c-1,0-1.8-0.8-1.8-1.8v-4c0-1,0.8-1.8,1.8-1.8h18c1,0,1.8,0.8,1.8,1.8v4
		C23.5,64.7,22.7,65.5,21.8,65.5z M3.8,59.5c-0.1,0-0.2,0.1-0.2,0.2v4c0,0.1,0.1,0.2,0.2,0.2h18c0.1,0,0.2-0.1,0.2-0.2v-4
		c0-0.1-0.1-0.2-0.2-0.2H3.8z"/>
	<path class="st2" d="M10.2,65.5c-0.4,0-0.8-0.3-0.8-0.8v-6c0-0.4,0.3-0.8,0.8-0.8c0.4,0,0.8,0.3,0.8,0.8v6
		C11,65.2,10.7,65.5,10.2,65.5z"/>
	<path class="st2" d="M17.2,65.5c-0.4,0-0.8-0.3-0.8-0.8v-6c0-0.4,0.3-0.8,0.8-0.8c0.4,0,0.8,0.3,0.8,0.8v6
		C18,65.2,17.7,65.5,17.2,65.5z"/>
	<path class="st0" d="M20.8,52.7h-18c-0.6,0-1,0.4-1,1v4c0,0.6,0.4,1,1,1h18c0.6,0,1-0.4,1-1v-4C21.8,53.2,21.3,52.7,20.8,52.7z"/>
	<path class="st1" d="M14.2,52.7H2.8c-0.6,0-1,0.4-1,1v4c0,0.6,0.4,1,1,1h11.5c0.6,0,1-0.4,1-1v-4C15.2,53.2,14.8,52.7,14.2,52.7z"
		/>
	<path class="st2" d="M20.8,59.5h-18c-1,0-1.8-0.8-1.8-1.8v-4c0-1,0.8-1.8,1.8-1.8h18c1,0,1.8,0.8,1.8,1.8v4
		C22.5,58.7,21.7,59.5,20.8,59.5z M2.8,53.5c-0.1,0-0.2,0.1-0.2,0.2v4c0,0.1,0.1,0.2,0.2,0.2h18c0.1,0,0.2-0.1,0.2-0.2v-4
		c0-0.1-0.1-0.2-0.2-0.2H2.8z"/>
	<path class="st2" d="M8.2,59.5c-0.4,0-0.8-0.3-0.8-0.8v-6c0-0.4,0.3-0.8,0.8-0.8C8.7,52,9,52.3,9,52.7v6C9,59.2,8.7,59.5,8.2,59.5z
		"/>
	<path class="st2" d="M15.2,59.5c-0.4,0-0.8-0.3-0.8-0.8v-6c0-0.4,0.3-0.8,0.8-0.8c0.4,0,0.8,0.3,0.8,0.8v6
		C16,59.2,15.7,59.5,15.2,59.5z"/>
	<path class="st0" d="M21.8,46.7h-18c-0.6,0-1,0.4-1,1v4c0,0.6,0.4,1,1,1h18c0.6,0,1-0.4,1-1v-4C22.8,47.2,22.3,46.7,21.8,46.7z"/>
	<path class="st1" d="M15.2,46.7H3.8c-0.6,0-1,0.4-1,1v4c0,0.6,0.4,1,1,1h11.5c0.6,0,1-0.4,1-1v-4C16.2,47.2,15.8,46.7,15.2,46.7z"
		/>
	<path class="st2" d="M21.8,53.5h-18c-1,0-1.8-0.8-1.8-1.8v-4c0-1,0.8-1.8,1.8-1.8h18c1,0,1.8,0.8,1.8,1.8v4
		C23.5,52.7,22.7,53.5,21.8,53.5z M3.8,47.5c-0.1,0-0.2,0.1-0.2,0.2v4c0,0.1,0.1,0.2,0.2,0.2h18c0.1,0,0.2-0.1,0.2-0.2v-4
		c0-0.1-0.1-0.2-0.2-0.2H3.8z"/>
	<path class="st2" d="M9.2,53.5c-0.4,0-0.8-0.3-0.8-0.8v-6c0-0.4,0.3-0.8,0.8-0.8c0.4,0,0.8,0.3,0.8,0.8v6
		C10,53.2,9.7,53.5,9.2,53.5z"/>
	<path class="st2" d="M16.2,53.5c-0.4,0-0.8-0.3-0.8-0.8v-6c0-0.4,0.3-0.8,0.8-0.8c0.4,0,0.8,0.3,0.8,0.8v6
		C17,53.2,16.7,53.5,16.2,53.5z"/>
	<path class="st0" d="M21.8,34.7h-18c-0.6,0-1,0.4-1,1v4c0,0.6,0.4,1,1,1h18c0.6,0,1-0.4,1-1v-4C22.8,35.2,22.3,34.7,21.8,34.7z"/>
	<path class="st1" d="M14.2,34.7H3.8c-0.6,0-1,0.4-1,1v4c0,0.6,0.4,1,1,1h10.5c0.6,0,1-0.4,1-1v-4C15.2,35.2,14.8,34.7,14.2,34.7z"
		/>
	<path class="st2" d="M21.8,41.5h-18c-1,0-1.8-0.8-1.8-1.8v-4c0-1,0.8-1.8,1.8-1.8h18c1,0,1.8,0.8,1.8,1.8v4
		C23.5,40.7,22.7,41.5,21.8,41.5z M3.8,35.5c-0.1,0-0.2,0.1-0.2,0.2v4c0,0.1,0.1,0.2,0.2,0.2h18c0.1,0,0.2-0.1,0.2-0.2v-4
		c0-0.1-0.1-0.2-0.2-0.2H3.8z"/>
	<path class="st2" d="M8.2,41.5c-0.4,0-0.8-0.3-0.8-0.8v-6c0-0.4,0.3-0.8,0.8-0.8C8.7,34,9,34.3,9,34.7v6C9,41.2,8.7,41.5,8.2,41.5z
		"/>
	<path class="st2" d="M15.2,41.5c-0.4,0-0.8-0.3-0.8-0.8v-6c0-0.4,0.3-0.8,0.8-0.8c0.4,0,0.8,0.3,0.8,0.8v6
		C16,41.2,15.7,41.5,15.2,41.5z"/>
	<path class="st0" d="M19.8,40.7h-18c-0.6,0-1,0.4-1,1v4c0,0.6,0.4,1,1,1h18c0.6,0,1-0.4,1-1v-4C20.8,41.2,20.3,40.7,19.8,40.7z"/>
	<path class="st1" d="M12.2,40.7H1.8c-0.6,0-1,0.4-1,1v4c0,0.6,0.4,1,1,1h10.5c0.6,0,1-0.4,1-1v-4C13.2,41.2,12.8,40.7,12.2,40.7z"
		/>
	<path class="st2" d="M19.8,47.5h-18c-1,0-1.8-0.8-1.8-1.8v-4c0-1,0.8-1.8,1.8-1.8h18c1,0,1.8,0.8,1.8,1.8v4
		C21.5,46.7,20.7,47.5,19.8,47.5z M1.8,41.5c-0.1,0-0.2,0.1-0.2,0.2v4c0,0.1,0.1,0.2,0.2,0.2h18c0.1,0,0.2-0.1,0.2-0.2v-4
		c0-0.1-0.1-0.2-0.2-0.2H1.8z"/>
	<path class="st2" d="M6.2,47.5c-0.4,0-0.8-0.3-0.8-0.8v-6c0-0.4,0.3-0.8,0.8-0.8C6.7,40,7,40.3,7,40.7v6C7,47.2,6.7,47.5,6.2,47.5z
		"/>
	<path class="st2" d="M13.2,47.5c-0.4,0-0.8-0.3-0.8-0.8v-6c0-0.4,0.3-0.8,0.8-0.8c0.4,0,0.8,0.3,0.8,0.8v6
		C14,47.2,13.7,47.5,13.2,47.5z"/>
	<circle class="st1" cx="11.8" cy="23.7" r="11"/>
	<path class="st0" d="M13.4,12.9c2,2,3.3,4.8,3.3,7.9c0,6.1-4.9,11-11,11c-0.6,0-1.1-0.1-1.7-0.1c2,1.9,4.7,3.1,7.7,3.1
		c6.1,0,11-4.9,11-11C22.8,18.2,18.7,13.7,13.4,12.9z"/>
	<path class="st2" d="M11.8,35.5C5.3,35.5,0,30.2,0,23.7C0,17.3,5.3,12,11.8,12s11.8,5.3,11.8,11.8C23.5,30.2,18.2,35.5,11.8,35.5z
		 M11.8,13.5c-5.7,0-10.2,4.6-10.2,10.2C1.5,29.4,6.1,34,11.8,34C17.4,34,22,29.4,22,23.7C22,18.1,17.4,13.5,11.8,13.5z"/>
	<path class="st2" d="M11.8,30.1c-1.6,0-3-0.9-3.6-2.3c-0.2-0.4,0-0.8,0.4-1c0.4-0.2,0.8,0,1,0.4c0.3,0.8,1.2,1.3,2.2,1.3
		c1.3,0,2.3-0.9,2.3-2.1c0-0.9-0.4-2.1-2.3-2.1c-2.8,0-3.8-1.8-3.8-3.6c0-2,1.7-3.6,3.8-3.6c1.6,0,3,0.9,3.6,2.3
		c0.2,0.4,0,0.8-0.4,1c-0.4,0.2-0.8,0-1-0.4c-0.3-0.8-1.2-1.3-2.2-1.3c-1.3,0-2.3,0.9-2.3,2.1c0,0.9,0.4,2.1,2.3,2.1
		c2.8,0,3.8,1.8,3.8,3.6C15.6,28.5,13.9,30.1,11.8,30.1z"/>
	<path class="st2" d="M11.8,18.9c-0.4,0-0.8-0.3-0.8-0.8v-1.5c0-0.4,0.3-0.8,0.8-0.8c0.4,0,0.8,0.3,0.8,0.8v1.5
		C12.5,18.6,12.2,18.9,11.8,18.9z"/>
	<path class="st2" d="M11.8,31.6c-0.4,0-0.8-0.3-0.8-0.8v-1.5c0-0.4,0.3-0.8,0.8-0.8c0.4,0,0.8,0.3,0.8,0.8v1.5
		C12.5,31.3,12.2,31.6,11.8,31.6z"/>
	<circle class="st2" cx="18.4" cy="23.7" r="0.8"/>
	<circle class="st2" cx="5.1" cy="23.7" r="0.8"/>
	<path class="st2" d="M64.8,38.2c-0.4,0-0.8-0.3-0.8-0.8V24.8c0-0.4,0.3-0.8,0.8-0.8c0.4,0,0.8,0.3,0.8,0.8v12.7
		C65.5,37.9,65.2,38.2,64.8,38.2z"/>
	<path class="st2" d="M64.8,44.5c-0.4,0-0.8-0.3-0.8-0.8v-2.3c0-0.4,0.3-0.8,0.8-0.8c0.4,0,0.8,0.3,0.8,0.8v2.3
		C65.5,44.2,65.2,44.5,64.8,44.5z"/>
	<path class="st2" d="M60.7,52.2c-0.4,0-0.8-0.3-0.8-0.8V35.8c0-0.4,0.3-0.8,0.8-0.8c0.4,0,0.8,0.3,0.8,0.8v15.7
		C61.5,51.9,61.2,52.2,60.7,52.2z"/>
	<path class="st2" d="M60.7,58.5c-0.4,0-0.8-0.3-0.8-0.8v-2.3c0-0.4,0.3-0.8,0.8-0.8c0.4,0,0.8,0.3,0.8,0.8v2.3
		C61.5,58.2,61.2,58.5,60.7,58.5z"/>
	<path class="st2" d="M6.1,6.5H4.8C4.3,6.5,4,6.2,4,5.8C4,5.3,4.3,5,4.8,5h1.4c0.4,0,0.8,0.3,0.8,0.8C6.9,6.2,6.5,6.5,6.1,6.5z"/>
	<path class="st2" d="M10.8,6.5H9.4C9,6.5,8.6,6.2,8.6,5.8C8.6,5.3,9,5,9.4,5h1.4c0.4,0,0.8,0.3,0.8,0.8C11.5,6.2,11.2,6.5,10.8,6.5
		z"/>
	<path class="st2" d="M7.8,9.5C7.3,9.5,7,9.2,7,8.8V7.4C7,7,7.3,6.6,7.8,6.6c0.4,0,0.8,0.3,0.8,0.8v1.4C8.5,9.2,8.2,9.5,7.8,9.5z"/>
	<path class="st2" d="M7.8,4.9C7.3,4.9,7,4.5,7,4.1V2.8C7,2.3,7.3,2,7.8,2c0.4,0,0.8,0.3,0.8,0.8v1.4C8.5,4.5,8.2,4.9,7.8,4.9z"/>
	<path class="st2" d="M34.1,4.5h-1.4c-0.4,0-0.8-0.3-0.8-0.8C32,3.3,32.3,3,32.8,3h1.4c0.4,0,0.8,0.3,0.8,0.8
		C34.9,4.2,34.6,4.5,34.1,4.5z"/>
	<path class="st2" d="M38.8,4.5h-1.4c-0.4,0-0.8-0.3-0.8-0.8C36.6,3.3,37,3,37.4,3h1.4c0.4,0,0.8,0.3,0.8,0.8
		C39.5,4.2,39.2,4.5,38.8,4.5z"/>
	<path class="st2" d="M35.8,7.5c-0.4,0-0.8-0.3-0.8-0.8V5.4c0-0.4,0.3-0.8,0.8-0.8c0.4,0,0.8,0.3,0.8,0.8v1.4
		C36.5,7.2,36.2,7.5,35.8,7.5z"/>
	<path class="st2" d="M35.8,2.9c-0.4,0-0.8-0.3-0.8-0.8V0.8C35,0.3,35.3,0,35.8,0c0.4,0,0.8,0.3,0.8,0.8v1.4
		C36.5,2.5,36.2,2.9,35.8,2.9z"/>
	<path class="st2" d="M23.1,12.5h-1.4c-0.4,0-0.8-0.3-0.8-0.8c0-0.4,0.3-0.8,0.8-0.8h1.4c0.4,0,0.8,0.3,0.8,0.8
		C23.9,12.2,23.6,12.5,23.1,12.5z"/>
	<path class="st2" d="M27.8,12.5h-1.4c-0.4,0-0.8-0.3-0.8-0.8c0-0.4,0.3-0.8,0.8-0.8h1.4c0.4,0,0.8,0.3,0.8,0.8
		C28.5,12.2,28.2,12.5,27.8,12.5z"/>
	<path class="st2" d="M24.8,15.5c-0.4,0-0.8-0.3-0.8-0.8v-1.4c0-0.4,0.3-0.8,0.8-0.8c0.4,0,0.8,0.3,0.8,0.8v1.4
		C25.5,15.2,25.2,15.5,24.8,15.5z"/>
	<path class="st2" d="M24.8,10.9c-0.4,0-0.8-0.3-0.8-0.8V8.8C24,8.3,24.3,8,24.8,8c0.4,0,0.8,0.3,0.8,0.8v1.4
		C25.5,10.5,25.2,10.9,24.8,10.9z"/>
</g>
</svg>
