<?xml version="1.0" encoding="utf-8"?>
<!-- Generator: Adobe Illustrator 21.1.0, SVG Export Plug-In . SVG Version: 6.00 Build 0)  -->
<svg version="1.1" id="layer_1" xmlns="http://www.w3.org/2000/svg" xmlns:xlink="http://www.w3.org/1999/xlink" x="0px" y="0px"
	 viewBox="0 0 65.5 65.5" style="enable-background:new 0 0 65.5 65.5;" xml:space="preserve">
<style type="text/css">
	.st0{fill:#FFFFFF;}
	.st1{fill:#6AC2B6;}
	.st2{fill:#D6F2EC;}
</style>
<g>
	<circle class="st0" cx="59.8" cy="5.8" r="2"/>
	<path class="st1" d="M59.8,8.5c-1.5,0-2.8-1.2-2.8-2.8C57,4.2,58.2,3,59.8,3s2.8,1.2,2.8,2.8C62.5,7.3,61.3,8.5,59.8,8.5z
		 M59.8,4.5c-0.7,0-1.2,0.6-1.2,1.2c0,0.7,0.6,1.2,1.2,1.2C60.4,7,61,6.4,61,5.8C61,5.1,60.4,4.5,59.8,4.5z"/>
	<circle class="st0" cx="62.8" cy="56.7" r="2"/>
	<path class="st1" d="M62.8,59.5c-1.5,0-2.8-1.2-2.8-2.8c0-1.5,1.2-2.8,2.8-2.8c1.5,0,2.8,1.2,2.8,2.8
		C65.5,58.3,64.3,59.5,62.8,59.5z M62.8,55.5c-0.7,0-1.2,0.6-1.2,1.2c0,0.7,0.6,1.2,1.2,1.2c0.7,0,1.2-0.6,1.2-1.2
		C64,56.1,63.4,55.5,62.8,55.5z"/>
	<circle class="st0" cx="55.8" cy="62.8" r="2"/>
	<path class="st1" d="M55.8,65.5c-1.5,0-2.8-1.2-2.8-2.8s1.2-2.8,2.8-2.8s2.8,1.2,2.8,2.8S57.3,65.5,55.8,65.5z M55.8,61.5
		c-0.7,0-1.2,0.6-1.2,1.2c0,0.7,0.6,1.2,1.2,1.2c0.7,0,1.2-0.6,1.2-1.2C57,62.1,56.4,61.5,55.8,61.5z"/>
	<circle class="st0" cx="8.8" cy="2.8" r="2"/>
	<path class="st1" d="M8.8,5.5C7.2,5.5,6,4.3,6,2.8S7.2,0,8.8,0s2.8,1.2,2.8,2.8S10.3,5.5,8.8,5.5z M8.8,1.5c-0.7,0-1.3,0.6-1.3,1.2
		C7.5,3.4,8.1,4,8.8,4C9.4,4,10,3.4,10,2.8C10,2.1,9.4,1.5,8.8,1.5z"/>
	<circle class="st0" cx="2.8" cy="10.8" r="2"/>
	<path class="st1" d="M2.8,13.5c-1.5,0-2.8-1.2-2.8-2.8S1.2,8,2.8,8s2.8,1.2,2.8,2.8S4.3,13.5,2.8,13.5z M2.8,9.5
		c-0.7,0-1.2,0.6-1.2,1.2c0,0.7,0.6,1.2,1.2,1.2C3.4,12,4,11.4,4,10.8C4,10.1,3.4,9.5,2.8,9.5z"/>
	<circle class="st0" cx="7.8" cy="61.8" r="2"/>
	<path class="st1" d="M7.8,64.5c-1.5,0-2.8-1.2-2.8-2.8S6.2,59,7.8,59s2.8,1.2,2.8,2.8S9.3,64.5,7.8,64.5z M7.8,60.5
		c-0.7,0-1.2,0.6-1.2,1.2c0,0.7,0.6,1.2,1.2,1.2C8.4,63,9,62.4,9,61.8C9,61.1,8.4,60.5,7.8,60.5z"/>
	<circle class="st0" cx="32.8" cy="32.8" r="32"/>
	<path class="st2" d="M64.8,32.8c0-17.7-14.3-32-32-32c-6.3,0-12.2,1.8-17.2,5c3.5-1.3,7.3-2,11.2-2c17.7,0,32,14.3,32,32
		c0,11.3-5.9,21.3-14.8,27C56.1,58.2,64.8,46.5,64.8,32.8z"/>
	<path class="st1" d="M32.8,65.5C14.7,65.5,0,50.8,0,32.8S14.7,0,32.8,0s32.8,14.7,32.8,32.8S50.8,65.5,32.8,65.5z M32.8,1.5
		c-17.2,0-31.3,14-31.3,31.2C1.5,50,15.5,64,32.8,64C50,64,64,50,64,32.8C64,15.5,50,1.5,32.8,1.5z"/>
	<path class="st1" d="M50.3,35.4h-1.4c-0.4,0-0.8-0.3-0.8-0.8c0-0.4,0.3-0.8,0.8-0.8h1.4c0.4,0,0.8,0.3,0.8,0.8
		C51,35.1,50.7,35.4,50.3,35.4z"/>
	<path class="st1" d="M54.9,35.4h-1.4c-0.4,0-0.8-0.3-0.8-0.8c0-0.4,0.3-0.8,0.8-0.8h1.4c0.4,0,0.8,0.3,0.8,0.8
		C55.7,35.1,55.3,35.4,54.9,35.4z"/>
	<path class="st1" d="M51.9,38.4c-0.4,0-0.8-0.3-0.8-0.8v-1.4c0-0.4,0.3-0.8,0.8-0.8c0.4,0,0.8,0.3,0.8,0.8v1.4
		C52.7,38.1,52.3,38.4,51.9,38.4z"/>
	<path class="st1" d="M51.9,33.8c-0.4,0-0.8-0.3-0.8-0.8v-1.4c0-0.4,0.3-0.8,0.8-0.8c0.4,0,0.8,0.3,0.8,0.8v1.4
		C52.7,33.5,52.3,33.8,51.9,33.8z"/>
	<path class="st1" d="M54.5,24.7h-1.4c-0.4,0-0.8-0.3-0.8-0.8c0-0.4,0.3-0.8,0.8-0.8h1.4c0.4,0,0.8,0.3,0.8,0.8
		C55.3,24.3,55,24.7,54.5,24.7z"/>
	<path class="st1" d="M59.2,24.7h-1.4c-0.4,0-0.8-0.3-0.8-0.8c0-0.4,0.3-0.8,0.8-0.8h1.4c0.4,0,0.8,0.3,0.8,0.8
		C59.9,24.3,59.6,24.7,59.2,24.7z"/>
	<path class="st1" d="M56.2,27.7c-0.4,0-0.8-0.3-0.8-0.8v-1.4c0-0.4,0.3-0.8,0.8-0.8c0.4,0,0.8,0.3,0.8,0.8v1.4
		C56.9,27.3,56.6,27.7,56.2,27.7z"/>
	<path class="st1" d="M56.2,23.1c-0.4,0-0.8-0.3-0.8-0.8v-1.4c0-0.4,0.3-0.8,0.8-0.8c0.4,0,0.8,0.3,0.8,0.8v1.4
		C56.9,22.7,56.6,23.1,56.2,23.1z"/>
	<path class="st1" d="M9.8,30.3H8.4c-0.4,0-0.8-0.3-0.8-0.8c0-0.4,0.3-0.8,0.8-0.8h1.4c0.4,0,0.8,0.3,0.8,0.8
		C10.5,30,10.2,30.3,9.8,30.3z"/>
	<path class="st1" d="M14.4,30.3H13c-0.4,0-0.8-0.3-0.8-0.8c0-0.4,0.3-0.8,0.8-0.8h1.4c0.4,0,0.8,0.3,0.8,0.8
		C15.2,30,14.8,30.3,14.4,30.3z"/>
	<path class="st1" d="M11.4,33.3c-0.4,0-0.8-0.3-0.8-0.8v-1.4c0-0.4,0.3-0.8,0.8-0.8c0.4,0,0.8,0.3,0.8,0.8v1.4
		C12.2,33,11.8,33.3,11.4,33.3z"/>
	<path class="st1" d="M11.4,28.7c-0.4,0-0.8-0.3-0.8-0.8v-1.4c0-0.4,0.3-0.8,0.8-0.8c0.4,0,0.8,0.3,0.8,0.8v1.4
		C12.2,28.4,11.8,28.7,11.4,28.7z"/>
	<path class="st0" d="M52.3,41.4l-8.9-1.7l-10.6,4.2l-10.6-4.2l-8.9,1.7c-4.2,0.7-7.3,4.3-7.5,8.6c5.7,8.9,15.6,14.8,27,14.8
		c11.3,0,21.3-5.9,27-14.8C59.6,45.7,56.5,42.1,52.3,41.4z"/>
	<path class="st2" d="M29.3,42.5l-7.2-2.9l-8.9,1.7c-3.7,0.6-6.6,3.6-7.3,7.2c5.1-2.7,10.9-4.5,17.2-5.3
		C25.1,42.9,27.2,42.7,29.3,42.5z"/>
	<path class="st2" d="M55.7,55c1.5-1.5,2.8-3.2,4-5c-0.1-4.2-3.2-7.8-7.5-8.6l-8.9-1.7l-6.6,2.6C47.2,42.5,56.2,45.4,55.7,55z"/>
	<path class="st1" d="M32.8,65.5c-11.2,0-21.6-5.7-27.6-15.2C5,50.2,5,50.1,5,49.9c0.2-4.6,3.6-8.5,8.1-9.3l8.9-1.7
		c0.1,0,0.3,0,0.4,0l10.3,4.1l10.3-4.1c0.1-0.1,0.3-0.1,0.4,0l8.9,1.7c4.5,0.8,7.9,4.7,8.1,9.3c0,0.2,0,0.3-0.1,0.4
		C54.3,59.8,44,65.5,32.8,65.5z M6.5,49.7C12.3,58.7,22.1,64,32.8,64S53.2,58.7,59,49.7c-0.2-3.8-3.1-7-6.8-7.6c0,0,0,0,0,0
		l-8.7-1.7L33,44.6c-0.2,0.1-0.4,0.1-0.6,0l-10.4-4.2l-8.7,1.7C9.6,42.8,6.8,45.9,6.5,49.7z"/>
	<path class="st1" d="M49.2,61c-0.4,0-0.8-0.3-0.8-0.8v-9.3c0-0.4,0.3-0.8,0.8-0.8c0.4,0,0.8,0.3,0.8,0.8v9.3
		C50,60.6,49.6,61,49.2,61z"/>
	<path class="st1" d="M16.3,61c-0.4,0-0.8-0.3-0.8-0.8v-9.3c0-0.4,0.3-0.8,0.8-0.8c0.4,0,0.8,0.3,0.8,0.8v9.3
		C17,60.6,16.7,61,16.3,61z"/>
	<polygon class="st2" points="32.8,43.9 24.8,47.6 22.1,39.6 	"/>
	<polygon class="st0" points="28.5,45.8 24.8,47.6 22.1,39.6 	"/>
	<path class="st1" d="M24.8,48.3c-0.1,0-0.2,0-0.3-0.1c-0.2-0.1-0.3-0.2-0.4-0.5l-2.7-7.9c-0.1-0.3,0-0.6,0.2-0.8
		c0.2-0.2,0.5-0.3,0.8-0.2L33,43.2c0.3,0.1,0.5,0.4,0.5,0.7c0,0.3-0.2,0.6-0.4,0.7l-8,3.7C25,48.3,24.9,48.3,24.8,48.3z M23.4,40.9
		l1.9,5.6l5.6-2.6L23.4,40.9z"/>
	<polygon class="st2" points="32.7,43.9 40.7,47.6 43.4,39.6 	"/>
	<polygon class="st0" points="32.8,43.9 38.1,46.4 39.9,41 	"/>
	<path class="st1" d="M40.7,48.3c-0.1,0-0.2,0-0.3-0.1l-8-3.7c-0.3-0.1-0.4-0.4-0.4-0.7c0-0.3,0.2-0.6,0.5-0.7l10.6-4.2
		c0.3-0.1,0.6,0,0.8,0.2c0.2,0.2,0.3,0.5,0.2,0.8l-2.6,7.9c-0.1,0.2-0.2,0.4-0.4,0.5C40.9,48.3,40.8,48.3,40.7,48.3z M34.6,43.9
		l5.6,2.6l1.9-5.6L34.6,43.9z"/>
	<polygon class="st2" points="35.3,49.8 36.6,45.7 32.8,43.9 28.9,45.7 30.2,49.8 	"/>
	<polygon class="st0" points="32.8,49.8 33.8,44.3 32.8,43.9 28.9,45.7 30.2,49.8 	"/>
	<path class="st1" d="M35.3,50.5L35.3,50.5h-5c-0.3,0-0.6-0.2-0.7-0.5l-1.3-4.1c-0.1-0.4,0.1-0.7,0.4-0.9l3.8-1.8
		c0.2-0.1,0.4-0.1,0.6,0l3.8,1.8c0.3,0.2,0.5,0.5,0.4,0.9L36,50C35.9,50.3,35.6,50.5,35.3,50.5z M30.8,49h3.9l0.9-3l-2.9-1.4
		l-2.9,1.4L30.8,49z"/>
	<path class="st0" d="M30.2,49.8l-2.8,14.5c1.7,0.3,3.5,0.4,5.3,0.4c1.8,0,3.6-0.2,5.3-0.4l-2.8-14.5H30.2z"/>
	<path class="st2" d="M33.9,64.7c1.4-0.1,2.8-0.2,4.2-0.4l-2.8-14.5h-5l0,0h3L33.9,64.7z"/>
	<path class="st1" d="M32.8,65.5c-1.8,0-3.6-0.2-5.4-0.5c-0.2,0-0.4-0.1-0.5-0.3c-0.1-0.2-0.2-0.4-0.1-0.6l2.8-14.5
		c0.1-0.4,0.4-0.6,0.7-0.6l0,0h5c0.4,0,0.7,0.3,0.7,0.6l2.8,14.5c0,0.2,0,0.4-0.1,0.6c-0.1,0.2-0.3,0.3-0.5,0.3
		C36.4,65.3,34.5,65.5,32.8,65.5z M28.3,63.7c3,0.4,5.9,0.4,8.9,0l-2.5-13.1h-3.8L28.3,63.7z"/>
	<path class="st0" d="M48.5,20.2c0.1,0.8,0.2,1.7,0.2,2.6c0,0.9-0.1,1.8-0.2,2.6l-5.4,0.9c-0.2,0.5-0.4,0.9-0.6,1.4l3.2,4.5
		c-1,1.4-2.3,2.7-3.7,3.7l-4.5-3.2c-0.5,0.2-0.9,0.4-1.4,0.6l-0.9,5.4c-0.8,0.1-1.7,0.2-2.6,0.2h0c-0.9,0-1.7-0.1-2.6-0.2l-0.9-5.4
		c-0.5-0.2-1-0.4-1.4-0.6l-4.5,3.2c-1.4-1-2.7-2.3-3.7-3.7l3.2-4.5c-0.2-0.5-0.4-0.9-0.6-1.4L17,25.3c-0.1-0.8-0.2-1.7-0.2-2.6
		c0-0.9,0.1-1.8,0.2-2.6l5.4-0.9c0.2-0.5,0.4-0.9,0.6-1.4l-3.2-4.5c1-1.4,2.3-2.7,3.7-3.7l4.5,3.2c0.5-0.2,0.9-0.4,1.4-0.6L30.2,7
		c0.8-0.1,1.7-0.2,2.6-0.2h0c0.9,0,1.8,0.1,2.6,0.2l0.9,5.4c0.5,0.2,1,0.4,1.4,0.6l4.5-3.2c1.4,1,2.7,2.3,3.7,3.7l-3.2,4.5
		c0.2,0.4,0.4,0.9,0.6,1.4L48.5,20.2z"/>
	<path class="st2" d="M48.5,20.2c0.1,0.8,0.2,1.7,0.2,2.6c0,0.9-0.1,1.8-0.2,2.6l-5.4,0.9c0,0.1-0.1,0.3-0.2,0.4
		c-0.8-7.4-6.7-13.2-14-14c0.1-0.1,0.3-0.1,0.4-0.2L30.2,7c0.8-0.1,1.7-0.2,2.6-0.2h0c0.9,0,1.8,0.1,2.6,0.2l0.9,5.4
		c0.5,0.2,1,0.4,1.4,0.6l4.5-3.2c1.4,1,2.7,2.3,3.7,3.7l-3.2,4.5c0.2,0.4,0.4,0.9,0.6,1.4L48.5,20.2z"/>
	<path class="st1" d="M32.8,39.5c-0.9,0-1.8-0.1-2.7-0.2c-0.3-0.1-0.6-0.3-0.6-0.6l-0.8-5c-0.2-0.1-0.4-0.2-0.6-0.3l-4.1,3
		c-0.3,0.2-0.6,0.2-0.9,0c-1.5-1.1-2.8-2.4-3.8-3.8c-0.2-0.3-0.2-0.6,0-0.9l3-4.1c-0.1-0.2-0.2-0.4-0.3-0.7l-5-0.8
		c-0.3-0.1-0.6-0.3-0.6-0.6c-0.2-0.9-0.2-1.8-0.2-2.7c0-0.9,0.1-1.8,0.2-2.7c0.1-0.3,0.3-0.6,0.6-0.6l5-0.8c0.1-0.2,0.2-0.4,0.3-0.6
		l-3-4.1c-0.2-0.3-0.2-0.6,0-0.9c1.1-1.5,2.4-2.8,3.8-3.8c0.3-0.2,0.6-0.2,0.9,0l4.1,3c0.2-0.1,0.4-0.2,0.7-0.3l0.8-5
		c0.1-0.3,0.3-0.6,0.6-0.6c1.8-0.3,3.7-0.3,5.4,0c0.3,0.1,0.6,0.3,0.6,0.6l0.8,5c0.2,0.1,0.4,0.2,0.7,0.3l4.1-3
		c0.3-0.2,0.6-0.2,0.9,0c1.5,1.1,2.8,2.4,3.8,3.8c0.2,0.3,0.2,0.6,0,0.9l-3,4.1c0.1,0.2,0.2,0.4,0.3,0.6l5,0.8
		c0.3,0.1,0.6,0.3,0.6,0.6c0.1,0.9,0.2,1.8,0.2,2.7c0,0.9-0.1,1.8-0.2,2.7c-0.1,0.3-0.3,0.6-0.6,0.6l-5,0.8
		c-0.1,0.2-0.2,0.4-0.3,0.6l3,4.1c0.2,0.3,0.2,0.6,0,0.9c-1.1,1.5-2.4,2.8-3.8,3.8c-0.3,0.2-0.6,0.2-0.9,0l-4.1-3
		c-0.2,0.1-0.4,0.2-0.7,0.3l-0.8,5c0,0.3-0.3,0.6-0.6,0.6C34.6,39.4,33.7,39.5,32.8,39.5z M30.8,37.9c1.3,0.2,2.6,0.2,3.9,0l0.8-4.9
		c0-0.3,0.2-0.5,0.5-0.6c0.4-0.1,0.9-0.3,1.3-0.5c0.2-0.1,0.5-0.1,0.8,0.1l4,2.9c1-0.8,2-1.7,2.7-2.7l-2.9-4
		c-0.2-0.2-0.2-0.5-0.1-0.8c0.2-0.5,0.4-0.9,0.5-1.3c0.1-0.3,0.3-0.5,0.6-0.5l4.9-0.8C48,24,48,23.4,48,22.7c0-0.6,0-1.3-0.1-1.9
		L43,20c-0.3,0-0.5-0.2-0.6-0.5c-0.1-0.4-0.3-0.9-0.5-1.3c-0.1-0.2-0.1-0.5,0.1-0.8l2.9-4c-0.8-1-1.7-2-2.7-2.7l-4,2.9
		c-0.2,0.2-0.5,0.2-0.8,0.1c-0.4-0.2-0.9-0.4-1.3-0.5c-0.3-0.1-0.5-0.3-0.5-0.6l-0.8-4.9c-1.3-0.2-2.6-0.2-3.9,0L30,12.5
		c0,0.3-0.2,0.5-0.5,0.6c-0.5,0.2-0.9,0.3-1.3,0.5c-0.3,0.1-0.6,0.1-0.8-0.1l-4-2.9c-1,0.8-1.9,1.7-2.7,2.7l2.9,4
		c0.2,0.2,0.2,0.5,0.1,0.8c-0.2,0.4-0.4,0.9-0.5,1.3C23,19.8,22.8,20,22.5,20l-4.9,0.8c-0.1,0.6-0.1,1.3-0.1,1.9
		c0,0.6,0,1.3,0.1,1.9l4.9,0.8c0.3,0,0.5,0.2,0.6,0.5c0.1,0.4,0.3,0.9,0.5,1.3c0.1,0.3,0.1,0.6-0.1,0.8l-2.9,4
		c0.8,1,1.7,1.9,2.7,2.7l4-2.9c0.2-0.2,0.5-0.2,0.8-0.1c0.5,0.2,0.9,0.4,1.3,0.5c0.3,0.1,0.5,0.3,0.5,0.6L30.8,37.9z"/>
	<circle class="st0" cx="32.8" cy="22.8" r="5.5"/>
	<path class="st2" d="M38.3,22.8c0-3-2.5-5.5-5.5-5.5c-2.6,0-4.7,1.8-5.3,4.1c0.9-0.7,2.1-1.1,3.3-1.1c3,0,5.5,2.5,5.5,5.5
		c0,0.5-0.1,0.9-0.2,1.4C37.4,26.1,38.3,24.5,38.3,22.8z"/>
	<path class="st1" d="M32.8,29c-3.4,0-6.2-2.8-6.2-6.2c0-3.4,2.8-6.2,6.2-6.2c3.4,0,6.2,2.8,6.2,6.2C39,26.2,36.2,29,32.8,29z
		 M32.8,18c-2.6,0-4.7,2.1-4.7,4.8c0,2.6,2.1,4.8,4.7,4.8c2.6,0,4.8-2.1,4.8-4.8C37.5,20.1,35.4,18,32.8,18z"/>
</g>
</svg>
