<?xml version="1.0" encoding="utf-8"?>
<!-- Generator: Adobe Illustrator 21.1.0, SVG Export Plug-In . SVG Version: 6.00 Build 0)  -->
<svg version="1.1" id="layer_1" xmlns="http://www.w3.org/2000/svg" xmlns:xlink="http://www.w3.org/1999/xlink" x="0px" y="0px"
	 viewBox="0 0 65.5 65.5" style="enable-background:new 0 0 65.5 65.5;" xml:space="preserve">
<style type="text/css">
	.st0{fill:#D6F2EC;}
	.st1{fill:#FFFFFF;}
	.st2{fill:#6AC2B6;}
</style>
<g>
	<polygon class="st0" points="23.9,52.6 24.7,30.6 12.8,30.6 13.6,52.6 18.7,52.6 18.7,35.9 18.7,52.6 	"/>
	<path class="st1" d="M12.9,33.4l0.7,19.2l7.8,0l0.7-18.1c0-0.6-0.4-1.1-1-1.1H12.9z"/>
	<path class="st2" d="M23.9,53.3H13.6c-0.4,0-0.7-0.3-0.7-0.7l-0.8-22c0-0.2,0.1-0.4,0.2-0.5c0.1-0.1,0.3-0.2,0.5-0.2h11.9
		c0.2,0,0.4,0.1,0.5,0.2c0.1,0.1,0.2,0.3,0.2,0.5l-0.8,22C24.7,53,24.3,53.3,23.9,53.3z M19.5,51.8h3.7l0.7-20.5H13.6l0.7,20.5H18
		V35.9c0-0.4,0.3-0.8,0.8-0.8c0.4,0,0.8,0.3,0.8,0.8V51.8z"/>
	<path class="st0" d="M24.7,20.3v10.3l-0.1,3.9h1.7c1.7,0,3.1-1.4,3.1-3.1V17.8c0-1.8-1.2-3.4-2.9-3.9l0,0c-2.4-0.8-4.8-1.1-7.3-1.1
		h-0.7c-2.6,0-5.1,0.4-7.6,1.2l0,0c-1.7,0.5-2.9,2.1-2.9,4v13.5c0,1.7,1.4,3.1,3.1,3.1h1.7l-0.1-3.9V20.3v10.3h11.9V20.3z"/>
	<path class="st1" d="M24.7,18.7c0-0.8-0.6-1.4-1.3-1.5c-1.4-0.2-2.8-0.4-4.2-0.4h-0.7c-2.9,0-5.7,0.5-8.4,1.4c-1.2,0.4-2,1.6-2,2.9
		v10.1c0,1.7,1.4,3.1,3.1,3.1h1.7l-0.1-3.9v-6.2v6.2h11.9v-6.2V18.7z"/>
	<path class="st2" d="M26.3,35.2h-1.7c-0.2,0-0.4-0.1-0.5-0.2c-0.1-0.1-0.2-0.3-0.2-0.5l0.1-3.1H13.6l0.1,3.1c0,0.2-0.1,0.4-0.2,0.5
		c-0.1,0.1-0.3,0.2-0.5,0.2h-1.7c-2.1,0-3.9-1.7-3.9-3.9V17.8c0-2.1,1.4-4,3.4-4.7c2.5-0.8,5.1-1.2,7.8-1.2h0.7
		c2.6,0,5.1,0.4,7.6,1.2c2,0.7,3.4,2.5,3.4,4.7v13.6C30.2,33.5,28.4,35.2,26.3,35.2z M25.4,33.7h0.9c1.3,0,2.4-1.1,2.4-2.4V17.8
		c0-1.5-0.9-2.8-2.4-3.2c-2.3-0.7-4.7-1.1-7.1-1.1h-0.7c-2.5,0-5,0.4-7.3,1.1c-1.4,0.4-2.4,1.7-2.4,3.2v13.5c0,1.3,1.1,2.4,2.4,2.4
		h1L12,30.6c0,0,0,0,0,0V20.3c0-0.4,0.3-0.8,0.8-0.8c0.4,0,0.8,0.3,0.8,0.8v9.6H24v-9.6c0-0.4,0.3-0.8,0.8-0.8
		c0.4,0,0.8,0.3,0.8,0.8v10.3c0,0,0,0,0,0.1L25.4,33.7z"/>
	<path class="st2" d="M18.8,31.3c-0.4,0-0.8-0.3-0.8-0.8V12.7c0-0.4,0.3-0.8,0.8-0.8c0.4,0,0.8,0.3,0.8,0.8v17.9
		C19.6,31,19.2,31.3,18.8,31.3z"/>
	<ellipse class="st1" cx="18.7" cy="5.3" rx="4.1" ry="4.6"/>
	<path class="st0" d="M20.9,9.2C21,8.8,21.1,8.4,21.1,8c0-2.5-1.9-4.6-4.1-4.6c-0.8,0-1.5,0.3-2.2,0.7c0.5-2,2.1-3.4,4-3.4
		c2.3,0,4.1,2,4.1,4.6C22.9,7,22.1,8.4,20.9,9.2z"/>
	<path class="st2" d="M18.7,10.6c-2.7,0-4.9-2.4-4.9-5.3C13.9,2.4,16,0,18.7,0c2.7,0,4.9,2.4,4.9,5.3C23.6,8.2,21.4,10.6,18.7,10.6z
		 M18.7,1.5c-1.9,0-3.4,1.7-3.4,3.8c0,2.1,1.5,3.8,3.4,3.8c1.9,0,3.4-1.7,3.4-3.8C22.1,3.2,20.6,1.5,18.7,1.5z"/>
	<path class="st1" d="M18.7,52.6h-4.5c-2.2,0-4,1.8-4,4l0,0h8.5V52.6z"/>
	<path class="st2" d="M18.7,57.3h-8.5c-0.4,0-0.8-0.3-0.8-0.8c0-2.6,2.1-4.8,4.8-4.8h4.5c0.4,0,0.8,0.3,0.8,0.8v4
		C19.5,57,19.2,57.3,18.7,57.3z M11.1,55.8H18v-2.5h-3.7C12.7,53.3,11.4,54.4,11.1,55.8z"/>
	<path class="st1" d="M23.2,52.6h-4.5v4h8.5l0,0C27.2,54.4,25.5,52.6,23.2,52.6z"/>
	<path class="st2" d="M27.2,57.3h-8.5c-0.4,0-0.8-0.3-0.8-0.8v-4c0-0.4,0.3-0.8,0.8-0.8h4.5c2.6,0,4.8,2.1,4.8,4.8
		C28,57,27.7,57.3,27.2,57.3z M19.5,55.8h6.9c-0.3-1.4-1.6-2.5-3.2-2.5h-3.8V55.8z"/>
	<polygon class="st0" points="64.7,41.6 0.7,41.6 2.8,29.6 62.7,29.6 	"/>
	<path class="st1" d="M58.6,37.6H1.4l1.3-8.1h56l0.9,6.9C59.7,37.1,59.2,37.6,58.6,37.6z"/>
	<path class="st2" d="M64.7,42.4h-64c-0.2,0-0.4-0.1-0.6-0.3C0,42,0,41.7,0,41.5l2-12.1c0.1-0.4,0.4-0.6,0.7-0.6h60
		c0.4,0,0.7,0.3,0.7,0.6l2,12.1c0,0.2,0,0.4-0.2,0.6C65.2,42.3,65,42.4,64.7,42.4z M1.6,40.9h62.2l-1.8-10.6H3.4L1.6,40.9z"/>
	<rect x="4.8" y="41.8" class="st0" width="56" height="15"/>
	<path class="st1" d="M54.7,51.8h-50V41.6h51v9.2C55.7,51.3,55.3,51.8,54.7,51.8z"/>
	<path class="st2" d="M60.7,57.5h-56c-0.4,0-0.8-0.3-0.8-0.8v-15C4,41.3,4.3,41,4.8,41h56c0.4,0,0.8,0.3,0.8,0.8v15
		C61.5,57.2,61.2,57.5,60.7,57.5z M5.5,56H60V42.5H5.5V56z"/>
	<path class="st2" d="M60.7,65.5c-0.4,0-0.8-0.3-0.8-0.8v-22c0-0.4,0.3-0.8,0.8-0.8c0.4,0,0.8,0.3,0.8,0.8v22
		C61.5,65.2,61.2,65.5,60.7,65.5z"/>
	<path class="st2" d="M4.8,65.5c-0.4,0-0.8-0.3-0.8-0.8v-22C4,42.3,4.3,42,4.8,42c0.4,0,0.8,0.3,0.8,0.8v22
		C5.5,65.2,5.2,65.5,4.8,65.5z"/>
	<polygon class="st0" points="50.3,60.8 51.1,38.8 39.1,38.8 39.9,60.8 45.1,60.8 45.1,44.1 45.1,60.8 	"/>
	<path class="st1" d="M39.2,41.6l0.7,19.2l7.8,0l0.7-18.1c0-0.6-0.4-1.1-1-1.1H39.2z"/>
	<path class="st2" d="M50.3,61.5L50.3,61.5l-5.2,0l-5.2,0c-0.4,0-0.7-0.3-0.7-0.7l-0.8-22c0-0.2,0.1-0.4,0.2-0.5
		c0.1-0.1,0.3-0.2,0.5-0.2h11.9c0.2,0,0.4,0.1,0.5,0.2c0.1,0.1,0.2,0.3,0.2,0.5l-0.8,22C51,61.2,50.7,61.5,50.3,61.5z M39.9,39.5
		L40.6,60l3.7,0V44.1c0-0.4,0.3-0.8,0.8-0.8c0.4,0,0.8,0.3,0.8,0.8V60l3.7,0l0.7-20.5H39.9z"/>
	<path class="st0" d="M51.1,28.5v10.3l-0.1,3.9h1.7c1.7,0,3.1-1.4,3.1-3.1V26c0-1.8-1.2-3.4-2.9-3.9l0,0c-2.4-0.8-4.8-1.1-7.3-1.1
		h-0.7c-2.6,0-5.1,0.4-7.6,1.2l0,0c-1.7,0.5-2.9,2.1-2.9,4v13.5c0,1.7,1.4,3.1,3.1,3.1h1.7l-0.1-3.9V28.5v10.3h11.9V28.5z"/>
	<path class="st1" d="M51.1,26.9c0-0.8-0.6-1.4-1.3-1.5C48.4,25.1,47,25,45.5,25h-0.7c-2.9,0-5.7,0.5-8.4,1.4c-1.2,0.4-2,1.6-2,2.9
		v10.1c0,1.7,1.4,3.1,3.1,3.1h1.7l-0.1-3.9v-6.2v6.2h11.9v-6.2V26.9z"/>
	<path class="st2" d="M52.6,43.4h-1.7c-0.2,0-0.4-0.1-0.5-0.2c-0.1-0.1-0.2-0.3-0.2-0.5l0.1-3.1H39.9l0.1,3.1c0,0.2-0.1,0.4-0.2,0.5
		c-0.1,0.1-0.3,0.2-0.5,0.2h-1.7c-2.1,0-3.9-1.7-3.9-3.9V26c0-2.1,1.4-4,3.4-4.7c2.5-0.8,5.1-1.2,7.8-1.2h0.7c2.6,0,5.1,0.4,7.6,1.2
		c2,0.7,3.4,2.5,3.4,4.7v13.6C56.5,41.7,54.8,43.4,52.6,43.4z M51.7,41.9h0.9c1.3,0,2.4-1.1,2.4-2.4V26c0-1.5-0.9-2.8-2.4-3.2
		c-2.3-0.7-4.7-1.1-7.1-1.1h-0.7c-2.5,0-5,0.4-7.3,1.1c-1.4,0.4-2.4,1.7-2.4,3.2v13.5c0,1.3,1.1,2.4,2.4,2.4h1l-0.1-3.1c0,0,0,0,0,0
		V28.5c0-0.4,0.3-0.8,0.8-0.8c0.4,0,0.8,0.3,0.8,0.8V38h10.4v-9.6c0-0.4,0.3-0.8,0.8-0.8c0.4,0,0.8,0.3,0.8,0.8v10.3c0,0,0,0,0,0.1
		L51.7,41.9z"/>
	<ellipse class="st1" cx="45.1" cy="13.5" rx="4.1" ry="4.6"/>
	<path class="st0" d="M45.1,12.9c1.6,0,3,1,3.7,2.6c0.3-0.6,0.4-1.3,0.4-2c0-2.5-1.9-4.6-4.1-4.6c-2.3,0-4.1,2-4.1,4.6
		c0,0.7,0.2,1.4,0.4,2C42.1,14,43.4,12.9,45.1,12.9z"/>
	<path class="st2" d="M45.1,18.8c-2.7,0-4.9-2.4-4.9-5.3c0-2.9,2.2-5.3,4.9-5.3c2.7,0,4.9,2.4,4.9,5.3C50,16.4,47.8,18.8,45.1,18.8z
		 M45.1,9.7c-1.9,0-3.4,1.7-3.4,3.8c0,2.1,1.5,3.8,3.4,3.8c1.9,0,3.4-1.7,3.4-3.8C48.5,11.4,47,9.7,45.1,9.7z"/>
	<path class="st1" d="M45.2,60.8h-4.5c-2.2,0-4,1.8-4,4l0,0h8.5V60.8z"/>
	<path class="st2" d="M45.2,65.5h-8.5c-0.4,0-0.8-0.3-0.8-0.8c0-2.6,2.1-4.8,4.8-4.8h4.5c0.4,0,0.8,0.3,0.8,0.8v4
		C45.9,65.2,45.6,65.5,45.2,65.5z M37.5,64h6.9v-2.5h-3.8C39.1,61.5,37.8,62.6,37.5,64z"/>
	<path class="st1" d="M49.7,60.8h-4.5v4h8.5l0,0C53.7,62.5,51.9,60.8,49.7,60.8z"/>
	<path class="st2" d="M53.7,65.5h-8.5c-0.4,0-0.8-0.3-0.8-0.8v-4c0-0.4,0.3-0.8,0.8-0.8h4.5c2.6,0,4.8,2.1,4.8,4.8
		C54.4,65.2,54.1,65.5,53.7,65.5z M45.9,64h6.9c-0.3-1.4-1.6-2.5-3.2-2.5h-3.8V64z"/>
	<path class="st2" d="M3.7,6.5c-0.2,0-0.4-0.1-0.5-0.2l-3-3c-0.3-0.3-0.3-0.8,0-1.1c0.3-0.3,0.8-0.3,1.1,0l3,3
		c0.3,0.3,0.3,0.8,0,1.1C4.1,6.4,3.9,6.5,3.7,6.5z"/>
	<path class="st2" d="M0.7,6.5c-0.2,0-0.4-0.1-0.5-0.2c-0.3-0.3-0.3-0.8,0-1.1l3-3c0.3-0.3,0.8-0.3,1.1,0c0.3,0.3,0.3,0.8,0,1.1
		l-3,3C1.1,6.4,0.9,6.5,0.7,6.5z"/>
	<path class="st2" d="M33.8,10.5c-0.2,0-0.4-0.1-0.5-0.2l-3-3c-0.3-0.3-0.3-0.8,0-1.1c0.3-0.3,0.8-0.3,1.1,0l3,3
		c0.3,0.3,0.3,0.8,0,1.1C34.1,10.4,33.9,10.5,33.8,10.5z"/>
	<path class="st2" d="M30.8,10.5c-0.2,0-0.4-0.1-0.5-0.2c-0.3-0.3-0.3-0.8,0-1.1l3-3c0.3-0.3,0.8-0.3,1.1,0c0.3,0.3,0.3,0.8,0,1.1
		l-3,3C31.1,10.4,30.9,10.5,30.8,10.5z"/>
	<path class="st2" d="M64.7,16.3c-0.2,0-0.4-0.1-0.5-0.2l-3-3c-0.3-0.3-0.3-0.8,0-1.1c0.3-0.3,0.8-0.3,1.1,0l3,3
		c0.3,0.3,0.3,0.8,0,1.1C65.1,16.3,64.9,16.3,64.7,16.3z"/>
	<path class="st2" d="M61.7,16.3c-0.2,0-0.4-0.1-0.5-0.2c-0.3-0.3-0.3-0.8,0-1.1l3-3c0.3-0.3,0.8-0.3,1.1,0c0.3,0.3,0.3,0.8,0,1.1
		l-3,3C62.1,16.3,61.9,16.3,61.7,16.3z"/>
	<path class="st2" d="M55.7,4.5c-0.2,0-0.4-0.1-0.5-0.2l-3-3c-0.3-0.3-0.3-0.8,0-1.1c0.3-0.3,0.8-0.3,1.1,0l3,3
		c0.3,0.3,0.3,0.8,0,1.1C56.1,4.4,55.9,4.5,55.7,4.5z"/>
	<path class="st2" d="M52.7,4.5c-0.2,0-0.4-0.1-0.5-0.2c-0.3-0.3-0.3-0.8,0-1.1l3-3c0.3-0.3,0.8-0.3,1.1,0s0.3,0.8,0,1.1l-3,3
		C53.1,4.4,52.9,4.5,52.7,4.5z"/>
	<path class="st2" d="M33.8,52.5H17c-0.4,0-0.8-0.3-0.8-0.8S16.6,51,17,51h16.8c0.4,0,0.8,0.3,0.8,0.8S34.2,52.5,33.8,52.5z"/>
	<path class="st2" d="M13,52.5h-2.2c-0.4,0-0.8-0.3-0.8-0.8s0.3-0.8,0.8-0.8H13c0.4,0,0.8,0.3,0.8,0.8S13.4,52.5,13,52.5z"/>
</g>
</svg>
