<?xml version="1.0" encoding="utf-8"?>
<!-- Generator: Adobe Illustrator 21.1.0, SVG Export Plug-In . SVG Version: 6.00 Build 0)  -->
<svg version="1.1" id="Layer_1" xmlns="http://www.w3.org/2000/svg" xmlns:xlink="http://www.w3.org/1999/xlink" x="0px" y="0px"
	 viewBox="0 0 292.6 317.8" style="enable-background:new 0 0 292.6 317.8;" xml:space="preserve">
<style type="text/css">
	.st0{fill:#6AC2B6;}
</style>
<g>
	<g>
		<g>
			<g>
				<path class="st0" d="M289.9,154.1c-73-39.8-146-79.6-219-119.5C50.2,23.3,29.4,12,8.7,0.7C2.4-2.7-3.2,6.9,3.1,10.3
					c73,39.8,146,79.6,219,119.5c20.7,11.3,41.5,22.6,62.2,33.9C290.5,167.1,296.1,157.5,289.9,154.1L289.9,154.1z"/>
			</g>
			<g>
				<path class="st0" d="M126.4,240.2C85.3,262.6,44.2,285,3.1,307.5c-6.3,3.4-0.7,13,5.6,9.6c41.1-22.4,82.2-44.8,123.3-67.3
					C138.2,246.4,132.7,236.8,126.4,240.2L126.4,240.2z"/>
			</g>
			<g>
				<path class="st0" d="M284.3,154.1c-36.2,19.8-72.5,39.5-108.7,59.3c-6.3,3.4-0.7,13,5.6,9.6c36.2-19.8,72.5-39.5,108.7-59.3
					C296.1,160.3,290.5,150.7,284.3,154.1L284.3,154.1z"/>
			</g>
			<g>
				<path class="st0" d="M0,5.5c0.1,79.2,0.2,158.4,0.3,237.6c0,23.1,0.1,46.1,0.1,69.2c0,7.1,11.1,7.1,11.1,0
					c-0.1-79.2-0.2-158.4-0.3-237.6c0-23.1-0.1-46.1-0.1-69.2C11.1-1.6,0-1.7,0,5.5L0,5.5z"/>
			</g>
		</g>
		<g>
			<g>
				<path class="st0" d="M233.5,154.4c-51.3-28-102.5-55.9-153.8-83.9c-14.6-8-29.3-16-43.9-24c-6.3-3.4-11.9,6.2-5.6,9.6
					C81.5,84.1,132.7,112,184,140c14.6,8,29.3,16,43.9,24C234.2,167.4,239.8,157.8,233.5,154.4L233.5,154.4z"/>
			</g>
			<g>
				<path class="st0" d="M227.9,154.4c-51.3,28-102.5,55.9-153.8,83.9c-14.6,8-29.3,16-43.9,24c-6.3,3.4-0.7,13,5.6,9.6
					c51.3-28,102.5-55.9,153.8-83.9c14.6-8,29.3-16,43.9-24C239.8,160.6,234.2,151,227.9,154.4L227.9,154.4z"/>
			</g>
			<g>
				<path class="st0" d="M27.3,51.3c0.1,55.6,0.1,111.2,0.2,166.9c0,16.3,0,32.6,0.1,48.8c0,7.1,11.1,7.1,11.1,0
					c-0.1-55.6-0.1-111.2-0.2-166.9c0-16.3,0-32.6-0.1-48.8C38.3,44.2,27.3,44.2,27.3,51.3L27.3,51.3z"/>
			</g>
		</g>
		<g>
			<g>
				<path class="st0" d="M175.6,154.1c-37.8-20.6-75.6-41.3-113.4-61.9c-6.3-3.4-11.9,6.2-5.6,9.6c37.8,20.6,75.6,41.3,113.4,61.9
					C176.3,167.1,181.9,157.5,175.6,154.1L175.6,154.1z"/>
			</g>
			<g>
				<path class="st0" d="M170,154.1c-37.8,20.6-75.6,41.3-113.4,61.9c-6.3,3.4-0.7,13,5.6,9.6c37.8-20.6,75.6-41.3,113.4-61.9
					C181.9,160.3,176.3,150.7,170,154.1L170,154.1z"/>
			</g>
		</g>
		<g>
			<g>
				<path class="st0" d="M148.7,169.1c-28.8-15.7-57.7-31.4-86.5-47.2c-6.3-3.4-11.9,6.2-5.6,9.6c28.8,15.7,57.7,31.4,86.5,47.2
					C149.4,182.1,155,172.5,148.7,169.1L148.7,169.1z"/>
			</g>
			<g>
				<path class="st0" d="M114.3,153.4c-19.2,10.5-38.4,21-57.7,31.5c-6.3,3.4-0.7,13,5.6,9.6c19.2-10.5,38.4-21,57.7-31.5
					C126.2,159.5,120.6,149.9,114.3,153.4L114.3,153.4z"/>
			</g>
			<g>
				<path class="st0" d="M53.9,126.7c0,21,0,41.9,0,62.9c0,7.1,11.1,7.1,11.1,0c0-21,0-41.9,0-62.9C65,119.6,53.9,119.6,53.9,126.7
					L53.9,126.7z"/>
			</g>
		</g>
	</g>
</g>
</svg>
