<?xml version="1.0" encoding="utf-8"?>
<!-- Generator: Adobe Illustrator 21.1.0, SVG Export Plug-In . SVG Version: 6.00 Build 0)  -->
<svg version="1.1" id="Layer_1" xmlns="http://www.w3.org/2000/svg" xmlns:xlink="http://www.w3.org/1999/xlink" x="0px" y="0px"
	 viewBox="0 0 120 120" style="enable-background:new 0 0 120 120;" xml:space="preserve">
<style type="text/css">
	.st0{fill:url(#SVGID_1_);}
	.st1{fill:#FFFFFF;}
	.st2{fill:#5CADA2;}
</style>
<g>
	<linearGradient id="SVGID_1_" gradientUnits="userSpaceOnUse" x1="31.5675" y1="39.6483" x2="98.8593" y2="87.8151">
		<stop  offset="0" style="stop-color:#6AC2B6"/>
		<stop  offset="1" style="stop-color:#5CADA2"/>
	</linearGradient>
	<circle class="st0" cx="60" cy="60" r="60"/>
	<g>
		<circle class="st1" cx="58.9" cy="34.2" r="13"/>
		<polygon class="st2" points="61.8,34.2 57.6,31.7 57.6,36.6 		"/>
	</g>
	<g>
		<path class="st1" d="M43.1,70.8V55.4h3.4c1.4,0,2.5,0.4,3.1,1.1s1,1.9,1,3.6c0,0.7-0.1,1.4-0.2,2s-0.4,1.1-0.7,1.5
			c-0.3,0.4-0.8,0.7-1.3,1c-0.5,0.2-1.2,0.3-2,0.3h-1v5.9H43.1z M45.6,62.6h0.8c0.7,0,1.2-0.2,1.5-0.6s0.4-1,0.4-1.9
			c0-0.7-0.1-1.3-0.4-1.8s-0.8-0.7-1.5-0.7h-0.9V62.6z"/>
		<path class="st1" d="M52.7,70.8V55.4h2.4v13.1h4.3v2.3H52.7z"/>
		<path class="st1" d="M60.2,70.8c0.5-2.6,1-5.1,1.5-7.7c0.5-2.6,1-5.1,1.5-7.7h2.6L69,70.8h-2.4L66,67.6h-2.9
			c-0.1,0.5-0.2,1-0.3,1.6c-0.1,0.5-0.2,1.1-0.3,1.6H60.2z M63.5,65.3h2.1l-1-6.4h-0.1C64.4,60,64.2,61,64,62.1
			C63.9,63.1,63.7,64.2,63.5,65.3z"/>
		<path class="st1" d="M69,55.4h2.4l1,3.3l0.7,2.7h0.1l0.7-2.7l0.9-3.3h2.5l-3,9v6.4h-2.4v-6.4L69,55.4z"/>
		<path class="st1" d="M38.4,77h2.4l1,6.3l0.7,4.9h0.1l0.7-4.9l1.1-6.3h2.4L44,92.4h-2.9L38.4,77z"/>
		<path class="st1" d="M49,92.4V77h2.4v15.4H49z"/>
		<path class="st1" d="M54.2,92.4V77H58c0.9,0,1.6,0.2,2.2,0.5c0.5,0.3,0.9,0.9,1.1,1.6c0.2,0.5,0.2,1.3,0.3,2.2c0,1,0,2.1,0,3.4
			c0,1.3,0,2.4,0,3.3c0,0.9-0.1,1.6-0.3,2.2c-0.3,0.9-0.7,1.5-1.3,1.8s-1.3,0.5-2.1,0.5H54.2z M56.6,90.2h1c0.6,0,1-0.2,1.2-0.5
			c0.2-0.3,0.3-0.8,0.3-1.3v-7.3c0-0.6-0.1-1-0.3-1.3c-0.2-0.3-0.6-0.5-1.2-0.5h-1V90.2z"/>
		<path class="st1" d="M64.3,92.4V77h6.8v2.3h-4.4v4.2h3.9v2.3h-3.9v4.4h4.4v2.3H64.3z"/>
		<path class="st1" d="M73,88.7V81c0-0.6,0.1-1.2,0.2-1.7c0.1-0.5,0.4-0.9,0.7-1.3s0.7-0.6,1.2-0.8c0.5-0.2,1.1-0.3,1.7-0.3
			c0.7,0,1.3,0.1,1.8,0.3c0.5,0.2,0.9,0.5,1.2,0.8c0.3,0.4,0.5,0.8,0.6,1.3c0.1,0.5,0.2,1.1,0.2,1.7v7.5c0,1.3-0.3,2.4-0.9,3
			s-1.6,1-2.8,1c-1.3,0-2.2-0.3-2.8-1C73.3,90.9,73,90,73,88.7z M75.4,88.7c0,0.4,0.1,0.8,0.3,1.1c0.2,0.3,0.5,0.5,1,0.5
			c0.5,0,0.8-0.2,1-0.5c0.2-0.3,0.3-0.7,0.3-1.2v-7.8c0-0.4-0.1-0.8-0.3-1.1c-0.2-0.3-0.5-0.5-1-0.5c-0.3,0-0.5,0.1-0.7,0.2
			c-0.2,0.1-0.3,0.3-0.4,0.5c-0.1,0.2-0.2,0.4-0.2,0.6c0,0.2-0.1,0.4-0.1,0.6V88.7z"/>
	</g>
</g>
</svg>
