<?xml version="1.0" encoding="utf-8"?>
<!-- Generator: Adobe Illustrator 21.1.0, SVG Export Plug-In . SVG Version: 6.00 Build 0)  -->
<svg version="1.1" id="_x2014_ÎÓÈ_x5F_1" xmlns="http://www.w3.org/2000/svg" xmlns:xlink="http://www.w3.org/1999/xlink"
	 x="0px" y="0px" viewBox="0 0 461.2 328.6" style="enable-background:new 0 0 461.2 328.6;" xml:space="preserve">
<style type="text/css">
	.st0{fill:#6AC2B6;}
	.st1{fill:#282828;}
	.st2{opacity:0.85;fill:#F2F7F6;}
	.st3{fill:#FFFFFF;}
</style>
<g>
	<g>
		<path class="st0" d="M193.5,52.8c-0.4,0-0.8-0.1-1.1-0.4l-14-10.6h-39.9c-2.3,0-4.1-1.8-4.1-4.1V13.9c0-2.2,1.8-4.1,4.1-4.1h60
			c2.3,0,4.1,1.8,4.1,4.1v23.9c0,2.3-1.8,4.1-4.1,4.1h-4.8l1.5,8.9c0.1,0.7-0.2,1.4-0.8,1.8C194.2,52.7,193.9,52.8,193.5,52.8z"/>
	</g>
	<path class="st1" d="M344.3,190.8c-3.6,0-6.6-3-6.6-6.6c0-3.6,3-6.6,6.6-6.6c3.6,0,6.6,3,6.6,6.6
		C350.9,187.8,348,190.8,344.3,190.8z M344.3,180.3c-2.2,0-3.9,1.8-3.9,3.9c0,2.2,1.8,3.9,3.9,3.9c2.2,0,3.9-1.8,3.9-3.9
		C348.2,182,346.5,180.3,344.3,180.3z"/>
	<path class="st1" d="M459.4,328.6H1.8c-1,0-1.8-1-1.8-2c0-1,0.8-2,1.8-2h457.6c1,0,1.8,1,1.8,2
		C461.2,327.6,460.4,328.6,459.4,328.6z"/>
	<circle class="st2" cx="252.3" cy="147.8" r="91.4"/>
	<path class="st3" d="M182.6,23.6h-37.5c-0.7,0-1.3-0.8-1.3-1.5s0.6-1.5,1.3-1.5h37.5c0.7,0,1.3,0.8,1.3,1.5S183.3,23.6,182.6,23.6z
		"/>
	<path class="st3" d="M162.6,31.6h-17.5c-0.7,0-1.3-0.8-1.3-1.5s0.6-1.5,1.3-1.5h17.5c0.7,0,1.3,0.8,1.3,1.5S163.3,31.6,162.6,31.6z
		"/>
	
		<rect x="184" y="115.1" transform="matrix(0.1579 -0.9875 0.9875 0.1579 50.6273 293.0669)" class="st1" width="26.4" height="3.6"/>
	
		<rect x="236.2" y="116.1" transform="matrix(7.389956e-02 -0.9973 0.9973 7.389956e-02 114.2061 358.7659)" class="st1" width="28.2" height="3.6"/>
	<path class="st1" d="M136,149.3c-0.3-0.1-6.4-2.7-6.1-8.2c0-0.3,0.1-0.5,0.2-0.8l5.8-10.5c0.1-0.1,0.1-0.2,0.2-0.3l21.3-24.7
		c0.1-0.1,0.2-0.2,0.4-0.3l36.4-23c0.1-0.1,0.3-0.1,0.4-0.2c0.4-0.1,9.4-3,18.1-4.4l0.5,3.5c-7.7,1.2-15.9,3.7-17.3,4.1l-36,22.8
		l-21,24.4l-5.5,9.9c0.2,2.8,3.9,4.4,3.9,4.4L136,149.3z"/>
	<path class="st1" d="M252.3,88.8c-2.3-2.9-5.5-4.7-5.5-4.7l-7.9-4.7l1.8-3.1l7.9,4.6c0.1,0.1,3.9,2.2,6.6,5.6L252.3,88.8z"/>
	<path class="st1" d="M299,327.2l-35.9-60.6l-42.9-58c-0.6-0.8-0.4-1.9,0.4-2.5c0.8-0.6,1.9-0.4,2.5,0.4l43.1,58.2l34.3,57.8
		c4-2,14.8-7.3,18.3-9l0.1-0.1c0.1,0,0.2-0.3,0.2-0.8c0-0.3-0.2-1.5-1.7-2.3c-0.7-0.4-1.1-0.4-2-0.5c-0.7-0.1-1.5-0.2-2.7-0.5
		l-0.7-0.2l-0.4-0.6c-8.7-14.7-31.7-57.9-32.8-60.1c-1.4-2-28.9-43.2-36.1-53.8c-0.6-0.8-0.3-1.9,0.5-2.5c0.8-0.6,1.9-0.3,2.5,0.5
		c7.4,10.9,35.9,53.5,36.2,53.9l0.1,0.2c0.2,0.4,23.2,43.8,32.4,59.4c0.6,0.1,1.1,0.2,1.5,0.2c0.9,0.1,1.8,0.2,3.1,0.9
		c2.8,1.4,3.7,4,3.6,5.8c-0.1,1.8-1.1,3.2-2.5,3.7c-4.4,2.1-19.5,9.6-19.7,9.7L299,327.2z"/>
	<path class="st1" d="M106.8,276.4c-0.9,0-1.7-0.1-2.4-0.3l-0.9-0.2l-0.3-0.8c-1.3-3.2-2.9-21.1-3.2-24.6l-0.1-1.5l58.8-14.9
		l24.5-38.7c0.5-0.8,1.6-1.1,2.5-0.6c0.8,0.5,1.1,1.6,0.6,2.5l-25.2,39.9l-57.3,14.5c0.6,7.3,1.7,17.7,2.5,21.2c2,0.2,4.4-0.6,5-2
		l0.2-0.4c0.5-1.1,1.2-2.7,1.8-5.2l0.3-1.1l58.8-11.9l43.8-55.5c0.6-0.8,1.7-0.9,2.5-0.3c0.8,0.6,0.9,1.7,0.3,2.5l-44.6,56.6
		l-57.9,11.7c-0.6,2.1-1.2,3.5-1.7,4.6l-0.2,0.4C113.2,275.2,109.8,276.4,106.8,276.4z"/>
	<path class="st1" d="M234.5,81.1c-0.7,0-1.4-0.4-1.7-1.1c-0.4-0.9,0.1-2,1-2.3l4.7-1.8l1.9-6.6l1.5,0.2c0.2,0,4.6,0.5,6.1-3.2
		c5.5-13.1,3.4-28,3.4-28.1c-0.1-1,0.5-1.9,1.5-2c1-0.1,1.9,0.5,2,1.5c0.1,0.6,2.3,16-3.6,30c-1.7,4.1-5.6,5.3-8.3,5.4l-1.6,5.6
		l-6.3,2.4C234.9,81.1,234.7,81.1,234.5,81.1z"/>
	<path class="st1" d="M237.8,45.6c-1.5,0-7-0.3-8.2-0.5c-1-0.1-1.7-0.8-1.5-1.8c0.1-1,1-1.6,2-1.4c2.7,0.4,6.9,0.9,7.7,0.9
		c7.3-0.1,11.3-1.7,13.6-5.4c-1.1-5-3.4-7.8-7.8-9.7c-9.5-4.1-17.1,0.6-19.7,4.4c-2.6,4.7-2.7,9.6-2.7,9.6c0,1-0.8,1.7-1.8,1.7
		c-1,0-1.8-0.9-1.7-1.8c0-0.2,0.2-5.8,3.2-11.3l0.1-0.1c3.2-4.9,12.5-10.8,24.1-5.8c5.7,2.4,8.8,6.4,10.1,13l0.1,0.7l-0.3,0.2
		C251.9,43.5,246.8,45.6,237.8,45.6C237.8,45.6,237.8,45.6,237.8,45.6z"/>
	<polygon class="st1" points="212.8,80.4 212.3,76.9 217.3,76.1 219.7,56.7 223.3,57.1 220.5,79.2 	"/>
	<path class="st1" d="M221.6,59.3c-0.3,0-0.7-0.1-1-0.3c-2.3-1.4-3.8-3-4.2-6.3c-0.2-1.8,0.2-3.6,1.3-5c1.1-1.4,2.7-2.4,4.4-2.6
		c2.1-0.3,4.2,0.4,5.7,2c0.7,0.7,0.7,1.8,0,2.5c-0.7,0.7-1.8,0.7-2.5,0c-0.7-0.7-1.7-1.1-2.7-0.9c-0.8,0.1-1.6,0.6-2.1,1.2
		c-0.5,0.7-0.7,1.5-0.6,2.3c0.3,2,1,2.7,2.6,3.8c0.8,0.5,1.1,1.6,0.5,2.5C222.7,59,222.1,59.3,221.6,59.3z"/>
	<path class="st0" d="M336,213.6h-26.8c-1,0-1.8-0.5-1.8-1.5c0-1,0.8-1.5,1.8-1.5H336c1,0,1.8,0.5,1.8,1.5
		C337.8,213.1,337,213.6,336,213.6z"/>
	<path class="st0" d="M92.8,207.6H66.1c-1,0-1.8-1-1.8-2c0-1,0.8-2,1.8-2h26.8c1,0,1.8,1,1.8,2C94.6,206.6,93.8,207.6,92.8,207.6z"
		/>
	<path class="st1" d="M147.8,143.3l-2.5-2.5l22.3-22.3c0.1-0.1,0.2-0.2,0.4-0.3l32.6-18.3l1.7,3.1L170,121.1L147.8,143.3z"/>
	<path class="st1" d="M276.2,125.4c-0.6,0-1.2-0.3-1.5-0.8l-22.8-36.5c-0.5-0.8-0.3-1.9,0.6-2.5c0.8-0.5,1.9-0.3,2.5,0.6l22.2,35.5
		l23.5-4l3.4-0.6c0.5-0.3,2.3-1.1,4.8-2.6c0.8-0.5,1.9-0.3,2.5,0.6c0.5,0.8,0.3,1.9-0.6,2.5c-3.2,2-5.3,2.9-5.4,3
		c-0.1,0.1-0.3,0.1-0.4,0.1l-3.7,0.7l-24.7,4.2C276.4,125.4,276.3,125.4,276.2,125.4z"/>
	<g>
		<path class="st0" d="M402,158.6H236.1c-1,0-1.8-1-1.8-2s0.8-2,1.8-2H402c1,0,1.8,1,1.8,2S403,158.6,402,158.6z"/>
		<g>
			<polygon class="st0" points="395.5,167 393.8,165.2 402.8,156.8 393.8,148.4 395.5,146.6 406.5,156.8 			"/>
		</g>
	</g>
	<g>
		<path class="st1" d="M286.1,181.6h-67.8c-1,0-1.8-1-1.8-2s0.8-2,1.8-2h67.8c1,0,1.8,1,1.8,2S287,181.6,286.1,181.6z"/>
		<g>
			<polygon class="st1" points="281.5,185.5 280.5,184.5 285.7,179.7 280.5,174.9 281.5,173.8 287.8,179.7 			"/>
		</g>
	</g>
	<path class="st0" d="M163.6,181.6h-18.5c-1,0-1.8-1-1.8-2s0.8-2,1.8-2h16.8l18.8-23H204c1,0,1.8,1,1.8,2s-0.8,2-1.8,2h-21.6
		L163.6,181.6z"/>
	<path class="st1" d="M131.3,208c-1.7,0-3.4-0.5-4.9-1.5l-44.7-30.4c-1.9-1.3-3.2-3.3-3.6-5.5c-0.4-2.3,0-4.6,1.3-6.5L96,139.7
		c2.7-4,8.1-5,12-2.3l44.7,30.4c1.9,1.3,3.2,3.3,3.6,5.5c0.2,1-0.4,1.9-1.4,2.1c-1,0.2-1.9-0.5-2.1-1.4c-0.3-1.3-1-2.5-2.1-3.3
		L106,140.4c-2.3-1.6-5.5-1-7.1,1.4l-16.6,24.3c-0.8,1.1-1,2.5-0.8,3.8c0.3,1.3,1,2.5,2.1,3.3l44.7,30.4c2.3,1.6,5.5,1,7.1-1.3
		l11.6-17c0.6-0.8,1.7-1,2.5-0.5c0.8,0.6,1,1.7,0.5,2.5l-11.6,17C136.8,206.7,134,208,131.3,208z"/>
	<path class="st1" d="M136.2,180.1c-0.4,0-0.7-0.1-1-0.3l-12-8.8l-2.4,0.7l-5.2-3l-0.3-4l-13.7-9.6c-0.8-0.6-1-1.7-0.4-2.5
		c0.6-0.8,1.7-1,2.5-0.4l15.1,10.6l0.2,3.8l2.2,1.3l2.7-0.8l13.5,9.8c0.8,0.6,1,1.7,0.4,2.5C137.3,179.9,136.8,180.1,136.2,180.1z"
		/>
	<path class="st0" d="M135.2,3.6c-1,0-1.8-0.8-1.8-1.8s0.8-1.8,1.8-1.8l65.6,0c1,0,1.8,0.8,1.8,1.8c0,1-0.8,1.8-1.8,1.8L135.2,3.6z"
		/>
	<path class="st1" d="M118.4,147.5c-0.2,0-0.4,0-0.6-0.1c-0.9-0.3-1.4-1.3-1.1-2.3c0.9-2.5,4-7,9.7-6.4c3,0.3,6.1,1.8,6.2,1.8
		c0.9,0.4,1.3,1.5,0.9,2.4c-0.4,0.9-1.5,1.3-2.4,0.9c0,0-2.7-1.2-5.1-1.5c-4.3-0.5-5.9,3.8-5.9,4C119.8,147,119.1,147.5,118.4,147.5
		z"/>
	<path class="st1" d="M143.7,136c-0.3,0-0.7-0.1-0.9-0.4l-5.5-5.3c-0.5-0.5-0.5-1.4,0-1.9c0.5-0.5,1.4-0.5,1.9,0l5.5,5.3
		c0.5,0.5,0.5,1.4,0,1.9C144.4,135.9,144.1,136,143.7,136z"/>
	<path class="st1" d="M305.1,131.1c-0.8,0-1.5-0.5-1.7-1.3l-2.7-9.5c-0.3-0.9,0.3-1.9,1.2-2.2c0.9-0.3,1.9,0.3,2.2,1.2l2.7,9.5
		c0.3,0.9-0.3,1.9-1.2,2.2C305.4,131.1,305.2,131.1,305.1,131.1z"/>
	<path class="st1" d="M321.2,128.9c-0.9,0-1.6-0.7-1.8-1.5l-0.8-5.7l-5.2,0.7c-1,0.1-1.9-0.5-2-1.5c-0.1-1,0.5-1.9,1.5-2l7-1
		c0.5-0.1,0.9,0.1,1.3,0.3c0.4,0.3,0.6,0.7,0.7,1.2l1,7.5c0.1,1-0.6,1.9-1.5,2C321.4,128.9,321.3,128.9,321.2,128.9z"/>
	<path class="st1" d="M223.8,142.5l-8.1-9.1l0.2-0.9c0.1-0.3,5.6-30.8,7.8-42.7l-1.6-4c-0.4-0.9,0.1-2,1-2.3c0.9-0.4,2,0.1,2.3,1
		l2,5l-0.1,0.5c-2,10.4-6.8,37.2-7.8,42.3l4.4,4.9l4.3-4.2l0.9-43.2l0.2-0.4c0.1-0.1,1.5-2.7,2.4-4.2c0.5-0.8,1.6-1.1,2.4-0.6
		c0.8,0.5,1.1,1.6,0.6,2.4c-0.7,1.1-1.7,2.9-2.1,3.7l-0.9,43.8L223.8,142.5z"/>
	<g>
		<path class="st0" d="M285.6,84.5c-0.6-0.4-1-1.1-0.8-1.8l1.5-8.9h-4.8c-2.3,0-4.1-1.8-4.1-4.1V45.9c0-2.2,1.8-4.1,4.1-4.1h60
			c2.3,0,4.1,1.8,4.1,4.1v23.9c0,2.3-1.8,4.1-4.1,4.1h-39.9l-14,10.6c-0.3,0.2-0.7,0.4-1.1,0.4C286.3,84.8,285.9,84.7,285.6,84.5z"
			/>
	</g>
	<path class="st3" d="M297.5,55.6H335c0.7,0,1.3-0.8,1.3-1.5s-0.6-1.5-1.3-1.5h-37.5c-0.7,0-1.3,0.8-1.3,1.5S296.8,55.6,297.5,55.6z
		"/>
	<path class="st3" d="M317.5,63.6H335c0.7,0,1.3-0.8,1.3-1.5s-0.6-1.5-1.3-1.5h-17.5c-0.7,0-1.3,0.8-1.3,1.5S316.8,63.6,317.5,63.6z
		"/>
	<path class="st0" d="M344.9,35.6c1,0,1.8-0.8,1.8-1.8c0-1-0.8-1.8-1.8-1.8l-65.6,0c-1,0-1.8,0.8-1.8,1.8c0,1,0.8,1.8,1.8,1.8
		L344.9,35.6z"/>
</g>
</svg>
