<?xml version="1.0" encoding="utf-8"?>
<!-- Generator: Adobe Illustrator 21.1.0, SVG Export Plug-In . SVG Version: 6.00 Build 0)  -->
<svg version="1.1" id="_x2014_ÎÓÈ_x5F_1" xmlns="http://www.w3.org/2000/svg" xmlns:xlink="http://www.w3.org/1999/xlink"
	 x="0px" y="0px" viewBox="0 0 461.2 318.2" style="enable-background:new 0 0 461.2 318.2;" xml:space="preserve">
<style type="text/css">
	.st0{opacity:0.85;fill:#F2F7F6;}
	.st1{fill:#6AC2B6;}
	.st2{fill:#282828;}
</style>
<g>
	<circle class="st0" cx="205.5" cy="145.4" r="108"/>
	<circle class="st1" cx="211.3" cy="206" r="3"/>
	<circle class="st1" cx="177.3" cy="47" r="3"/>
	<circle class="st2" cx="414.4" cy="115" r="2.9"/>
	<path class="st1" d="M38.4,204.2H16.9c-1,0-1.8-1-1.8-2c0-1,0.8-2,1.8-2h21.4c1,0,1.8,1,1.8,2C40.1,203.2,39.3,204.2,38.4,204.2z"
		/>
	<path class="st2" d="M140.9,111.2h-26.8c-1,0-1.8-1-1.8-2c0-1,0.8-2,1.8-2h26.8c1,0,1.8,1,1.8,2
		C142.7,110.2,141.9,111.2,140.9,111.2z"/>
	<path class="st2" d="M153.4,101.2h-13.4c-1,0-1.8-0.5-1.8-1.5c0-1,0.8-1.5,1.8-1.5h13.4c1,0,1.8,0.5,1.8,1.5
		C155.2,100.7,154.4,101.2,153.4,101.2z"/>
	<path class="st1" d="M405,173.2h-14.3c-1,0-1.8-0.5-1.8-1.5s0.8-1.5,1.8-1.5H405c1,0,1.8,0.5,1.8,1.5S406,173.2,405,173.2z"/>
	<path class="st2" d="M80.9,177.2c-1,0-1.8-0.7-1.8-1.7L78.4,148c0-1,0.8-1.8,1.7-1.8c0,0,0,0,0,0c1,0,1.8,0.8,1.8,1.7l0.7,27.5
		C82.7,176.4,81.9,177.2,80.9,177.2C80.9,177.2,80.9,177.2,80.9,177.2z"/>
	<path class="st2" d="M122,58c-0.2,0-0.4,0-0.6-0.1l-11.3-4c-0.9-0.3-1.4-1.3-1.1-2.3c0.3-0.9,1.3-1.4,2.3-1.1l11.3,4
		c0.9,0.3,1.4,1.3,1.1,2.3C123.5,57.5,122.8,58,122,58z"/>
	<path class="st2" d="M324.1,118.3c-0.7,0-1.4-0.4-1.7-1.1l-2.6-6.2l11.3-43c-0.3-0.7-0.8-2.1-1.3-3.3c-0.4-0.9,0.1-2,1-2.3
		c0.9-0.4,2,0.1,2.3,1c0.7,1.7,1.5,3.9,1.5,3.9l0.2,0.5l-11.3,43l2.1,5.1c0.4,0.9-0.1,2-1,2.3C324.5,118.3,324.3,118.3,324.1,118.3z
		"/>
	<path class="st2" d="M335.1,112.3c0,0-0.1,0-0.1,0c-1-0.1-1.7-0.9-1.6-1.9l3.6-42.8l3.6-2.8c0.8-0.6,1.9-0.5,2.5,0.3
		c0.6,0.8,0.5,1.9-0.3,2.5l-2.4,1.9l-3.4,41.2C336.8,111.6,336,112.3,335.1,112.3z"/>
	<path class="st2" d="M161.3,317.2c-4.4,0-22.3-0.1-22.5-0.1l-1.5,0l-0.3-1.5c-0.2-0.9-16.4-94-27.2-135.9c-0.1,0-0.2,0-0.4,0
		c-1.1,9.6-2.6,25.6-4.6,45.6c-2.2,23-5,51.5-8,79.7c0.5,0.2,0.9,0.5,1.3,0.7c0.8,0.4,1.6,0.8,2.4,1.3c2.2,1.4,2.9,4.2,2.4,6.3
		c-0.5,1.9-1.8,3.2-3.6,3.4c-3.7,0.5-24,0-24.9-0.1l-1.8,0l0.1-1.8c0-0.9,4.3-95,6-142.4c0-1,0.9-1.8,1.8-1.7c1,0,1.8,0.9,1.7,1.8
		c-1.6,43.8-5.3,127.3-5.9,140.7c6.8,0.2,20,0.4,22.6,0c0.4,0,0.5-0.6,0.5-0.7c0.2-0.8-0.1-2-0.8-2.4c-0.7-0.4-1.3-0.8-2.1-1.1
		c-0.7-0.4-1.5-0.8-2.5-1.3l-1-0.6l0.1-1.2c3-28.6,5.8-57.6,8.1-80.9c2-21,3.7-37.5,4.7-47l0.1-0.8l0.7-0.5c0.9-0.6,2.2-0.6,3.6-0.6
		c0.2,0,0.4,0,0.6,0l1.6-0.2l0.3,1.5c10.1,38.5,25.2,123.8,27.3,136c4.3,0,16.7,0.1,20.7,0.2c0.1-0.2,0.3-0.5,0.3-1.2
		c0-0.5-0.1-1.6-1.2-2.4c-1-0.8-1.3-0.9-2.9-1.6c-0.4-0.2-1-0.4-1.6-0.7l-0.9-0.4l-0.1-0.9c-4.3-27.6-11.4-78.4-15.6-108.7
		c-1.2-8.9-2.2-16-2.8-20.4c-0.1-1,0.5-1.9,1.5-2c1-0.1,1.9,0.5,2,1.5c0.6,4.3,1.6,11.5,2.8,20.4c4.2,30,11.1,79.9,15.5,107.7
		c0.3,0.1,0.5,0.2,0.7,0.3c1.7,0.8,2.3,1,3.6,2c2.1,1.6,3,4.1,2.5,6.6c-0.4,1.8-1.6,3-3.1,3.3L161.3,317.2
		C161.4,317.2,161.4,317.2,161.3,317.2z"/>
	<path class="st2" d="M110.8,53.3c-0.1,0-0.1,0-0.2,0c-1-0.1-1.7-1-1.6-2l1-8.2l0.9-0.4c1.7-0.8,5.2-3.1,5.4-5.1
		c1.6-11.3-1.4-23.9-1.5-24c-0.2-1,0.3-1.9,1.3-2.2c1-0.2,1.9,0.3,2.2,1.3c0.1,0.5,3.2,13.3,1.5,25.4c-0.5,3.5-4.6,6.2-6.5,7.3
		l-0.8,6.3C112.4,52.6,111.6,53.3,110.8,53.3z"/>
	<path class="st2" d="M84.9,24.8c-0.8,0-1.5-0.6-1.7-1.4c-0.1-0.3-1.4-6.2,1-13.3c1.5-5.4,10.4-11.8,21.1-9.7
		c5.8,1.2,10,4.8,12.5,10.7l0.3,0.6l-0.2,0.6c-1.4,4.3-5.6,5.1-10.4,5.9c-2.3,0.4-4.9,0.9-7.6,1.8c-2.3,0.8-2.9,2.2-2.9,2.3
		c-0.3,0.9-1.3,1.4-2.3,1.1c-0.9-0.3-1.4-1.3-1.1-2.2c0.1-0.3,1.2-3.3,5.2-4.6c3-1,5.7-1.5,8.1-1.9c4.2-0.8,6.5-1.2,7.4-3
		c-2-4.5-5.2-7-9.6-7.9c-8.8-1.8-16,3.7-16.9,7.2l0,0.1c-2.1,6.1-1,11.3-0.9,11.3c0.2,1-0.4,1.9-1.3,2.1
		C85.1,24.8,85,24.8,84.9,24.8z"/>
	<path class="st2" d="M459.4,318.2H1.8c-1,0-1.8-1-1.8-2c0-1,0.8-2,1.8-2h457.6c1,0,1.8,1,1.8,2
		C461.2,317.2,460.4,318.2,459.4,318.2z"/>
	<path class="st2" d="M107.4,181c-0.8,0-1.5-0.5-1.7-1.3c-0.3-0.9,0.3-1.9,1.2-2.2l9.7-2.7c1-0.3,1.9,0.3,2.2,1.2
		c0.3,1-0.3,1.9-1.2,2.2l-9.7,2.7C107.7,181,107.5,181,107.4,181z"/>
	<path class="st2" d="M127,143.7c-0.2,0-0.5,0-0.7,0c-5.1-0.7-12.6-1.9-12.7-1.9l-0.1,0l-52.1-11.3l5.8-59.6c0.1-2.9,2.1-8.8,9-10.7
		l9.7-3.6l3.6-1.4l-1.2-18.2C88.3,35.9,89,35,90,35c1-0.1,1.8,0.7,1.9,1.7l1.3,20.8l-6,2.4l-10,3.7c-6.3,1.7-6.4,7.4-6.4,7.4l0,0.1
		l-5.5,56.5l48.9,10.6c0.6,0.1,7.7,1.2,12.6,1.9c2,0.3,2.8-3.8,2.8-3.9c0.2-1,1.1-1.6,2.1-1.4c1,0.2,1.6,1.1,1.5,2.1
		C132.7,139.3,130.9,143.7,127,143.7z"/>
	<path class="st2" d="M91.4,38c-0.1,0-0.1,0-0.2,0c-3.8-0.5-6.2-2.2-7.2-5.1c-0.6-1.6-0.5-3.4,0.3-5c0.8-1.6,2.1-2.7,3.7-3.3
		c1.9-0.7,4.1-0.4,5.8,0.8c0.8,0.6,1,1.7,0.5,2.5c-0.6,0.8-1.7,1-2.5,0.5c-0.8-0.5-1.7-0.7-2.6-0.4c-0.7,0.3-1.4,0.8-1.7,1.5
		c-0.3,0.7-0.4,1.5-0.1,2.3c0.3,1,1.1,2.3,4.3,2.7c1,0.1,1.7,1,1.5,2C93,37.3,92.3,38,91.4,38z"/>
	<path class="st2" d="M106.2,158.2H82.1c-1,0-1.8-0.5-1.8-1.5s0.8-1.5,1.8-1.5h24.1c1,0,1.8,0.5,1.8,1.5S107.1,158.2,106.2,158.2z"
		/>
	<path class="st2" d="M369.4,177.2c-0.9,0-1.7-0.7-1.8-1.7l-1.2-19.5c0,0-0.2-0.1-0.2-0.1v-18c0-1,1-1.8,2-1.8c1,0,2,0.8,2,1.8v17.9
		l1,19.5C371.3,176.3,370.5,177.1,369.4,177.2C369.5,177.2,369.5,177.2,369.4,177.2z"/>
	<path class="st2" d="M300.7,145.8c-4.1,0-5.6-1.9-6.5-5.1c-0.2-0.6-0.4-1.2-0.6-1.7c-0.5-0.9-0.1-1.9,0.7-2.4
		c0.9-0.5,2-0.1,2.4,0.7c0.4,0.8,0.7,1.6,0.9,2.3c0.6,2.2,1,3.5,7.8,1.9c11.3-2.6,31.1-6.9,45.7-10c4.1-0.9,7.6-1.6,10.3-2.2
		c1.5-5.4,3.5-12,5.7-18.9c3.1-10,6.3-20.3,8-27.7c0,0,0-0.1,0-0.1c2.7-8.4,1-11-3.4-14.4c-2-1.6-4.9-3.2-7.9-4.9
		c-2.1-1.2-4.2-2.3-6.3-3.7c-0.8-0.5-1.1-1.6-0.6-2.5c0.5-0.8,1.6-1.1,2.5-0.6c2.1,1.3,4.2,2.5,6.2,3.6c3.1,1.8,6.1,3.4,8.3,5.2
		c5.4,4.3,7.7,8.4,4.6,18.2c-1.8,7.4-5,17.8-8.1,27.8c-2.3,7.4-4.4,14.3-5.9,19.9c-0.2,0.6-0.7,1.1-1.3,1.3
		c-2.8,0.6-6.7,1.5-11.4,2.4c-13.7,2.9-34.4,7.4-45.6,10C303.9,145.6,302.1,145.8,300.7,145.8z"/>
	<path class="st2" d="M304.4,72c-0.4,0-0.8-0.1-1.1-0.4c-0.8-0.6-0.9-1.7-0.3-2.5l7.7-10c0.2-0.3,0.6-0.5,0.9-0.6l17.3-5
		c0.9-0.3,1.9,0.3,2.2,1.2c0.3,0.9-0.3,1.9-1.2,2.2l-16.8,4.8l-7.3,9.5C305.5,71.7,304.9,72,304.4,72z"/>
	<path class="st2" d="M295.1,317.2C295.1,317.2,295.1,317.2,295.1,317.2l-0.4,0c-1.5-0.3-2.8-1.6-3.2-3.5c-0.5-1.9-0.1-4.6,2.2-6.4
		c1.3-1,1.9-1.3,3.5-2c0.2-0.1,0.4-0.2,0.7-0.3c2.7-25.8,6.2-66.3,8.5-93.2c0.9-10.9,1.7-19.5,2.2-24.8c0.1-1,0.9-1.7,1.9-1.6
		c1,0.1,1.7,1,1.6,1.9c-0.5,5.3-1.2,13.9-2.2,24.8c-2.3,27.3-5.9,68.5-8.6,94.3l-0.1,1l-0.9,0.4c-0.6,0.3-1.1,0.5-1.6,0.7
		c-1.6,0.8-1.9,0.9-2.8,1.6c-1,0.8-1.1,1.8-1,2.3c0.1,0.7,0.3,1.1,0.5,1.2c3.9,0,16.2-0.1,20.6-0.2c1.6-12.5,12.3-97.5,20.4-135.9
		l0.3-1.6l1.7,0.2c0.1,0,0.3,0,0.5,0c1.4-0.1,2.6-0.1,3.6,0.5l0.7,0.4l0.1,0.8c3,21.6,6.7,56.6,9.9,87.4c1.6,15.1,3.1,29.4,4.4,40.5
		l0.1,1.2l-1,0.6c-0.9,0.5-1.7,0.9-2.4,1.3c-0.8,0.4-1.4,0.7-2.1,1.1c-0.6,0.4-0.8,1.5-0.6,2.3c0,0.1,0.2,0.8,0.6,0.8
		c2.7,0.4,14.5,0.1,20.7,0c-0.5-13.1-3.3-94.5-5.3-140.6c0-1,0.7-1.8,1.7-1.9c1,0,1.8,0.7,1.9,1.7c2.2,50.1,5.3,141.6,5.3,142.5
		l0.1,1.8l-1.8,0.1c-0.8,0-19.2,0.6-23,0c-1.7-0.2-3.2-1.5-3.6-3.5c-0.6-2.4,0.3-4.9,2.2-6.1c0.8-0.5,1.6-0.9,2.4-1.3
		c0.4-0.2,0.8-0.4,1.3-0.7c-1.2-10.9-2.7-24.7-4.2-39.3c-3.2-30.2-6.8-64.4-9.8-86.1c-0.1,0-0.2,0-0.3,0
		c-8.7,41.9-20.2,134.8-20.3,135.8l-0.2,1.6l-1.6,0C317.4,317.1,299.5,317.2,295.1,317.2z"/>
	<path class="st2" d="M340.2,61.8c-6,0-9.9-3.8-10.1-4l-0.6-0.6l0-0.8c0,0,0.2-4,0-8.6c-4-3.7-6.2-9-6.7-15.9
		c-1.1-16.4,1-20.8,1.2-21.3c0.5-0.9,1.5-1.2,2.4-0.7c0.9,0.5,1.2,1.5,0.7,2.4l0,0c0,0-1.8,4.1-0.8,19.4c0.4,6.2,2.4,10.9,6,13.9
		l0.6,0.5l0,0.8c0.2,3.8,0.1,7.2,0,8.8c1.4,1.1,5.5,3.7,10.9,1.8c0.9-0.3,1.9,0.1,2.3,1.1c0.3,0.9-0.1,1.9-1.1,2.3
		C343.5,61.5,341.8,61.8,340.2,61.8z"/>
	<path class="st2" d="M356.4,23.3c-0.1,0-0.2,0-0.3,0c-1-0.2-1.6-1.1-1.5-2l0,0c0-0.1,0.8-5.9-2.1-12.2c-2.2-3.5-7.7-6.6-16.9-4.8
		c-3.8,0.8-7.3,4.2-8.3,8.3c1.8,3.4,7.4,3.6,14.6,3.6c5.6,0,7.2,3.4,7.3,5.2c0,1-0.7,1.8-1.7,1.9c-1,0.1-1.8-0.7-1.9-1.7
		c0-0.3-0.4-1.8-3.7-1.8c-7,0-15.7,0-18.2-6.4l-0.2-0.5l0.1-0.5c1.2-5.8,5.8-10.5,11.3-11.6c11-2.2,17.9,1.9,20.7,6.5l0.1,0.1
		c3.5,7.4,2.5,14.1,2.5,14.4C358,22.7,357.3,23.3,356.4,23.3z"/>
	<path class="st2" d="M341.1,180c-0.1,0-0.1,0-0.2,0l-7.3-0.7c-1-0.1-1.7-1-1.6-1.9c0.1-1,1-1.7,1.9-1.6l7.3,0.7
		c1,0.1,1.7,1,1.6,1.9C342.8,179.3,342,180,341.1,180z"/>
	<path class="st2" d="M359.7,60.6c-0.3,0-0.7-0.1-1-0.3l-7.1-4.5l-1.2-19c-0.1-1,0.7-1.8,1.7-1.9c1-0.1,1.8,0.7,1.9,1.7l1.1,17.2
		l5.6,3.5c0.8,0.5,1.1,1.6,0.6,2.5C360.9,60.3,360.3,60.6,359.7,60.6z"/>
	<path class="st2" d="M351,38c-0.9,0-1.7-0.7-1.8-1.6c-0.1-1,0.6-1.9,1.5-2c3.1-0.4,3.8-1.7,4.1-2.6c0.5-1.6-0.5-3.3-2.1-3.8
		c-0.9-0.3-1.9-0.2-2.6,0.3c-0.8,0.6-1.9,0.4-2.5-0.4c-0.6-0.8-0.4-1.9,0.4-2.5c1.7-1.2,3.8-1.5,5.8-0.8c3.4,1.2,5.4,4.8,4.4,8.2
		c-0.6,2-2.3,4.5-7,5.1C351.1,38,351.1,38,351,38z"/>
	<path class="st2" d="M368.4,158.2h-35.7c-1,0-1.8-0.5-1.8-1.5s0.8-1.5,1.8-1.5h35.7c1,0,1.8,0.5,1.8,1.5S369.4,158.2,368.4,158.2z"
		/>
	<path class="st1" d="M224,86.1c-5.3-0.1-10,2.8-13.8,5.2c-1.5,1-3,1.9-4.2,2.4c-2.6,1.1-5.7,0.9-7.9-0.6c-1.8-1.2-2.8-2.9-2.8-4.9
		l0.5-20.8c0-0.5-0.2-0.9-0.5-1.3c-0.3-0.3-0.8-0.7-1.3-0.7l-70.7-1.2c0,0,0,0,0,0c-1,0-1.8,0.9-1.8,1.9l-0.8,52.1c0,1,0.8,2,1.8,2
		c0,0,0,0,0,0c1,0,1.8-0.9,1.8-1.9l-0.5,29.6c-0.1-0.8-0.8-1.5-1.7-1.5c-1,0-1.8,0.7-1.8,1.7l-0.1,5.5c0,0.5,0.2,0.9,0.5,1.3
		c0.3,0.3,0.8,0.4,1.3,0.4l70.3,0.9c0,0,0,0,0,0c1,0,1.8-0.6,1.8-1.6c0-0.2,0.4-17.3,0.6-21.3c0.1-2.7,1.2-4.7,3.1-5.8
		c2.3-1.4,5.9-1.4,9.1,0c1.1,0.5,2.5,1.4,3.9,2.3c3.3,2.2,7.4,4.9,12.2,5.1c6.5,0.2,12.7-2.2,17.4-6.7c4.7-4.5,7.4-10.5,7.6-17.1
		C248.1,97.6,237.5,86.4,224,86.1z"/>
	<path class="st2" d="M310.1,130c-0.3,0-0.5-0.1-0.8-0.2l-9.3-4.7c-0.9-0.4-1.2-1.5-0.8-2.4c0.4-0.9,1.5-1.2,2.4-0.8l8.7,4.3
		l37.1-11l9.7-32.6c0.3-0.9,1.3-1.5,2.2-1.2c0.9,0.3,1.5,1.3,1.2,2.2l-10,33.5c-0.2,0.6-0.6,1-1.2,1.2l-38.7,11.5
		C310.4,129.9,310.2,130,310.1,130z"/>
	<path class="st2" d="M290.4,135.5c-0.7,0-1.4-0.4-1.7-1.1c-0.4-0.9,0.1-2,1-2.3l7.3-3c0.9-0.4,2,0.1,2.3,1c0.4,0.9-0.1,2-1,2.3
		l-7.3,3C290.9,135.4,290.6,135.5,290.4,135.5z"/>
	<path class="st2" d="M135.4,132c-0.1,0-0.2,0-0.3,0l-7.5-1.2c-1-0.2-1.6-1.1-1.5-2.1c0.2-1,1.1-1.6,2.1-1.5l7.5,1.2
		c1,0.2,1.6,1.1,1.5,2.1C137,131.3,136.2,132,135.4,132z"/>
	<path class="st2" d="M314.7,143c-0.8,0-1.5-0.6-1.7-1.4l-1.3-5.7c-0.2-1,0.4-1.9,1.3-2.1c1-0.2,1.9,0.4,2.1,1.3l1.3,5.7
		c0.2,1-0.4,1.9-1.3,2.1C315,143,314.9,143,314.7,143z"/>
	<path class="st2" d="M111,140.3c-0.1,0-0.2,0-0.4,0c-1-0.2-1.6-1.1-1.4-2.1l1.3-6.7c0.2-1,1.1-1.6,2.1-1.4c1,0.2,1.6,1.1,1.4,2.1
		l-1.3,6.7C112.6,139.7,111.9,140.3,111,140.3z"/>
	<path class="st2" d="M334.9,49.3c-2.2,0-3.9-0.5-4-0.6c-0.9-0.3-1.5-1.3-1.2-2.2c0.3-0.9,1.3-1.5,2.2-1.2c0,0,4,1.2,7.2-0.7
		c0.9-0.5,1.9-0.2,2.4,0.6c0.5,0.9,0.2,1.9-0.6,2.4C338.9,48.9,336.7,49.3,334.9,49.3z"/>
	<path class="st2" d="M116.9,127.5c-0.2,0-0.3,0-0.5-0.1l-35.5-10.2c-0.8-0.2-1.4-1.1-1.3-1.9l4.2-35.6c0.1-1,1-1.7,2-1.6
		c1,0.1,1.7,1,1.6,2l-4,34.1l33.5,9.6l8.5-2.8c0.9-0.3,1.9,0.2,2.3,1.1c0.3,0.9-0.2,1.9-1.1,2.3l-9,3
		C117.3,127.4,117.1,127.5,116.9,127.5z"/>
	<g>
		<path class="st1" d="M258.3,52.1c-0.3,0-0.7-0.1-0.9-0.4c-0.5-0.5-0.5-1.4,0-1.9l6.7-6.7c0.5-0.5,1.4-0.5,1.9,0
			c0.5,0.5,0.5,1.4,0,1.9l-6.7,6.7C259,52,258.7,52.1,258.3,52.1z"/>
		<path class="st1" d="M265,52.1c-0.3,0-0.7-0.1-0.9-0.4l-6.7-6.7c-0.5-0.5-0.5-1.4,0-1.9c0.5-0.5,1.4-0.5,1.9,0l6.7,6.7
			c0.5,0.5,0.5,1.4,0,1.9C265.7,52,265.4,52.1,265,52.1z"/>
	</g>
	<g>
		<path class="st1" d="M207.6,21.5c-0.3,0-0.7-0.1-0.9-0.4c-0.5-0.5-0.5-1.4,0-1.9l11.7-11.7c0.5-0.5,1.4-0.5,1.9,0
			c0.5,0.5,0.5,1.4,0,1.9l-11.7,11.7C208.3,21.3,208,21.5,207.6,21.5z"/>
		<path class="st1" d="M219.3,21.4c-0.3,0-0.7-0.1-0.9-0.4L206.7,9.4c-0.5-0.5-0.5-1.4,0-1.9c0.5-0.5,1.4-0.5,1.9,0l11.7,11.7
			c0.5,0.5,0.5,1.4,0,1.9C220,21.3,219.7,21.4,219.3,21.4z"/>
	</g>
	<g>
		<path class="st1" d="M160.9,193.7c-0.3,0-0.7-0.1-0.9-0.4c-0.5-0.5-0.5-1.4,0-1.9l8.5-8.5c0.5-0.5,1.4-0.5,1.9,0
			c0.5,0.5,0.5,1.4,0,1.9l-8.5,8.5C161.6,193.5,161.2,193.7,160.9,193.7z"/>
		<path class="st1" d="M169.4,193.6c-0.3,0-0.7-0.1-0.9-0.4l-8.5-8.5c-0.5-0.5-0.5-1.4,0-1.9c0.5-0.5,1.4-0.5,1.9,0l8.5,8.5
			c0.5,0.5,0.5,1.4,0,1.9C170.1,193.5,169.7,193.6,169.4,193.6z"/>
	</g>
	<path class="st2" d="M101.1,61.7c-0.5,0-0.9-0.2-1.3-0.5l-2.5-2.5l-5.8-1.2c-1-0.2-1.6-1.1-1.4-2.1c0.2-1,1.2-1.6,2.1-1.4l6.3,1.3
		c0.3,0.1,0.6,0.2,0.9,0.5l2.8,2.8c0.7,0.7,0.7,1.8,0,2.5C102,61.6,101.5,61.7,101.1,61.7z"/>
	<g>
		<path class="st1" d="M305.4,175.4C305.4,175.4,305.4,175.4,305.4,175.4l-91.3-1.6c-1,0-1.8-0.8-1.8-1.8c0-0.8,0.3-19,0.5-23.4
			c0.3-5.3,2.9-8,5.1-9.4c3.6-2.2,8.7-2.4,13.4-0.3c1.5,0.7,3.1,1.7,4.8,2.8c3.4,2.2,7.2,4.7,11.4,4.8c0.2,0,0.3,0,0.5,0
			c12.4,0,22.5-9.9,22.8-22.3c0.2-12.6-9.8-23-22.3-23.2c-0.1,0-0.1,0-0.2,0c-4.5,0-8.9,2.7-12.7,5.1c-1.8,1.1-3.5,2.2-5.1,2.9
			c-4,1.7-8.6,1.4-12.1-0.9c-3-1.9-4.7-5-4.8-8.4l0.4-22.7c0-1,0.8-1.8,1.8-1.8c0,0,0,0,0,0l90.6,0.8c0.5,0,0.9,0.2,1.3,0.5
			c0.3,0.3,0.5,0.8,0.5,1.3l-0.4,39.4c0,1-0.8,1.8-1.8,1.8c0,0,0,0,0,0c-1,0-1.8-0.8-1.8-1.8l0.4-37.6l-87-0.7l-0.4,20.8
			c0.1,2.2,1.2,4.2,3.2,5.4c2.5,1.6,5.9,1.8,8.8,0.6c1.3-0.6,2.9-1.6,4.6-2.6c4.1-2.6,9.2-5.8,14.9-5.7
			c14.5,0.3,26.1,12.3,25.8,26.9c-0.3,14.4-12.1,25.8-26.4,25.8c-0.2,0-0.3,0-0.5,0c-5.2-0.1-9.7-3-13.3-5.4c-1.6-1-3-2-4.3-2.5
			c-3.6-1.6-7.4-1.5-10.1,0.1c-2.1,1.3-3.2,3.5-3.4,6.5c-0.2,3.6-0.4,16.7-0.4,21.5l87.7,1.5l0.2-17.5c0-1,0.8-1.8,1.8-1.8
			c0,0,0,0,0,0c1,0,1.8,0.8,1.8,1.8l-0.2,19.3c0,0.5-0.2,0.9-0.5,1.3C306.4,175.2,305.9,175.4,305.4,175.4z"/>
	</g>
</g>
</svg>
