<?xml version="1.0" encoding="utf-8"?>
<!-- Generator: Adobe Illustrator 21.1.0, SVG Export Plug-In . SVG Version: 6.00 Build 0)  -->
<svg version="1.1" id="_x2014_ÎÓÈ_x5F_1" xmlns="http://www.w3.org/2000/svg" xmlns:xlink="http://www.w3.org/1999/xlink"
	 x="0px" y="0px" viewBox="0 0 540.7 333.4" style="enable-background:new 0 0 540.7 333.4;" xml:space="preserve">
<style type="text/css">
	.st0{fill:#6AC2B6;}
	.st1{opacity:0.85;fill:#F2F7F6;}
	.st2{fill:#282828;}
</style>
<g>
	<path class="st0" d="M345.2,0l-75.9,30.7c-0.9,0.4-1.4,1.4-1,2.3c0.4,0.9,2,6,2.3,7c0.2,0.8,0.9,1.2,1.7,1.2c0.2,0,0.4,0,0.5-0.1
		l78.5-24.9L345.2,0z"/>
	<circle class="st1" cx="230.5" cy="177.4" r="106.2"/>
	<path class="st2" d="M350.4,206.1c-4.9,0-8.8-4-8.8-8.8c0-4.9,4-8.8,8.8-8.8c4.9,0,8.8,4,8.8,8.8
		C359.3,202.2,355.3,206.1,350.4,206.1z M350.4,191.1c-3.4,0-6.2,2.8-6.2,6.2c0,3.4,2.8,6.2,6.2,6.2c3.4,0,6.2-2.8,6.2-6.2
		C356.6,193.9,353.8,191.1,350.4,191.1z"/>
	<path class="st2" d="M38.3,173.1c-2.5,0-4.6-2-4.6-4.6c0-2.5,2-4.6,4.6-4.6c2.5,0,4.6,2,4.6,4.6C42.9,171.1,40.8,173.1,38.3,173.1z
		 M38.3,165.8c-1.5,0-2.8,1.2-2.8,2.8c0,1.5,1.2,2.8,2.8,2.8c1.5,0,2.8-1.2,2.8-2.8C41.1,167,39.9,165.8,38.3,165.8z"/>
	<circle class="st2" cx="421.6" cy="125" r="2.7"/>
	<path class="st0" d="M76.6,241.6c-0.6,0-1.2-0.3-1.5-0.9c-0.5-0.8-0.2-1.9,0.6-2.4l79-47.1c0.8-0.5,1.9-0.2,2.4,0.6
		c0.5,0.8,0.2,1.9-0.6,2.4l-79,47.1C77.2,241.5,76.9,241.6,76.6,241.6z"/>
	<path class="st0" d="M167.6,235c-0.6,0-1.2-0.3-1.5-0.9c-0.5-0.9-0.2-1.9,0.7-2.4l38-22c0.9-0.5,1.9-0.2,2.4,0.7
		c0.5,0.9,0.2,1.9-0.7,2.4l-38,22C168.2,234.9,167.9,235,167.6,235z"/>
	<g>
		<path class="st0" d="M384.6,129.3c-0.6,0-1.2-0.3-1.5-0.9c-0.5-0.8-0.3-1.9,0.6-2.5l71.4-43.8c0.8-0.5,1.9-0.3,2.5,0.6
			c0.5,0.8,0.3,1.9-0.6,2.5L385.5,129C385.3,129.2,384.9,129.3,384.6,129.3z"/>
		<g>
			<polygon class="st0" points="455.8,92 454.1,91.5 456.4,83 447.8,81.3 448.1,79.6 458.6,81.7 			"/>
		</g>
	</g>
	<path class="st2" d="M213.8,170.5c0,0-0.1,0-0.1,0c-1-0.1-1.7-0.9-1.6-1.9l2.1-25c0-0.2,0-0.3,0.1-0.5l10.7-29.3
		c0.3-0.8,1.1-1.3,2-1.1c0.8,0.1,1.5,0.9,1.5,1.7l1,32c0,1-0.7,1.8-1.7,1.8c-1,0-1.8-0.7-1.8-1.7l-0.7-22.8l-7.5,20.5l-2.1,24.8
		C215.5,169.8,214.7,170.5,213.8,170.5z"/>
	<path class="st2" d="M271.3,75.8c-0.9,0-1.7-0.7-1.8-1.6c-0.1-1,0.6-1.9,1.6-2l27.7-3.2l6.1-33.3c0.2-1,1.1-1.6,2.1-1.4
		c1,0.2,1.6,1.1,1.4,2.1L302,70.9c-0.1,0.8-0.8,1.4-1.5,1.4l-29,3.4C271.4,75.8,271.4,75.8,271.3,75.8z"/>
	<path class="st2" d="M280.2,128.4c-1,0-1.8-1.1-1.8-2.1l-0.9-33.7c0-0.8,0.6-1.7,1.4-1.9c0.2,0,17.1-4.1,25.6-6.4
		c6-1.6,6.7-5.1,6.7-5.2l5.3-47.6c0.1-1,1-1.7,2-1.6c1,0.1,1.7,1,1.6,2l-5.3,47.7c0,0.3-0.9,5.9-9.3,8.2c-7.1,1.9-20,5-24.3,6
		l0.9,32.4C282,127.2,281.2,128.4,280.2,128.4C280.2,128.4,280.2,128.4,280.2,128.4z"/>
	<path class="st2" d="M255,139.8l-10.7-8.7l0-0.9c0-0.3,0.9-28.5,1.2-43.1l-2.9-4.7c-0.5-0.8-0.3-1.9,0.6-2.5
		c0.8-0.5,1.9-0.3,2.5,0.6l3.4,5.6l0,0.5c-0.3,13-1,37.8-1.1,42.8l6.4,5.2l4.7-6.5l-7.1-42.7l0.2-0.5c0,0,1.4-3,2-5.3
		c0.3-1,1.2-1.5,2.2-1.3c1,0.3,1.5,1.2,1.3,2.2c-0.5,2-1.6,4.4-2,5.4l7.2,43L255,139.8z"/>
	<path class="st2" d="M305.6,333.4c-4.3,0-22.3-0.1-22.5-0.1l-1.5,0l-0.3-1.5c-0.2-0.9-16.4-94-27.2-135.9c-0.1,0-0.2,0-0.4,0
		c-0.9,7.3-2.6,18.2-4.7,31.8c-3.9,25.1-9.2,59.4-12.9,93.5c0.5,0.2,0.9,0.5,1.3,0.7c0.8,0.4,1.6,0.8,2.4,1.3
		c2.2,1.4,2.9,4.2,2.4,6.3c-0.5,1.9-1.8,3.2-3.6,3.4c-3.7,0.5-24,0-24.9-0.1l-1.9,0l0.1-1.8c0.1-0.9,6.1-93.3,11-142.5
		c0.1-1,1-1.7,2-1.6c1,0.1,1.7,1,1.6,2c-4.6,45.3-10,127.2-10.9,140.5c6.8,0.2,19.9,0.4,22.5,0c0.4,0,0.5-0.6,0.5-0.7
		c0.2-0.8-0.1-2-0.8-2.4c-0.7-0.4-1.3-0.8-2.1-1.1c-0.7-0.4-1.5-0.8-2.5-1.3l-1-0.6l0.1-1.2c3.6-34.6,9.1-69.4,13-94.9
		c2.2-14.4,4-25.8,4.8-33l0.1-0.8l0.7-0.5c0.9-0.6,2.2-0.6,3.6-0.6c0.2,0,0.4,0,0.6,0l1.6-0.2l0.3,1.5
		c10.1,38.5,25.2,123.8,27.3,136c4.3,0,16.7,0.1,20.7,0.2c0.1-0.2,0.3-0.5,0.3-1.2c0-0.5-0.1-1.6-1.2-2.4c-1-0.8-1.3-0.9-2.9-1.6
		c-0.4-0.2-1-0.4-1.6-0.7l-0.9-0.4l-0.1-0.9c-4.4-27.6-11.4-78.5-15.6-108.8c-1.2-8.8-2.2-15.9-2.8-20.2c-0.1-1,0.5-1.9,1.5-2
		c1-0.1,1.9,0.5,2,1.5c0.6,4.3,1.6,11.4,2.8,20.3c4.2,30,11.1,80,15.5,107.8c0.3,0.1,0.5,0.2,0.7,0.3c1.7,0.8,2.3,1,3.6,2
		c2.1,1.6,3,4.1,2.5,6.6c-0.4,1.8-1.6,3-3.1,3.3L305.6,333.4C305.6,333.4,305.6,333.4,305.6,333.4z"/>
	<path class="st2" d="M250.8,73.9c-0.7,0-1.4-0.5-1.7-1.2c-0.3-0.9,0.2-1.9,1.1-2.3l4.8-1.6l0-7.5l1-0.5c2.1-1,5.3-3.2,5.4-4.9
		c1-15.7-2.5-25.5-2.6-25.6c-0.3-0.9,0.1-1.9,1.1-2.3c0.9-0.3,1.9,0.1,2.3,1.1c0.2,0.4,3.8,10.5,2.8,27.1c-0.2,3.6-4.4,6.3-6.4,7.4
		l0,7.9l-7.2,2.4C251.2,73.9,251,73.9,250.8,73.9z"/>
	<path class="st2" d="M230.1,43c-0.9,0-1.7-0.7-1.8-1.6c0-0.3-0.9-7.3,1.1-12.8l0.1-0.2c4-7.8,12-11.3,21.4-9.4
		c5.8,1.2,9.5,4.4,12,10.4l0.3,0.6l-0.2,0.6c-1.8,5.5-6.2,8.7-14.6,10.5c-1.3,0.3-6.8,0.6-7.9,0.7c-1,0.1-1.8-0.7-1.9-1.7
		c-0.1-1,0.7-1.8,1.7-1.9c2.6-0.2,6.7-0.5,7.4-0.6c6.8-1.5,10.3-3.7,11.8-7.5c-2-4.5-4.7-6.8-9.1-7.6c-7.7-1.5-14.3,1.2-17.5,7.5
		c-1.6,4.7-0.9,11-0.9,11.1c0.1,1-0.6,1.9-1.6,2C230.3,42.9,230.2,43,230.1,43z"/>
	<g>
		<path class="st0" d="M1.8,249.1c-0.6,0-1.2-0.3-1.5-0.8c-0.5-0.8-0.3-1.9,0.6-2.5l73.3-46l42.3,34.8L323.2,109l65.3,51.7
			l148.9-89.1c0.8-0.5,1.9-0.3,2.5,0.6c0.5,0.8,0.3,1.9-0.6,2.5l-151.1,90.5l-65.3-51.7L116.1,238.9l-42.3-34.8L2.7,248.8
			C2.4,249,2.1,249.1,1.8,249.1z"/>
		<g>
			<polygon class="st0" points="536.8,86.2 534.3,85.5 537.5,73.6 525.5,71.3 525.9,68.8 540.7,71.7 			"/>
		</g>
	</g>
	<circle class="st2" cx="138.6" cy="257.2" r="3"/>
	<circle class="st2" cx="429.2" cy="220.3" r="2.8"/>
	<path class="st2" d="M364,71.4h-12.5c-1,0-1.8-1-1.8-2c0-1,0.8-2,1.8-2H364c1,0,1.8,1,1.8,2C365.8,70.4,365,71.4,364,71.4z"/>
	<path class="st2" d="M157,144.4h-41c-1,0-1.8-1-1.8-2s0.8-2,1.8-2h41c1,0,1.8,1,1.8,2S158,144.4,157,144.4z"/>
	<path class="st0" d="M259.6,174.5c-0.6,0-1.2-0.3-1.5-0.9c-0.5-0.8-0.2-1.9,0.6-2.4l51.2-30.9l22,17.4l41-24.7
		c0.8-0.5,1.9-0.2,2.4,0.6c0.5,0.8,0.2,1.9-0.6,2.4L331.6,162l-22-17.4l-49,29.6C260.3,174.4,259.9,174.5,259.6,174.5z"/>
	<path class="st2" d="M253.1,196.1c-0.7,0-1.4-0.4-1.7-1.1c-0.4-0.9,0.1-2,1-2.3l6.5-2.5c0.9-0.4,2,0.1,2.3,1c0.4,0.9-0.1,2-1,2.3
		l-6.5,2.5C253.5,196.1,253.3,196.1,253.1,196.1z"/>
	<path class="st2" d="M200.1,179c-1,0-1.7-0.8-1.8-1.7l-1.5-37.3l17.6-57.8l0.6-0.4c0.3-0.2,7.3-4.3,15.3-7.1l3.8-1.5l0.2-17
		c0-1,0.8-1.8,1.8-1.8c0,0,0,0,0,0c1,0,1.8,0.8,1.8,1.8l-0.2,19.4l-6.1,2.4c-6.4,2.3-12.3,5.5-14.2,6.5l-17,55.9l1.5,36.7
		C201.9,178.1,201.2,178.9,200.1,179C200.2,179,200.1,179,200.1,179z"/>
	<path class="st2" d="M236.6,56.1c-0.1,0-0.1,0-0.2,0c-4.7-0.6-6.5-3.1-7.2-5.1c-0.6-1.7-0.5-3.4,0.3-5c0.8-1.6,2.1-2.7,3.7-3.3
		c1.9-0.7,4.1-0.4,5.8,0.8c0.8,0.6,1,1.7,0.5,2.5c-0.6,0.8-1.7,1-2.5,0.5c-0.8-0.5-1.7-0.7-2.6-0.4c-0.7,0.3-1.4,0.8-1.7,1.5
		c-0.3,0.7-0.4,1.5-0.1,2.3c0.3,1,1.1,2.3,4.3,2.7c1,0.1,1.7,1,1.5,2C238.3,55.5,237.5,56.1,236.6,56.1z"/>
	<path class="st2" d="M486.7,333.4H29.1c-1,0-1.8-1-1.8-2c0-1,0.8-2,1.8-2h457.6c1,0,1.8,1,1.8,2
		C488.5,332.4,487.7,333.4,486.7,333.4z"/>
	<path class="st2" d="M226.9,115.5c-0.2,0-0.5,0-0.7-0.1c-0.9-0.4-1.4-1.4-1-2.3l3.7-9c0.4-0.9,1.4-1.4,2.3-1c0.9,0.4,1.4,1.4,1,2.3
		l-3.7,9C228.3,115,227.7,115.5,226.9,115.5z"/>
</g>
</svg>
