<?xml version="1.0" encoding="utf-8"?>
<!-- Generator: Adobe Illustrator 21.1.0, SVG Export Plug-In . SVG Version: 6.00 Build 0)  -->
<svg version="1.1" id="_x2014_ÎÓÈ_x5F_1" xmlns="http://www.w3.org/2000/svg" xmlns:xlink="http://www.w3.org/1999/xlink"
	 x="0px" y="0px" viewBox="0 0 491.7 363" style="enable-background:new 0 0 491.7 363;" xml:space="preserve">
<style type="text/css">
	.st0{opacity:0.48;}
	.st1{fill:#6AC2B6;}
	.st2{opacity:0.58;fill:#6AC2B6;}
	.st3{opacity:0.85;fill:#F2F7F6;}
	.st4{fill:#282828;}
	.st5{opacity:0.32;fill:#6AC2B6;}
	.st6{opacity:0.14;fill:#6AC2B6;}
	.st7{opacity:0.11;fill:#6AC2B6;}
	.st8{opacity:0.17;fill:#6AC2B6;}
</style>
<g>
	<g class="st0">
		<path class="st1" d="M332.9,4.5"/>
		<path class="st1" d="M431.2,2.1"/>
		<path class="st2" d="M331.5,32.6c-0.9,0-0.6-0.7-0.6-1.6l0.3-25.8c0-2.9,2.9-4.8,5.8-4.8l94,0.3c2.9,0,6,1.8,6,4.7l0.8,55.3
			c0,2.9-2.6,5.2-5.5,5.2h-54.2l-19,17.1c-0.3,0.3-0.7,0.4-1,0.4c-0.2,0-0.4,0-0.6-0.1c-0.6-0.2-0.9-0.8-1-1.4l-0.8-16l-19.4-0.2
			c0,0-4.8-0.2-4.8-6.7C331.6,52,331.5,32.6,331.5,32.6"/>
	</g>
	<circle class="st3" cx="352" cy="197.5" r="75.5"/>
	<g>
		<path class="st1" d="M358.1,83.9c-0.2,0-0.4,0-0.6-0.1c-0.6-0.2-0.9-0.8-1-1.4l-0.8-16h-4.6c-0.9,0-1.6-0.7-1.6-1.6
			c0-0.9,0.7-1.6,1.6-1.6h6.1c0.8,0,1.5,0.7,1.6,1.5l0.7,14.2l17-15.3c0.3-0.3,0.7-0.4,1-0.4h54.8c1.2,0,2.4-0.9,2.4-2.1V5.6
			c0-1.2-1.2-2.4-2.4-2.4h-96c-1.2,0-2.3,1.3-2.3,2.4v25.9c0,0.9-0.7,1.6-1.6,1.6s-1.6-0.7-1.6-1.6V5.6c0-2.9,2.6-5.6,5.4-5.6h96
			c2.9,0,5.5,2.7,5.5,5.6v55.6c0,2.9-2.6,5.2-5.5,5.2h-54.2l-19,17.1C358.8,83.7,358.4,83.9,358.1,83.9z"/>
	</g>
	<g>
		<path class="st1" d="M65.5,163.1c-0.9,0-1.6-0.7-1.6-1.6v-64c0-0.9,0.7-1.6,1.6-1.6c0.9,0,1.6,0.7,1.6,1.6v64
			C67,162.4,66.3,163.1,65.5,163.1z"/>
		<g>
			<polygon class="st1" points="59.3,102.4 60.4,103.5 65.7,97.8 70.9,103.5 72.1,102.4 65.7,95.5 			"/>
		</g>
	</g>
	<path class="st1" d="M121.1,307.3c-3.5,0-6.3-2.8-6.3-6.3c0-3.5,2.8-6.3,6.3-6.3c3.5,0,6.3,2.8,6.3,6.3
		C127.4,304.4,124.5,307.3,121.1,307.3z M121.1,297c-2.2,0-3.9,1.8-3.9,3.9c0,2.2,1.8,3.9,3.9,3.9c2.2,0,3.9-1.8,3.9-3.9
		C125,298.8,123.3,297,121.1,297z"/>
	<g>
		<path class="st1" d="M156.8,333.3c-0.9,0-1.6-0.7-1.6-1.6v-54.9L142,266.2v-47.7c0-0.9,0.7-1.6,1.6-1.6s1.6,0.7,1.6,1.6v46.2
			l13.3,10.7v56.4C158.4,332.6,157.7,333.3,156.8,333.3z"/>
		<g>
			<polygon class="st1" points="136.2,224.7 137.5,225.9 143.8,219.2 150.1,225.9 151.5,224.7 143.8,216.4 			"/>
		</g>
	</g>
	<path class="st1" d="M49.9,195.1c-0.9,0-1.6-0.7-1.6-1.6v-35.9c0-0.9,0.7-1.6,1.6-1.6c0.9,0,1.6,0.7,1.6,1.6v35.9
		C51.4,194.4,50.7,195.1,49.9,195.1z"/>
	<path class="st1" d="M180,304.4c-0.9,0-1.6-0.7-1.6-1.6v-35.9c0-0.9,0.7-1.6,1.6-1.6c0.9,0,1.6,0.7,1.6,1.6v35.9
		C181.5,303.7,180.9,304.4,180,304.4z"/>
	<path class="st4" d="M225.5,185.7H100.6c-0.9,0-1.6-0.7-1.6-1.6V45.3c0-0.9,0.7-1.6,1.6-1.6h124.1c0.9,0,1.6,0.7,1.6,1.6
		s-0.7,1.6-1.6,1.6H102.2v135.7h123.3c0.9,0,1.6,0.7,1.6,1.6C227,185,226.3,185.7,225.5,185.7z"/>
	<g>
		<path class="st4" d="M206.9,268.7c-0.6,0-1.2-0.4-1.2-1.1c0-0.6,0.5-1.2,1.2-1.2l12.7,0c0,0,0,0,0,0c0.6,0,1.2,0.6,1.2,1.2
			c0,0.6-0.5,1.1-1.2,1.1L206.9,268.7C206.9,268.7,206.9,268.7,206.9,268.7z"/>
		<path class="st4" d="M213.3,275c-0.6,0-1.2-0.4-1.2-1l0-12.7c0-0.6,0.5-1.1,1.2-1.1h0c0.6,0,1.2,0.5,1.2,1.2l0,12.6
			C214.4,274.6,213.9,275,213.3,275C213.3,275,213.3,275,213.3,275z"/>
	</g>
	<g>
		<path class="st4" d="M73.1,231.7c-0.6,0-1.2-0.4-1.2-1.1c0-0.6,0.5-1.2,1.2-1.2l12.7-0.1c0,0,0,0,0,0c0.6,0,1.2,0.6,1.2,1.3
			s-0.5,1.1-1.2,1.1L73.1,231.7C73.1,231.7,73.1,231.7,73.1,231.7z"/>
		<path class="st4" d="M79.4,237.9c-0.6,0-1.2-0.4-1.2-1l0-12.7c0-0.6,0.5-1.1,1.2-1.1c0,0,0,0,0,0c0.6,0,1.2,0.6,1.2,1.2l0,12.6
			C80.6,237.6,80.1,237.9,79.4,237.9C79.4,237.9,79.4,237.9,79.4,237.9z"/>
	</g>
	<path class="st1" d="M402.8,116.8l-10.2-10.2l10.2-10.2l10.2,10.2L402.8,116.8z M395.9,106.6l6.9,6.9l6.9-6.9l-6.9-6.9L395.9,106.6
		z"/>
	<path class="st4" d="M490.2,363H1.6c-0.9,0-1.6-0.7-1.6-1.6c0-0.9,0.7-1.6,1.6-1.6h488.6c0.9,0,1.6,0.7,1.6,1.6
		C491.7,362.3,491,363,490.2,363z"/>
	<path class="st4" d="M320.7,200.6h-21.9c-0.9,0-1.6-0.7-1.6-1.6c0-0.9,0.7-1.6,1.6-1.6h21.9c0.9,0,1.6,0.7,1.6,1.6
		C322.3,199.9,321.6,200.6,320.7,200.6z"/>
	<path class="st4" d="M321.4,182.5l-8.5-8.2l5.1-62.1c-0.2-0.7-1-2.9-2.3-4.9c-0.5-0.7-0.3-1.7,0.5-2.2c0.7-0.5,1.7-0.3,2.2,0.5
		c1.8,2.8,2.7,5.9,2.8,6l0.1,0.3l0,0.3l-5,61l5.2,5l5.6-5.8l-2.7-60.8l3-5.9c0.4-0.8,1.3-1.1,2.1-0.7c0.8,0.4,1.1,1.3,0.7,2.1
		l-2.7,5.2l2.8,61.3L321.4,182.5z"/>
	<path class="st4" d="M352,223.5c-0.8,0-1.5-0.6-1.6-1.4l-1-11.6c-0.1-0.9,0.6-1.6,1.4-1.7c0.9-0.1,1.6,0.6,1.7,1.4l1,11.6
		c0.1,0.9-0.6,1.6-1.4,1.7C352.1,223.5,352.1,223.5,352,223.5z"/>
	<path class="st4" d="M258,144.1c-0.3,0-0.6-0.1-0.8-0.2l-25.8-16.2c-0.3-0.2-0.5-0.5-0.6-0.8l-2-5.6c-0.3-0.8,0.1-1.7,1-2
		c0.8-0.3,1.7,0.1,2,1l1.8,5.1l24.3,15.3l32.2-27.3c0.1-0.1,0.2-0.1,0.3-0.2l22-11.1c0.8-0.4,1.7-0.1,2.1,0.7
		c0.4,0.8,0.1,1.7-0.7,2.1l-21.9,11l-32.9,28C258.7,144,258.3,144.1,258,144.1z"/>
	<path class="st4" d="M345.7,362.7l-0.1,0c-1.7-0.2-3-1.5-3.5-3.4c-0.5-1.9,0-4.5,2.1-5.8c0.6-0.4,1.3-1.1,1.7-1.6l-20-106.8
		c-0.2-0.8,0.4-1.7,1.2-1.8c0.8-0.2,1.7,0.4,1.8,1.2l20.3,108.2l-0.4,0.5c-0.1,0.2-1.4,1.9-2.9,2.8c-0.7,0.5-0.9,1.6-0.7,2.5
		c0.1,0.2,0.2,0.9,0.7,1c6.2-0.3,16.4-0.2,20.6-0.1c-1.8-12.6-12.1-87.6-16-140.4c-0.1-0.9,0.6-1.6,1.4-1.7c0.9-0.1,1.6,0.6,1.7,1.4
		c4.2,57.4,16.1,141.2,16.2,142l0.3,1.8l-1.8,0c-0.1,0-14.8-0.4-22.3,0.1L345.7,362.7z"/>
	<path class="st4" d="M313.1,104.7c-0.1,0-0.1,0-0.2,0c-0.9-0.1-1.5-0.9-1.3-1.8c0,0,0.4-3.2,0.3-7.5c-3.9-2.6-6.1-7.9-6.6-15.8
		c-1.1-16.2,0.9-20.5,1.2-21c0.4-0.8,1.3-1.1,2.1-0.6c0.8,0.4,1.1,1.3,0.6,2.1c0,0-1.8,4.1-0.8,19.3c0.5,7.2,2.5,12,5.8,13.8
		l0.8,0.4l0,0.9c0.3,5-0.2,8.7-0.3,8.9C314.6,104.1,313.9,104.7,313.1,104.7z"/>
	<path class="st4" d="M328.2,69.9c-0.8,0-1.5-0.7-1.6-1.5c0-0.2-0.3-2-3.9-2c-0.9,0-1.8,0-2.6,0c-6.5,0.1-12.1,0.1-14.2-5.2
		l-0.2-0.4l0.1-0.5c1.2-5.7,6.1-10.4,12.4-11.9c9-2.2,16.7,2.4,19.3,7.8c2.7,5.5,1.9,11.2,1.9,11.5c-0.1,0.9-0.9,1.5-1.8,1.3
		c-0.9-0.1-1.5-0.9-1.3-1.8c0-0.1,0.6-5.1-1.6-9.7c-1.7-3.4-7.4-8.1-15.7-6.1c-5.6,1.4-9,5.5-9.9,9.1c1.4,2.8,4.8,2.9,11.1,2.8
		c0.9,0,1.7,0,2.7,0c5.4,0,6.9,3.2,7,5C329.8,69.1,329.2,69.8,328.2,69.9C328.3,69.9,328.3,69.9,328.2,69.9z"/>
	<path class="st4" d="M344,108.7c-0.3,0-0.5-0.1-0.7-0.2l-9.6-5.2l-0.4-18.7c0-0.9,0.7-1.6,1.5-1.6c0.9,0,1.6,0.7,1.6,1.5l0.3,16.9
		l8.1,4.4c0.8,0.4,1,1.4,0.6,2.1C345.1,108.4,344.6,108.7,344,108.7z"/>
	<path class="st4" d="M332.8,85.4c-0.8,0-1.4-0.6-1.5-1.4c-0.1-0.9,0.5-1.6,1.4-1.7c3.2-0.4,3.9-1.7,4.2-2.7
		c0.5-1.7-0.5-3.5-2.2-4.1c-1-0.3-2-0.2-2.8,0.4c-0.7,0.5-1.7,0.3-2.2-0.4c-0.5-0.7-0.3-1.7,0.4-2.2c1.6-1.1,3.7-1.4,5.6-0.8
		c3.3,1.1,5.2,4.7,4.2,7.9c-0.6,1.9-2.2,4.4-6.8,4.9C332.9,85.4,332.8,85.4,332.8,85.4z"/>
	<path class="st4" d="M316.8,96.6c-2.2,0-3.8-0.5-3.9-0.5c-0.8-0.3-1.3-1.1-1-2c0.3-0.8,1.1-1.3,2-1c0,0,4,1.2,7.3-0.7
		c0.7-0.4,1.7-0.2,2.1,0.6c0.4,0.7,0.2,1.7-0.6,2.1C320.7,96.3,318.6,96.6,316.8,96.6z"/>
	<path class="st4" d="M356.4,211.1c-0.6,0-1.2-0.4-1.5-1c-0.3-0.8,0.1-1.7,0.9-2l4.9-1.8l3.7-6.9c0-0.1,0.1-0.1,0.1-0.2l22.2-29.4
		l-23.3-45.6c-1.6-2.1-6.1-7.5-8.5-8.8c-2.1-1.2-4.5-2.6-7-4.1c-2.3-1.4-4.7-2.8-6.9-4.1c-0.7-0.4-1-1.4-0.6-2.1
		c0.4-0.7,1.4-1,2.1-0.6c2.3,1.3,4.7,2.7,7,4.1c2.5,1.5,4.8,2.9,6.9,4.1c3.4,1.9,8.9,8.9,9.5,9.7c0.1,0.1,0.1,0.2,0.2,0.2l23.8,46.6
		c0.3,0.5,0.2,1.2-0.1,1.6L367.2,201l-3.9,7.3c-0.2,0.3-0.5,0.6-0.8,0.7l-5.5,2C356.8,211.1,356.6,211.1,356.4,211.1z"/>
	<path class="st4" d="M351,209.6c-0.8,0-1.4-0.6-1.5-1.4l-1.5-11.9c0-0.4,0-0.8,0.3-1.1l17-25.2l-17.1-32.7
		c-0.4-0.8-0.1-1.7,0.7-2.1c0.8-0.4,1.7-0.1,2.1,0.7l17.5,33.5c0.3,0.5,0.2,1.1-0.1,1.6l-17.2,25.4l1.4,11.3
		c0.1,0.9-0.5,1.6-1.4,1.7C351.1,209.6,351,209.6,351,209.6z"/>
	<path class="st4" d="M351.1,174.8C351.1,174.8,351.1,174.8,351.1,174.8c-0.9,0-1.6-0.9-1.6-1.8l0.7-31.1c0-0.9,0.8-1.6,1.6-1.6
		c0.9,0,1.5,0.7,1.5,1.6l-0.7,31.2C352.7,174,352,174.8,351.1,174.8z"/>
	<g>
		<circle class="st1" cx="360.8" cy="32.4" r="3.5"/>
		<circle class="st1" cx="377.5" cy="32.4" r="3.5"/>
		<circle class="st1" cx="393.5" cy="32.4" r="3.5"/>
		<circle class="st1" cx="409.8" cy="32.4" r="3.5"/>
	</g>
	<path class="st4" d="M248.1,361.4c-0.9,0-1.6-0.7-1.6-1.6V235.2l-18-10.8c-0.5-0.3-0.8-0.8-0.8-1.3v-9.2c0-0.9,0.7-1.6,1.6-1.6
		h99.9c0.9,0,1.6,0.7,1.6,1.6v8.9c0,0.6-0.3,1.1-0.8,1.3l-15.5,9.1c-0.7,0.4-1.7,0.2-2.1-0.6c-0.4-0.7-0.2-1.7,0.6-2.1l14.7-8.6
		v-6.5h-96.8v6.8l18,10.8c0.5,0.3,0.8,0.8,0.8,1.3v125.5C249.7,360.7,249,361.4,248.1,361.4z"/>
	<path class="st4" d="M258.3,46.8h-167c-0.9,0-1.6-0.7-1.6-1.6V33.6c0-0.9,0.7-1.6,1.6-1.6h195.9c0.9,0,1.6,0.7,1.6,1.6
		c0,0.9-0.7,1.6-1.6,1.6H92.8v8.6h165.5c0.9,0,1.6,0.7,1.6,1.6S259.1,46.8,258.3,46.8z"/>
	<path class="st4" d="M264.3,191.9c-1.8,0-3.5-0.7-4.8-1.9c-2.8-2.7-2.9-7.1-0.2-9.9l6.8-7.2c1.3-1.4,3.1-2.2,5.1-2.2
		c1.8,0,3.5,0.7,4.8,1.9c1.4,1.3,2.1,3,2.2,4.9c0,1.9-0.6,3.7-1.9,5l-6.8,7.2C268.1,191.1,266.2,191.9,264.3,191.9z M271.1,173.9
		c-1.1,0-2.1,0.4-2.8,1.2l-6.8,7.2c-1.5,1.6-1.4,4,0.1,5.5c0.7,0.7,1.7,1.1,2.7,1.1c1.1,0,2.1-0.4,2.8-1.2l6.8-7.2
		c0.7-0.8,1.1-1.7,1.1-2.8c0-1-0.5-2-1.2-2.7C273.1,174.2,272.1,173.9,271.1,173.9z"/>
	<path class="st4" d="M252,215.4c-0.9,0-1.6-0.7-1.6-1.6v-16.2c0-2.2,4.6-6.6,8.4-9.8c0.7-0.6,1.6-0.5,2.2,0.2
		c0.6,0.7,0.5,1.6-0.2,2.2c-3.3,2.8-6.9,6.4-7.3,7.6v16.1C253.6,214.7,252.9,215.4,252,215.4z"/>
	<path class="st4" d="M313.7,352.8c-0.9,0-1.6-0.7-1.6-1.6V232.6c0-0.9,0.7-1.6,1.6-1.6c0.9,0,1.6,0.7,1.6,1.6v118.6
		C315.2,352.1,314.5,352.8,313.7,352.8z"/>
	<g>
		<path class="st1" d="M150.3,117c-0.9,0-1.6-0.7-1.6-1.6V86.6c0-0.9,0.7-1.6,1.6-1.6h15.1c0.4,0,0.8,0.2,1.1,0.5
			c0.3,0.3,0.5,0.7,0.5,1.1l-0.1,17.2c0,0.9-0.7,1.5-1.6,1.5c0,0,0,0,0,0c-0.9,0-1.6-0.7-1.6-1.5l0-15.6h-11.9v27.3
			C151.8,116.4,151.1,117,150.3,117z"/>
		<path class="st1" d="M165,153.5h-14.7c-0.9,0-1.6-0.7-1.6-1.6l-0.1-19.4c0-0.9,0.7-1.7,1.6-1.7c0,0,0,0,0,0c0.9,0,1.6,0.8,1.6,1.7
			l0.1,17.8h11.6v-13.3c0-0.9,0.7-1.6,1.6-1.6c0.9,0,1.6,0.7,1.6,1.6V152C166.6,152.8,165.9,153.5,165,153.5z"/>
		<path class="st1" d="M179.9,153.5H165c-0.9,0-1.6-0.7-1.6-1.6c0-0.9,0.7-1.6,1.6-1.6h13.3v-13.3c0-0.9,0.7-1.6,1.6-1.6
			s1.6,0.7,1.6,1.6V152C181.4,152.8,180.7,153.5,179.9,153.5z"/>
		<path class="st1" d="M194.7,153.5h-14.8c-0.9,0-1.6-0.7-1.6-1.6c0-0.9,0.7-1.6,1.6-1.6h13.3v-21.9c0-0.9,0.7-1.6,1.6-1.6
			c0.9,0,1.6,0.7,1.6,1.6V152C196.3,152.8,195.6,153.5,194.7,153.5z"/>
		<path class="st1" d="M181.4,117.6c-0.9,0-1.6-0.7-1.6-1.6V74.7c0-0.9,0.7-1.6,1.6-1.6h15c0.9,0,1.6,0.7,1.6,1.5l0.1,26.7
			c0,0.9-0.7,1.5-1.5,1.5c0,0,0,0,0,0c-0.9,0-1.6-0.7-1.6-1.5l-0.1-25.1H183v39.8C183,116.9,182.3,117.6,181.4,117.6z"/>
		<path class="st1" d="M211.1,98.9c-0.9,0-1.6-0.7-1.6-1.6V62.2c0-0.9,0.7-1.6,1.6-1.6h15c0.9,0,1.6,0.7,1.6,1.6l0.2,24.1
			c0,0.9-0.7,1.7-1.6,1.7c0,0,0,0,0,0c-0.9,0-1.6-0.8-1.6-1.6l-0.2-22.6h-11.9v33.6C212.6,98.2,212,98.9,211.1,98.9z"/>
		<path class="st1" d="M165.3,117.6c-0.9,0-1.6-0.7-1.6-1.6v-14.8c0-0.9,0.7-1.6,1.6-1.6h15c0.9,0,1.6,0.7,1.6,1.6
			c0,0.9-0.7,1.6-1.6,1.6h-13.5V116C166.8,116.9,166.1,117.6,165.3,117.6z"/>
		<path class="st1" d="M170.8,131.8c-0.3,0-0.6-0.1-0.9-0.3l-13.7-9.8l-16.4,7.7c-0.8,0.4-1.7,0-2.1-0.8c-0.4-0.8,0-1.7,0.8-2.1
			l17.2-8c0.5-0.2,1.1-0.2,1.6,0.1l13.6,9.7l16.9-11.2c0.3-0.2,0.7-0.3,1.1-0.2l9.5,1.2l24.7-22.6c0.3-0.3,0.7-0.4,1.1-0.4h8.8
			c0.9,0,1.6,0.7,1.6,1.6c0,0.9-0.7,1.6-1.6,1.6h-8.2l-24.8,22.7c-0.3,0.3-0.8,0.5-1.2,0.4L189,120l-17.3,11.5
			C171.4,131.7,171.1,131.8,170.8,131.8z"/>
		<path class="st1" d="M222.8,153.5h-82.7c-0.9,0-1.6-0.7-1.6-1.6c0-0.9,0.7-1.6,1.6-1.6h82.7c0.9,0,1.6,0.7,1.6,1.6
			C224.4,152.8,223.7,153.5,222.8,153.5z"/>
		<path class="st1" d="M209.3,81.1h-13v3h13c0.9,0,1.6-0.6,1.6-1.5C210.8,81.8,210.1,81.1,209.3,81.1z"/>
	</g>
	<path class="st4" d="M297.3,141.8c-0.8,0-1.5-0.6-1.6-1.4l-0.7-9.2c-0.1-0.9,0.6-1.6,1.4-1.7c0.8-0.1,1.6,0.6,1.7,1.4l0.7,9.2
		c0.1,0.9-0.6,1.6-1.4,1.7C297.4,141.8,297.3,141.8,297.3,141.8z"/>
	<path class="st5" d="M171.3,123.3c0,0,8.8-6.2,9.2-6.5v-14.6h-16v16.7L171.3,123.3z"/>
	<path class="st5" d="M164.4,132.4l0.2,19.7h16v-20.5c-0.7,0.5-8.7,5.5-8.7,5.5L164.4,132.4z"/>
	<polygon class="st6" points="149.1,130.8 149.2,150.9 164.6,151.3 164.2,132.4 156.1,127.4 	"/>
	<path class="st5" d="M211.3,99.2l0.4-17.5h-16v31.4C196.5,113.2,211.2,99.2,211.3,99.2z"/>
	<path class="st7" d="M195.6,112.3l-0.3-36.7l-14.5-0.2v41.4l7.2-5C187.9,111.8,195.2,112.9,195.6,112.3z"/>
	<path class="st7" d="M164.8,118.1l-0.1-30.2l-14.5-0.2l-0.1,28.7l6.2-3.8C156.3,112.6,164.5,118.8,164.8,118.1z"/>
	<polygon class="st8" points="226,61.6 211.4,61.4 212.1,97.1 225.6,85.4 	"/>
	<path class="st5" d="M204.1,112.8c0.3-0.4,0.6-0.8,0.9-1.2c-0.6,0.5-1.2,1-1.7,1.5c-0.5,0.8-1,1.6-1.4,2.5c0.1,0,0.1-0.1,0.2-0.1
		c0-0.1,0.1-0.2,0.1-0.3c0.6-0.7,1.2-1.4,1.8-2C204,113.1,204,113,204.1,112.8z"/>
	<path class="st6" d="M179.6,132.8l0.2,19.8h16l-0.5-27.5C194.4,125.8,180.4,132.9,179.6,132.8z"/>
	<path class="st4" d="M297,207.2c0,0-0.1,0-0.1,0c-0.9-0.1-1.5-0.8-1.4-1.7l0.5-6.9l-0.5-56.3l-32.7,24.4c-0.5,0.4-1.3,0.4-1.9,0
		L228,142.8l-11.5-7.2c-0.5-0.3-0.8-1-0.7-1.6l1.5-7.5l-4.4-5c-0.4-0.5-0.5-1.2-0.2-1.7l1.3-2.6c0.2-0.4,0.5-0.7,0.9-0.8
		c0.4-0.1,0.8-0.1,1.2,0.1l8.6,4.3c0.8,0.4,1.1,1.3,0.7,2.1c-0.4,0.8-1.3,1.1-2.1,0.7l-7.2-3.6l-0.2,0.3l4.3,4.8
		c0.3,0.4,0.5,0.9,0.4,1.3l-1.4,7.2l10.6,6.7c0,0,0.1,0,0.1,0.1l31.9,23.3L296,138c0.5-0.4,1.1-0.4,1.6-0.1c0.5,0.3,0.9,0.8,0.9,1.4
		l0.5,59.5c0,0,0,0.1,0,0.1l-0.5,6.9C298.5,206.5,297.8,207.2,297,207.2z"/>
</g>
</svg>
